<svg width="155" height="70" viewBox="0 0 155 70" fill="none" xmlns="http://www.w3.org/2000/svg">
<path d="M58.3982 10.3867C59.3758 11.4223 59.2888 11.501 59.1314 11.6459C58.9761 11.8158 58.7752 12.0291 59.2764 13.0191C59.7755 14.0443 60.5646 14.8541 61.3433 15.6763C62.3644 16.7119 63.3979 17.7806 64.0979 19.3007C64.7648 20.91 64.2532 21.4278 63.721 22.0119C63.255 22.5192 62.7662 23.0577 63.0872 24.4309C63.4186 25.86 64.3982 26.7485 65.3426 27.6266C66.5418 28.7284 67.83 29.7992 68.1739 31.6777C68.4845 33.579 67.4531 34.4799 66.3968 35.4368C65.5311 36.2465 64.6426 37.0791 64.4417 38.5972C64.2968 40.1278 64.9305 40.8258 65.5394 41.4678C66.2953 42.2445 67.0182 42.93 66.3948 44.7754C65.7506 46.542 64.5846 47.679 63.4642 48.7705C62.5964 49.6466 61.7534 50.5144 61.3433 51.7632C60.9664 52.9438 61.3206 53.3166 61.6416 53.6645C61.9854 54.0249 62.2754 54.3293 61.4862 55.6342C60.664 56.883 59.7196 57.8854 58.7648 58.8754C57.9882 59.65 57.2198 60.4391 56.5777 61.2841C56.3334 61.485 56.0889 61.6549 55.8653 61.8454C56.6772 60.64 57.6526 59.6728 58.5971 58.6932C59.3634 57.9062 60.1421 57.1067 60.6847 56.1623C61.2625 55.1723 60.9954 54.9031 60.7303 54.6214C60.2974 54.1947 59.8418 53.7101 60.3202 52.0677C60.8193 50.3777 61.8756 49.2883 62.9298 48.2071C63.8411 47.329 64.7731 46.4281 65.1832 45.0901C65.6057 43.7046 65.0506 43.1205 64.4396 42.5013C63.6277 41.6687 62.8283 40.803 63.0851 38.6966C63.286 36.5696 64.3506 35.5362 65.3944 34.5338C66.2146 33.7674 67.0596 33.0156 66.7924 31.5638C66.6039 30.1223 65.616 29.2565 64.5929 28.3784C63.4497 27.2766 62.294 26.1602 61.8839 24.203C61.4614 22.3018 62.1055 21.6038 62.7061 20.9846C63.1493 20.5123 63.5615 20.0836 63.083 18.8927C62.6274 17.7226 61.8052 16.8797 61.0057 16.0471C60.0282 15.0115 59.0403 14.0319 58.4396 12.5925C57.7727 11.2297 58.0399 10.948 58.2615 10.7575C58.3734 10.6228 58.45 10.5317 57.752 9.75711C57.9737 9.9601 58.1746 10.1837 58.3962 10.3867H58.3982ZM12.3762 8.19343C11.5436 9.37396 10.5764 10.3433 9.63404 11.3332C8.85738 12.1099 8.10143 12.9321 7.53601 13.8765C6.98095 14.8665 7.23776 15.113 7.51326 15.4175C7.92329 15.8234 8.40178 16.3184 7.89019 17.9504C7.42416 19.6487 6.35757 20.7298 5.31373 21.8213C4.40244 22.6994 3.46009 23.6004 3.06037 24.9383C2.61508 26.3218 3.15978 26.8955 3.79146 27.5251C4.60334 28.3577 5.39036 29.2255 5.1584 31.3277C4.93679 33.4547 3.85981 34.4799 2.80355 35.4927C1.98132 36.259 1.14874 36.988 1.40348 38.4523C1.59195 39.8938 2.61301 40.7698 3.61335 41.6583C4.75661 42.7395 5.91228 43.8413 6.33476 45.8109C6.75732 47.7246 6.10075 48.4205 5.5022 49.0294C5.05898 49.5016 4.63648 49.9179 5.11283 51.1336C5.57883 52.2935 6.40104 53.1468 7.21088 53.969C8.18844 55.0025 9.16599 55.9945 9.78733 57.4236C10.4335 58.7967 10.1539 59.0763 9.9654 59.2565C9.8329 59.4036 9.75416 59.4698 10.4439 60.2569C10.2326 60.056 10.0213 59.8405 9.81008 59.6376C8.84499 58.5917 8.9112 58.5027 9.06659 58.3535C9.24466 58.1961 9.43316 57.9932 8.93192 57.0031C8.43279 55.9697 7.64373 55.1682 6.84425 54.3356C5.83358 53.3021 4.84566 52.2438 4.1332 50.7112C3.45595 49.1143 3.94473 48.5841 4.48943 48.0104C4.96786 47.5051 5.45663 46.9645 5.13354 45.581C4.77732 44.1623 3.82254 43.2738 2.86775 42.3832C1.66858 41.2814 0.413495 40.2231 0.04691 38.3218C-0.23062 36.4205 0.769721 35.5196 1.82392 34.5752C2.70207 33.7632 3.56779 32.9431 3.7894 31.4126C3.93437 29.882 3.30062 29.1841 2.70207 28.5544C1.93575 27.7778 1.23572 27.0798 1.85705 25.2469C2.50117 23.4699 3.65684 22.3453 4.76696 21.2518C5.6099 20.3633 6.47769 19.4975 6.87743 18.259C7.26681 17.0785 6.92089 16.7078 6.58744 16.3702C6.25398 16.0098 5.96613 15.6825 6.74276 14.3902C7.56499 13.1413 8.51979 12.1389 9.45178 11.1613C10.2305 10.3619 10.9968 9.57485 11.6617 8.75261C11.8957 8.56209 12.1173 8.3591 12.372 8.19133L12.3762 8.19343ZM14.7745 6.59454C14.0414 7.93248 13.0534 8.92242 12.0862 9.92489C11.3075 10.6912 10.5412 11.4782 10.0545 12.5013C9.61129 13.5493 9.9654 13.92 10.3424 14.3135C10.8643 14.8417 11.4525 15.4381 11.088 17.1365C10.7545 18.9363 9.75415 19.9614 8.72278 21.0405C7.90055 21.8855 7.01203 22.7512 6.70139 24.1678C6.42386 25.63 7.03485 26.2948 7.6893 27.0136C8.58818 27.9373 9.47662 28.8941 9.2882 31.0978C9.16599 33.3594 8.09933 34.4405 7.03275 35.5196C6.19813 36.3522 5.37586 37.1744 5.55605 38.7484C5.67824 40.3121 6.65582 41.2006 7.59817 42.1016C8.66475 43.1931 9.77487 44.2969 10.0545 46.3453C10.3092 48.3376 9.56573 49.1123 8.86571 49.8454C8.3334 50.4067 7.84462 50.9244 8.16562 52.1857C8.52189 53.4243 9.30892 54.2217 10.098 55.0336C11.0652 56.0339 12.0303 57.026 12.5295 58.5668C13.0742 60.0415 12.6744 60.4225 12.3617 60.7394C12.1277 60.9651 11.9516 61.1454 12.5626 62.0339C12.3182 61.8433 12.0738 61.6631 11.8418 61.4726C10.974 60.3252 11.1625 60.1119 11.4422 59.8405C11.7197 59.5817 12.02 59.2793 11.5975 58.2085C11.175 57.1171 10.4211 56.3073 9.64237 55.5078C8.65439 54.5178 7.6872 53.4926 7.1425 51.8834C6.64336 50.1851 7.2316 49.5555 7.89642 48.8803C8.46387 48.2734 9.0521 47.6417 8.81804 46.1899C8.62954 44.7049 7.68517 43.8164 6.77383 42.9259C5.65339 41.8344 4.45422 40.7326 4.1974 38.6614C3.9758 36.5675 4.99685 35.5776 6.05312 34.5317C6.91886 33.6763 7.78456 32.7982 7.92952 31.1558C8.03102 29.5589 7.35171 28.7823 6.67444 28.0388C5.80665 27.1503 5.04242 26.3301 5.50842 24.4039C5.96406 22.5027 7.05347 21.4236 8.08484 20.3529C8.92779 19.5203 9.72931 18.665 10.0068 17.3829C10.3175 16.134 9.86188 15.6722 9.41867 15.2227C8.97336 14.7506 8.56326 14.3218 9.20742 12.9156C9.88463 11.5755 10.8394 10.5959 11.7942 9.62867C12.5833 8.84165 13.3724 8.04224 13.9585 7.10815C14.2133 6.91556 14.5032 6.75815 14.7704 6.5904L14.7745 6.59454ZM17.496 5.1427C16.8415 6.63803 15.808 7.66321 14.7973 8.66358C14.0082 9.47335 13.2316 10.2852 12.8422 11.3871C12.4756 12.5241 12.9085 12.9611 13.3869 13.4457C14.031 14.0878 14.7186 14.7858 14.4638 16.5856C14.263 18.4536 13.2647 19.4665 12.2871 20.5C11.4545 21.3325 10.622 22.19 10.4335 23.6625C10.2657 25.1703 10.9534 25.9138 11.6658 26.7008C12.5999 27.7012 13.565 28.7263 13.4656 30.9984C13.3994 33.3055 12.3327 34.4198 11.2764 35.5341C10.4439 36.4247 9.59884 37.2883 9.71069 38.9431C9.78733 40.5855 10.7214 41.4864 11.5891 42.375C12.6662 43.4767 13.7204 44.5579 13.8757 46.6518C13.9854 48.7105 13.1632 49.5865 12.3534 50.4088C11.7197 51.0508 11.1543 51.6349 11.3883 52.9624C11.6223 54.2465 12.4093 55.0543 13.188 55.8537C14.1636 56.8437 15.1432 57.8336 15.5409 59.4885C15.9758 61.1081 15.4849 61.6031 15.0521 62.0297C14.729 62.3569 14.4638 62.6035 14.9962 63.5934C14.729 63.436 14.4411 63.2786 14.1739 63.1087C13.4076 61.804 13.7183 61.4892 14.118 61.1061C14.4742 60.756 14.8616 60.3749 14.5074 59.2151C14.1967 58.0097 13.4096 57.2227 12.6206 56.4232C11.6534 55.4332 10.6986 54.4308 10.3092 52.7429C9.9654 50.9762 10.6758 50.2224 11.4193 49.4477C12.0531 48.7829 12.718 48.0746 12.5957 46.5772C12.4735 45.0363 11.6286 44.1685 10.7172 43.2924C9.65063 42.1906 8.54051 41.097 8.33962 38.9038C8.20705 36.6753 9.23017 35.5962 10.2844 34.5172C11.1501 33.6163 12.0055 32.7153 12.0841 31.017C12.1608 29.3518 11.4297 28.5296 10.6613 27.7198C9.75003 26.7402 8.90707 25.831 9.19706 23.793C9.5077 21.8337 10.5515 20.7775 11.5623 19.7419C12.3513 18.9093 13.1508 18.0995 13.3289 16.7367C13.5402 15.4216 12.9975 14.8686 12.4839 14.3633C11.9061 13.7668 11.3738 13.2387 11.8957 11.7288C12.4508 10.2645 13.4407 9.28696 14.4059 8.2742C15.2385 7.47478 16.0504 6.64217 16.5722 5.59626C16.8829 5.42851 17.1832 5.29181 17.4939 5.13441L17.496 5.1427ZM20.5156 3.76955C19.9502 5.44714 18.8836 6.52619 17.8398 7.61765C17.0072 8.43785 16.1953 9.26008 15.8743 10.4758C15.5761 11.7019 16.1187 12.23 16.6613 12.8057C17.4173 13.5141 18.2063 14.3011 18.051 16.2251C17.9164 18.172 16.9409 19.1724 15.951 20.1976C15.1743 21.0198 14.3396 21.8523 14.2526 23.3705C14.1532 24.9238 14.9092 25.744 15.6858 26.5559C16.6737 27.6017 17.6845 28.6932 17.6513 30.9777C17.6285 33.2952 16.5743 34.4094 15.518 35.5465C14.6752 36.4578 13.8197 37.3463 13.8757 39.0467C13.9191 40.7346 14.7973 41.6107 15.6631 42.5013C16.7069 43.572 17.7176 44.6158 17.7631 46.776C17.8067 48.8678 16.885 49.8268 15.9862 50.7484C15.2964 51.4464 14.6296 52.1216 14.7745 53.5051C14.9402 54.8554 15.7293 55.6548 16.5059 56.4522C17.5167 57.4526 18.5149 58.4653 18.8173 60.2548C19.1942 62.0443 18.5833 62.6303 18.051 63.1709C17.6285 63.5872 17.2723 63.9352 17.7404 65.037C17.4297 64.9024 17.119 64.7449 16.8187 64.5979C16.1415 63.1253 16.5847 62.6966 17.0859 62.212C17.5291 61.7605 17.9972 61.3007 17.73 60.029C17.4629 58.745 16.6634 57.9144 15.8536 57.1274C14.8864 56.1374 13.9109 55.1474 13.6313 53.358C13.42 51.5002 14.2319 50.6697 15.0645 49.7916C15.7977 49.0605 16.5309 48.3066 16.4749 46.7657C16.419 45.1916 15.5968 44.3238 14.7414 43.4685C13.6975 42.377 12.631 41.2959 12.5087 39.0342C12.4321 36.7291 13.4863 35.6252 14.5301 34.5006C15.3855 33.5893 16.2409 32.6884 16.274 30.9797C16.3072 29.2918 15.4973 28.4136 14.7186 27.5707C13.7514 26.5351 12.8318 25.5451 12.9975 23.4409C13.1632 21.4154 14.1863 20.3901 15.1515 19.367C15.951 18.5572 16.74 17.7578 16.8519 16.3287C16.9741 14.9432 16.3527 14.3156 15.7521 13.7067C15.0748 13.0316 14.4328 12.3895 14.8429 10.7471C15.3316 9.17098 16.3299 8.15822 17.3406 7.12264C18.1981 6.27766 19.0307 5.40158 19.4842 4.20863C19.8281 4.05122 20.1739 3.90417 20.5177 3.76955H20.5156ZM23.8149 2.47512C23.3386 4.34325 22.2492 5.49064 21.1618 6.64838C20.3168 7.51412 19.4614 8.38192 19.1963 9.70945C18.9623 11.037 19.5857 11.6439 20.2174 12.2756C21.0728 13.0875 21.9613 13.9407 21.8618 15.9663C21.806 18.0146 20.7952 19.0378 19.8073 20.0629C19.0079 20.8831 18.1981 21.695 18.1525 23.2587C18.1422 24.8451 18.9292 25.6777 19.7514 26.5434C20.7952 27.6245 21.8391 28.716 21.8494 30.9984C21.8598 33.3055 20.8056 34.4094 19.7514 35.5341C18.9064 36.435 18.051 37.3567 18.0738 39.0674C18.0862 40.7553 18.9292 41.621 19.7742 42.4764C20.7952 43.5451 21.806 44.591 21.7853 46.7636C21.7728 48.9114 20.7973 49.9241 19.797 50.8934C19.041 51.6576 18.3078 52.3887 18.3969 53.853C18.4963 55.2696 19.2957 56.0815 20.1076 56.8913C21.1411 57.9496 22.1746 59.0059 22.4169 60.9651C22.7048 62.9016 21.9944 63.5872 21.3399 64.2065C20.8512 64.6911 20.3728 65.1508 20.8056 66.4122C20.439 66.2651 20.1056 66.1305 19.7845 65.9855C19.1735 64.3432 19.7286 63.8026 20.3499 63.1834C20.8822 62.6655 21.4373 62.1022 21.2157 60.7187C20.994 59.3456 20.1822 58.4902 19.3393 57.6472C18.3389 56.6552 17.351 55.6321 17.1832 53.7536C17.0506 51.8171 17.9495 50.9058 18.8815 49.9386C19.6582 49.1723 20.4473 48.3522 20.4473 46.7864C20.47 45.1896 19.6147 44.357 18.7925 43.4912C17.7817 42.4226 16.7379 41.3642 16.6821 39.0694C16.6592 36.7498 17.7259 35.6252 18.749 34.4902C19.6147 33.6018 20.47 32.6904 20.47 30.9797C20.4597 29.3021 19.6251 28.4261 18.8049 27.5354C17.7838 26.444 16.7959 25.4209 16.8622 23.2835C16.9409 21.202 17.9392 20.1665 18.9271 19.1765C19.7058 18.3543 20.5281 17.5445 20.584 16.0595C20.673 14.5849 19.9627 13.9096 19.2854 13.2345C18.4963 12.4351 17.7528 11.7163 18.0738 9.94974C18.4632 8.21617 19.5173 7.13713 20.5612 6.06847C21.4393 5.15719 22.3154 4.21277 22.7172 2.88519C23.0714 2.75057 23.438 2.61387 23.8149 2.47925V2.47512ZM27.313 1.26973C26.9692 3.31805 25.8695 4.51101 24.7801 5.7371C23.9019 6.67117 23.0362 7.58244 22.8146 9.01153C22.6365 10.4509 23.3365 11.1261 24.0572 11.8344C25.0017 12.725 25.9792 13.6467 25.9358 15.784C25.9129 17.9214 24.8567 18.957 23.8377 20.0257C23.0155 20.8375 22.2056 21.668 22.2056 23.2669C22.2285 24.8762 23.0611 25.7315 23.906 26.6097C24.983 27.7012 26.06 28.7926 26.0827 31.0543C26.1159 33.3387 25.0493 34.4198 24.0054 35.5341C23.1501 36.435 22.2948 37.3235 22.2948 39.0322C22.2616 40.7098 23.1066 41.5651 23.9495 42.4205C24.9499 43.4788 26.0041 44.5248 25.9606 46.7284C25.915 48.9217 24.8608 49.9697 23.8045 50.9721C22.9948 51.7716 22.2056 52.5814 22.2285 54.0995C22.2948 55.5844 23.117 56.4274 23.9723 57.2952C25.0162 58.3763 26.1056 59.5113 26.2816 61.5927C26.5032 63.6638 25.6479 64.4736 24.8919 65.1944C24.3161 65.7577 23.7714 66.3086 24.1256 67.7025C23.7362 67.5451 23.3592 67.4208 23.0155 67.2862C22.4811 65.4512 23.1604 64.8112 23.8812 64.1009C24.4922 63.494 25.1487 62.8975 24.9913 61.3794C24.8235 59.8592 23.9702 58.9831 23.1149 58.1154C22.0586 57.0466 21.0479 56.0111 20.9382 53.9959C20.8822 51.9704 21.8473 51.0135 22.8705 50.0235C23.6927 49.1806 24.5481 48.3583 24.5709 46.7615C24.5916 45.1295 23.7714 44.2845 22.9492 43.4415C21.9281 42.3728 20.8822 41.3145 20.8946 39.0301C20.8946 36.7249 21.9613 35.6107 22.9948 34.4964C23.8605 33.6059 24.7055 32.7298 24.7055 31.0522C24.6723 29.3643 23.817 28.4758 22.972 27.5997C21.9054 26.4854 20.8739 25.4168 20.8615 23.2441C20.8739 21.1171 21.8826 20.0816 22.8829 19.0812C23.7052 18.2486 24.5274 17.4037 24.573 15.8503C24.6164 14.297 23.8274 13.5555 23.0838 12.8348C22.1849 11.9566 21.342 11.1468 21.6071 9.25588C21.9302 7.34221 23.0051 6.19481 24.0842 5.09299C24.9727 4.103 25.8508 3.10058 26.1511 1.62803C26.5281 1.50377 26.9174 1.3795 27.3172 1.26766L27.313 1.26973ZM30.9105 0.368795C30.7324 2.57452 29.701 3.72192 28.6116 4.91488C27.7459 5.91522 26.8677 6.86171 26.7021 8.40264C26.5798 9.93105 27.3689 10.7077 28.1456 11.4513C29.179 12.3977 30.2229 13.4105 30.2105 15.6266C30.1898 17.8324 29.1232 18.9238 28.0338 19.9697C27.2012 20.8479 26.3561 21.6908 26.379 23.3125C26.4121 24.9321 27.2799 25.8103 28.1456 26.6884C29.2329 27.7799 30.312 28.8714 30.3223 31.1102C30.3451 33.3511 29.2889 34.4302 28.245 35.5217C27.3896 36.3998 26.5343 37.2883 26.5136 38.9659C26.4784 40.6311 27.3358 41.4864 28.1787 42.3521C29.2122 43.3981 30.2788 44.4564 30.2332 46.7077C30.2229 48.9238 29.1128 49.9821 28.0234 51.0384C27.1577 51.8606 26.3023 52.6704 26.3023 54.2693C26.3354 55.8558 27.2012 56.7339 28.0896 57.6224C29.1667 58.747 30.2788 59.8613 30.3658 62.0442C30.488 64.2396 29.5436 65.2171 28.6882 66.0746C27.9882 66.727 27.3669 67.3339 27.6319 68.8768C27.2426 68.765 26.8429 68.6635 26.4659 68.5268C26.0559 66.524 26.8325 65.737 27.6651 64.9148C28.3651 64.2499 29.1086 63.5644 28.9968 61.9676C28.9202 60.3584 28.0192 59.4015 27.1535 58.5027C26.0434 57.434 24.9975 56.3197 24.9313 54.2155C24.9209 52.1008 25.9647 51.0757 27.0293 50.0401C27.9074 49.1951 28.7959 48.3522 28.8166 46.7097C28.8498 45.0777 27.9944 44.212 27.1515 43.3566C26.1304 42.2983 25.0741 41.242 25.1177 38.9908C25.1404 36.7063 26.1842 35.6045 27.2384 34.5006C28.0938 33.6349 28.9492 32.7567 28.9264 31.1019C28.9036 29.4367 28.0483 28.5483 27.1825 27.6825C26.0827 26.5682 25.0265 25.4892 24.9933 23.2835C24.9602 21.1109 25.9937 20.065 27.0479 19.0191C27.8929 18.1637 28.7587 17.298 28.7587 15.6763C28.7918 14.0567 27.9488 13.2676 27.1369 12.491C26.149 11.5341 25.2047 10.6456 25.3931 8.58694C25.6479 6.52826 26.7144 5.35809 27.8142 4.18792C28.6924 3.15237 29.525 2.16238 29.7237 0.575906C30.1131 0.530341 30.4798 0.464066 30.9002 0.372938L30.9105 0.368795ZM34.5433 0.0208498C34.566 2.24936 33.5885 3.33876 32.5881 4.44266C31.7452 5.34153 30.8794 6.33151 30.8111 7.9532C30.7448 9.57275 31.6002 10.3494 32.4452 11.1945C33.5325 12.2631 34.6323 13.3215 34.6323 15.5603C34.6199 17.7992 33.5098 18.8907 32.4224 19.9594C31.5339 20.8375 30.6578 21.6929 30.6682 23.3352C30.691 24.9777 31.5774 25.8558 32.4556 26.7339C33.5222 27.8026 34.5992 28.8714 34.5867 31.1102C34.5867 33.3511 33.5325 34.4302 32.4887 35.5092C31.6209 36.3874 30.7779 37.2655 30.7676 38.9182C30.7469 40.5731 31.6002 41.4285 32.468 42.2942C33.5346 43.3629 34.6116 44.4315 34.5992 46.6704C34.6095 48.8989 33.5118 49.9904 32.3997 51.0591C31.5111 51.9248 30.6123 52.7677 30.6123 54.4122C30.6351 56.0318 31.5008 56.9431 32.3997 57.8213C33.4994 58.923 34.5764 59.969 34.5536 62.2099C34.5433 64.4488 33.5429 65.5299 32.5777 66.5634C31.8342 67.4084 31.1114 68.127 31.2564 69.7715C30.8442 69.6473 30.4446 69.5789 30.0552 69.5229C29.8336 67.3525 30.6993 66.406 31.6334 65.5506C32.4224 64.7056 33.2094 63.8523 33.1763 62.2099C33.1763 60.5675 32.3106 59.6791 31.3993 58.8113C30.2892 57.6742 29.2101 56.5703 29.1667 54.377C29.1894 52.1712 30.2664 51.1254 31.3869 50.067C32.2774 49.1889 33.1639 48.3231 33.1742 46.6808C33.1742 45.028 32.3189 44.1602 31.4532 43.3048C30.3865 42.2258 29.3323 41.1675 29.3654 38.9286C29.3862 36.6774 30.4321 35.5983 31.4759 34.5047C32.3416 33.6494 33.197 32.7712 33.197 31.1185C33.197 29.4637 32.3313 28.598 31.4552 27.7198C30.3762 26.6387 29.2889 25.5596 29.2453 23.3415C29.2226 21.1151 30.312 20.0339 31.3889 18.9528C32.2795 18.0871 33.166 17.2193 33.1763 15.5769C33.1887 13.9242 32.2878 13.0564 31.4221 12.201C30.3679 11.2214 29.3344 10.221 29.4442 8.04846C29.5788 5.86551 30.6662 4.73883 31.712 3.4796C32.5322 2.57867 33.3337 1.67981 33.3544 0.0477742C33.7438 0.0146365 34.1663 -0.0205723 34.5433 0.0146365V0.0208498ZM38.1635 0.480635C38.3748 2.65322 37.5091 3.59765 36.575 4.45301C35.8087 5.29803 35.0092 6.15339 35.0196 7.79368C35.0424 9.43612 35.9205 10.3246 36.7966 11.2027C37.9067 12.3273 38.9961 13.4312 39.0417 15.6245C39.0313 17.8303 37.9419 18.8762 36.8318 19.9469C35.9537 20.8127 35.0548 21.6805 35.0444 23.3332C35.0444 24.9756 35.9102 25.8537 36.7655 26.7091C37.8322 27.7674 38.8884 28.8362 38.8553 31.0874C38.8221 33.3366 37.7763 34.4074 36.7324 35.5092C35.8667 36.3666 35.0113 37.2303 35.0113 38.8851C35.0217 40.5379 35.8895 41.416 36.7655 42.2942C37.8549 43.3753 38.9422 44.4419 38.9878 46.6704C38.9982 48.8885 37.9336 49.9676 36.8339 51.0363C35.9433 51.9144 35.0465 52.7822 35.0341 54.435C35.0217 56.0794 35.9102 56.9431 36.7883 57.8109C37.8549 58.7781 38.876 59.7908 38.7766 61.9635C38.6212 64.1361 37.5547 65.271 36.5212 66.5323C35.6886 67.4333 34.8767 68.3218 34.8664 69.9745C34.477 69.9869 34.0876 70.0075 33.6671 69.9972C33.6444 67.7584 34.6219 66.6669 35.6202 65.5631C36.4776 64.6745 37.331 63.6845 37.4076 62.0546C37.4635 60.4453 36.6081 59.6687 35.7631 58.8133C34.6758 57.755 33.5864 56.6863 33.5864 54.4474C33.5864 52.2189 34.6965 51.1295 35.8087 50.0484C36.6869 49.1827 37.5753 48.3149 37.5526 46.6725C37.5298 45.0301 36.6433 44.1644 35.7652 43.2738C34.6882 42.2051 33.6216 41.1364 33.6216 38.8975C33.634 36.669 34.6882 35.5776 35.7217 34.4985C36.577 33.6328 37.4428 32.7547 37.4552 31.0999C37.478 29.4347 36.6102 28.5793 35.7549 27.7136C34.6882 26.6429 33.6113 25.5741 33.6216 23.3477C33.6113 21.0964 34.711 20.0173 35.8335 18.9487C36.7117 18.0933 37.5981 17.238 37.5981 15.608C37.5857 13.9635 36.6889 13.0647 35.8107 12.1865C34.7131 11.1054 33.634 10.0264 33.6568 7.80817C33.6671 5.56934 34.6571 4.47787 35.6202 3.44232C36.3865 2.59731 37.099 1.87863 36.9768 0.256956C37.3765 0.368795 37.7534 0.424715 38.1656 0.482706L38.1635 0.480635ZM41.7507 1.49341C42.14 3.49617 41.3613 4.26247 40.5411 5.09506C39.8411 5.74746 39.0976 6.44541 39.2094 8.05469C39.2861 9.65149 40.1974 10.6083 41.0631 11.5072C42.14 12.5986 43.2067 13.7026 43.2605 15.7944C43.2833 17.9089 42.2499 18.9342 41.1728 19.9801C40.3071 20.8127 39.4311 21.668 39.3855 23.3104C39.3523 24.9425 40.218 25.7957 41.0506 26.6635C42.0841 27.697 43.1279 28.7678 43.0824 31.0295C43.072 33.3139 42.0158 34.4053 40.9616 35.4968C40.1063 36.3853 39.2633 37.2531 39.284 38.9162C39.3068 40.571 40.1725 41.4698 41.0382 42.3376C42.1255 43.4291 43.1922 44.5206 43.2253 46.7242C43.2585 48.9072 42.2374 49.9427 41.1708 51.0011C40.3154 51.8668 39.4621 52.7222 39.429 54.3438C39.4186 55.9511 40.2512 56.7401 41.0734 57.5271C42.051 58.4612 43.0058 59.3725 42.8069 61.4312C42.5626 63.4899 41.4856 64.6372 40.3962 65.8302C39.518 66.8657 38.6751 67.8682 38.497 69.4546C38.0869 69.5002 37.6975 69.5561 37.3081 69.6473C37.4635 67.4519 38.5177 66.3065 39.5968 65.1012C40.4748 64.0884 41.351 63.144 41.5063 61.6238C41.6389 60.0601 40.8622 59.3062 40.0731 58.5627C39.0292 57.6059 37.9854 56.593 37.9958 54.377C38.0186 52.1712 39.1059 51.0902 40.1725 50.0339C41.0403 49.1682 41.8729 48.3128 41.8501 46.7035C41.8169 45.084 40.9388 44.1934 40.0834 43.3277C38.9837 42.2258 37.9067 41.1447 37.886 38.8955C37.8736 36.6442 38.9195 35.5755 39.9509 34.4841C40.8166 33.5955 41.6844 32.7174 41.6948 31.0522C41.7404 29.3746 40.8849 28.5317 40.04 27.666C39.0065 26.6076 37.9398 25.5389 37.973 23.3125C38.0061 21.084 39.1162 20.0257 40.1953 18.9694C41.0506 18.1471 41.9039 17.3374 41.9039 15.7509C41.8708 14.1644 40.9947 13.2759 40.1373 12.3977C39.0396 11.2628 37.9274 10.1589 37.828 7.97595C37.7162 5.77024 38.6606 4.81546 39.5367 3.92488C40.2035 3.28284 40.8353 2.67394 40.5805 1.14546C40.9699 1.2573 41.3468 1.35879 41.7465 1.49341H41.7507ZM45.2156 2.73193C45.7147 4.56692 45.0479 5.18412 44.3147 5.90486C43.6934 6.5117 43.0493 7.12061 43.2274 8.62837C43.3827 10.1465 44.2381 11.0247 45.0935 11.8904C46.1373 12.9487 47.1708 14.005 47.2702 15.9974C47.3489 18.0333 46.3609 18.9901 45.3482 19.9905C44.5156 20.8354 43.683 21.6556 43.6395 23.2648C43.6064 24.8969 44.4514 25.717 45.2612 26.5724C46.2823 27.6204 47.351 28.687 47.3158 30.9839C47.3158 33.2911 46.2492 34.3826 45.2074 35.5175C44.3624 36.3957 43.507 37.2841 43.5173 38.9721C43.5505 40.6497 44.4058 41.5258 45.2508 42.4164C46.3175 43.5182 47.351 44.589 47.3717 46.7698C47.3613 48.8969 46.3609 49.9324 45.3503 50.9348C44.5177 51.7674 43.6851 52.6331 43.6416 54.1761C43.5981 55.717 44.3872 56.4709 45.1514 57.1916C46.0296 58.047 46.8953 58.8796 46.6178 60.7705C46.2947 62.6718 45.2177 63.8295 44.1511 64.9334C43.2523 65.9234 42.3741 66.9258 42.0531 68.3983C41.6761 68.5206 41.2992 68.6469 40.8974 68.7359C41.2536 66.7001 42.3409 65.4843 43.4303 64.2914C44.3292 63.3469 45.1846 62.446 45.4062 61.0066C45.5843 59.5547 44.8843 58.8796 44.1511 58.1816C43.2191 57.2807 42.2291 56.3591 42.2975 54.2341C42.3182 52.0946 43.3745 51.0487 44.3955 49.9904C45.2074 49.1682 46.0503 48.3583 46.0275 46.7491C45.9944 45.1399 45.1618 44.2721 44.3064 43.4084C43.2294 42.2942 42.1628 41.213 42.1297 38.9514C42.1069 36.667 43.1631 35.5858 44.207 34.4841C45.0728 33.5727 45.9157 32.6842 45.9281 30.9839C45.9385 29.2959 45.1183 28.4426 44.2629 27.5976C43.2626 26.5269 42.2208 25.483 42.2747 23.2773C42.3182 21.084 43.3745 20.0257 44.4183 19.046C45.2074 18.2362 46.0296 17.4368 45.984 15.9186C45.9281 14.4233 45.0728 13.5783 44.2402 12.7229C43.186 11.6314 42.1069 10.5068 41.9412 8.41293C41.7196 6.33151 42.5419 5.52171 43.3185 4.81339C43.9067 4.23969 44.441 3.71156 44.0848 2.31564C44.4618 2.45026 44.8408 2.58695 45.2177 2.73193H45.2156ZM48.4362 4.0388C49.0348 5.69153 48.4797 6.22173 47.8687 6.82857C47.3365 7.3567 46.771 7.90966 47.003 9.28283C47.2143 10.6767 48.0365 11.5217 48.8691 12.3646C49.857 13.3649 50.8677 14.3778 51.0354 16.2583C51.1701 18.1927 50.2588 19.1164 49.3371 20.0629C48.5605 20.8499 47.7714 21.6598 47.7714 23.2359C47.7486 24.8451 48.5936 25.6777 49.4034 26.5207C50.4369 27.579 51.4911 28.66 51.5139 30.9548C51.547 33.2724 50.4804 34.3971 49.4593 35.5217C48.604 36.4226 47.7507 37.3214 47.7382 39.0218C47.7611 40.7222 48.5936 41.5983 49.4262 42.4764C50.4369 43.5555 51.4373 44.591 51.3689 46.7408C51.2902 48.8244 50.3023 49.8475 49.3144 50.8479C48.5149 51.6701 47.6927 52.4799 47.6367 53.9649C47.5602 55.4374 48.2602 56.1126 48.9374 56.7774C49.7244 57.5644 50.4907 58.3183 50.147 60.0621C49.7472 61.8061 48.7034 62.8748 47.6471 63.9434C46.7689 64.8651 45.9136 65.8219 45.4911 67.1495C45.1473 67.2841 44.7807 67.4312 44.4037 67.5555C44.8822 65.6873 45.9592 64.5171 47.0361 63.3573C47.9019 62.4916 48.7572 61.6362 49.0244 60.3314C49.2688 58.9707 48.635 58.3638 47.9909 57.7426C47.1459 56.9224 46.2574 56.0649 46.3465 54.0518C46.4148 52.0035 47.4255 50.97 48.4238 49.9676C49.2233 49.1246 50.0351 48.3252 50.0682 46.7615C50.0786 45.1751 49.3019 44.3301 48.4569 43.4644C47.4131 42.3728 46.3693 41.2814 46.3589 39.0073C46.3465 36.7001 47.4027 35.5983 48.4466 34.4841C49.3019 33.5727 50.1676 32.6615 50.147 30.9507C50.1345 29.2607 49.2916 28.3846 48.4466 27.5293C47.4359 26.4502 46.4024 25.4023 46.4252 23.2317C46.4479 21.084 47.4359 20.0816 48.4134 19.1247C49.1694 18.348 49.9005 17.6169 49.8239 16.1651C49.7224 14.7361 48.9125 13.9262 48.1028 13.104C47.0693 12.0457 46.0378 10.9894 45.7935 9.03014C45.4828 7.10815 46.2036 6.43092 46.8808 5.80131C47.3799 5.31874 47.8356 4.85689 47.4028 3.61837C47.7466 3.75299 48.0924 3.88761 48.4362 4.03465V4.0388ZM51.3896 5.42229C52.0669 6.88657 51.6237 7.30078 51.1224 7.80817C50.6875 8.23486 50.2008 8.71951 50.4887 9.98082C50.7455 11.2649 51.5553 12.085 52.3548 12.8824C53.3323 13.8744 54.3099 14.8748 54.577 16.6642C54.7986 18.5199 53.9889 19.3422 53.1335 20.2307C52.4231 20.9514 51.7003 21.7032 51.7458 23.2566C51.8017 24.8203 52.6343 25.686 53.4669 26.5538C54.5107 27.6328 55.5981 28.7263 55.7099 30.9859C55.7886 33.2932 54.722 34.3846 53.6761 35.5092C52.8311 36.4226 51.9778 37.3338 51.955 39.0426C51.8991 40.7201 52.7338 41.5962 53.5208 42.4516C54.4632 43.4747 55.3972 44.4771 55.2418 46.5814C55.0638 48.6069 54.0531 49.6404 53.0755 50.6531C52.276 51.465 51.487 52.2748 51.3772 53.6915C51.2425 55.0646 51.866 55.6942 52.4542 56.2907C53.1542 56.9887 53.788 57.6307 53.3654 59.2627C52.887 60.8492 51.8991 61.862 50.8884 62.8975C50.033 63.7405 49.1797 64.631 48.722 65.8219C48.3782 65.969 48.0447 66.1139 47.7114 66.261C48.2767 64.573 49.3226 63.4815 50.3892 62.4129C51.2115 61.5803 52.0337 60.758 52.3444 59.5444C52.6427 58.3183 52.1103 57.7881 51.5553 57.2144C50.789 56.4833 50.0103 55.7066 50.178 53.8054C50.3106 51.8482 51.2757 50.8354 52.2657 49.8226C53.0651 49.0004 53.8874 48.1782 53.9764 46.6497C54.0654 45.0964 53.3116 44.2741 52.5328 43.454C51.5449 42.3957 50.5446 41.327 50.5674 39.0426C50.5798 36.7126 51.6444 35.5983 52.6882 34.4737C53.5436 33.5624 54.3886 32.6615 54.3451 30.9632C54.2891 29.2855 53.4006 28.3971 52.568 27.5313C51.5118 26.4399 50.4907 25.3836 50.4576 23.2338C50.4141 21.1296 51.3358 20.1851 52.2243 19.2739C52.914 18.5655 53.5809 17.8903 53.4358 16.5172C53.2681 15.1668 52.4811 14.357 51.692 13.5679C50.7041 12.5552 49.6933 11.5424 49.3827 9.75501C49.0058 7.96559 49.6043 7.38155 50.1822 6.841C50.5819 6.43506 50.9588 6.07469 50.47 4.97287C50.7704 5.11991 51.081 5.26489 51.3917 5.42229H51.3896ZM54.0323 6.90727C54.7986 8.20168 54.488 8.52688 54.0883 8.91003C53.7444 9.24762 53.3447 9.64113 53.6989 10.801C54.022 11.9939 54.809 12.7809 55.5774 13.5804C56.5425 14.5807 57.52 15.5707 57.8991 17.2711C58.2636 19.0378 57.5429 19.7689 56.7993 20.5559C56.1552 21.2331 55.5008 21.929 55.6105 23.4367C55.7327 24.9673 56.5881 25.8351 57.489 26.7112C58.566 27.813 59.6865 28.9169 59.877 31.1102C60.0199 33.3387 58.9554 34.4074 57.9219 35.4988C57.0768 36.3874 56.2215 37.2986 56.1345 38.9866C56.0682 40.6642 56.8014 41.4843 57.5677 42.2838C58.479 43.2738 59.3344 44.1726 59.034 46.221C58.7358 48.1782 57.7023 49.2365 56.6792 50.2721C55.8798 51.1047 55.0803 51.9041 54.8919 53.2648C54.6909 54.5924 55.2356 55.133 55.7369 55.6507C56.325 56.2472 56.8573 56.7857 56.3354 58.2831C55.77 59.7453 54.7924 60.7353 53.8149 61.7273C52.9947 62.5372 52.1725 63.3594 51.6609 64.4281C51.3399 64.5751 51.0396 64.7325 50.7393 64.8796C51.3834 63.3821 52.4045 62.359 53.4151 61.3463C54.2146 60.5468 55.014 59.7474 55.391 58.6331C55.7576 57.4982 55.3144 57.0591 54.8463 56.5869C54.2021 55.9345 53.5146 55.2365 53.7589 53.4243C53.9805 51.5686 54.9685 50.5434 55.9564 49.5306C56.789 48.6877 57.6112 47.8323 57.81 46.3577C57.9654 44.8499 57.2778 44.0961 56.5673 43.3297C55.623 42.3169 54.6578 41.2814 54.7676 39.0197C54.8338 36.6897 55.8901 35.5879 56.934 34.4861C57.7666 33.5872 58.6219 32.7091 58.5101 31.0667C58.4314 29.4119 57.4766 28.5234 56.6212 27.6453C55.5442 26.5434 54.488 25.452 54.3451 23.3601C54.2229 21.3118 55.0431 20.4337 55.8777 19.6011C56.4763 18.9715 57.0665 18.3625 56.8221 17.0474C56.5881 15.753 55.7886 14.9535 55.0347 14.1665C54.0572 13.1662 53.0693 12.1865 52.6695 10.5317C52.2367 8.91213 52.7276 8.40467 53.1708 7.97805C53.4814 7.66321 53.7589 7.39401 53.2142 6.41435C53.469 6.57176 53.7589 6.72916 54.0365 6.90934L54.0323 6.90727ZM56.3768 8.53927C57.2198 9.70945 57.0209 9.92489 56.7537 10.1837C56.4866 10.4426 56.1863 10.7471 56.6088 11.8033C57.0189 12.8949 57.7976 13.7046 58.5846 14.4917C59.5519 15.5044 60.5273 16.5172 61.0617 18.1368C61.5732 19.8351 60.9623 20.4544 60.3078 21.142C59.7403 21.7384 59.1521 22.3681 59.3965 23.8095C59.5974 25.3049 60.5294 26.1831 61.4303 27.0715C62.5404 28.1858 63.7624 29.2897 64.0171 31.3587C64.2284 33.4506 63.2177 34.4426 62.1635 35.4657C61.2977 36.3314 60.43 37.2221 60.2871 38.852C60.198 40.4612 60.8649 41.2379 61.5525 41.969C62.4182 42.8596 63.197 43.6901 62.7289 45.6266C62.2857 47.5278 61.1839 48.5986 60.1421 49.657C59.2971 50.5019 58.4873 51.3552 58.1994 52.6497C57.9219 53.8986 58.3775 54.3604 58.7876 54.7767C59.266 55.282 59.6761 55.7004 59.0217 57.117C58.3444 58.4571 57.3772 59.4243 56.4348 60.3915C55.6354 61.1785 54.8567 61.9883 54.2788 62.9348C53.9805 63.1026 53.7258 63.2724 53.4462 63.4402C54.1898 62.1001 55.1798 61.1122 56.1552 60.1223C56.9215 59.3352 57.6878 58.5358 58.1662 57.523C58.6219 56.4647 58.2657 56.1167 57.8887 55.7108C57.3565 55.1826 56.7889 54.5861 57.1328 52.8858C57.4766 51.086 58.4769 50.0629 59.5104 48.9942C60.3554 48.1388 61.2419 47.2731 61.5422 45.8544C61.8093 44.3922 61.1984 43.7274 60.5314 43.0087C59.6534 42.0871 58.7545 41.1199 58.9202 38.9141C59.0631 36.6525 60.109 35.5714 61.1631 34.5027C62.0061 33.6576 62.8283 32.8375 62.6627 31.2614C62.5176 29.6977 61.5525 28.8092 60.6184 27.9186C59.5311 26.8168 58.4086 25.7129 58.1642 23.6646C57.897 21.6618 58.653 20.8851 59.353 20.1644C59.875 19.6135 60.3637 19.0854 60.053 17.8137C59.6865 16.6 58.887 15.7882 58.1207 14.9784C57.1535 13.9759 56.178 12.986 55.6768 11.4554C55.1446 9.9601 55.5339 9.58934 55.8549 9.27247C56.0765 9.04673 56.2546 8.86657 55.6333 8.0008C55.8777 8.16858 56.1221 8.3612 56.3789 8.53927H56.3768Z" fill="#F0153D"/>
<path d="M85.8863 23.8701L86.44 26.6507L87.1169 23.9931L91.0044 10.791H92.3707L96.2092 23.9931L96.8735 26.6753L97.4642 23.8701L100.7 10.791H102.25L97.6609 28.7054H96.2092L92.1488 14.6914L91.6938 12.9196L91.2508 14.6914L87.0924 28.7054H85.64L81.063 10.791H82.6134L85.8863 23.8701ZM112.807 28.7054C112.659 28.2871 112.565 27.6678 112.524 26.8475C112.007 27.5201 111.347 28.041 110.543 28.4101C109.748 28.7711 108.903 28.9516 108.008 28.9516C106.729 28.9516 105.691 28.5947 104.896 27.8811C104.108 27.1674 103.715 26.2652 103.715 25.1743C103.715 23.8783 104.252 22.8529 105.326 22.0982C106.409 21.3436 107.914 20.9663 109.842 20.9663H112.512V19.4529C112.512 18.5015 112.216 17.7551 111.626 17.2137C111.043 16.6642 110.191 16.3894 109.067 16.3894C108.041 16.3894 107.192 16.6518 106.519 17.1768C105.847 17.7018 105.511 18.3333 105.511 19.0715L104.035 19.0593C104.035 18.0011 104.527 17.0865 105.511 16.3154C106.495 15.5362 107.705 15.1467 109.141 15.1467C110.625 15.1467 111.794 15.5198 112.647 16.2662C113.509 17.0045 113.952 18.038 113.976 19.3668V25.6664C113.976 26.9541 114.111 27.918 114.382 28.5579V28.7054H112.807ZM108.18 27.6473C109.165 27.6473 110.043 27.4094 110.814 26.9337C111.593 26.4579 112.159 25.8222 112.512 25.0265V22.0982H109.879C108.411 22.1147 107.262 22.3853 106.433 22.9103C105.605 23.4271 105.191 24.1408 105.191 25.0513C105.191 25.7977 105.466 26.417 106.016 26.9091C106.573 27.4013 107.295 27.6473 108.18 27.6473ZM124.065 16.6476C123.753 16.5902 123.421 16.5615 123.068 16.5615C122.149 16.5615 121.37 16.8199 120.731 17.3367C120.099 17.8453 119.648 18.5876 119.378 19.5638V28.7054H117.913V15.3927H119.352L119.378 17.509C120.157 15.9341 121.407 15.1467 123.13 15.1467C123.54 15.1467 123.864 15.2 124.102 15.3066L124.065 16.6476ZM137.107 22.1844C137.107 24.2596 136.647 25.9083 135.729 27.1305C134.81 28.3445 133.58 28.9516 132.038 28.9516C130.217 28.9516 128.823 28.3118 127.855 27.0322V33.8238H126.39V15.3927H127.756L127.83 17.2752C128.79 15.8562 130.18 15.1467 132.001 15.1467C133.592 15.1467 134.839 15.7495 135.741 16.9553C136.652 18.161 137.107 19.8344 137.107 21.9752V22.1844ZM135.63 21.9261C135.63 20.2282 135.282 18.8871 134.585 17.9027C133.888 16.9185 132.915 16.4262 131.669 16.4262C130.766 16.4262 129.992 16.6437 129.343 17.0784C128.695 17.5131 128.199 18.1446 127.855 18.9731V25.3588C128.207 26.1216 128.711 26.704 129.368 27.106C130.024 27.5079 130.799 27.7088 131.693 27.7088C132.932 27.7088 133.896 27.2167 134.585 26.2324C135.282 25.2399 135.63 23.8044 135.63 21.9261ZM95.2615 52.5175C95.0564 54.404 94.3802 55.8476 93.2316 56.8483C92.0914 57.849 90.5697 58.3495 88.6673 58.3495C87.338 58.3495 86.1607 58.0173 85.136 57.3528C84.119 56.6884 83.3308 55.7492 82.7737 54.5352C82.2158 53.313 81.9323 51.9186 81.9246 50.3519V48.0265C81.9246 46.4352 82.2032 45.0244 82.7611 43.794C83.3189 42.5636 84.119 41.6163 85.1605 40.9519C86.2104 40.2793 87.4157 39.9429 88.7778 39.9429C90.6971 39.9429 92.2104 40.4638 93.3177 41.5056C94.4334 42.5391 95.0816 43.9704 95.2615 45.7995H93.7363C93.359 42.7564 91.7057 41.2348 88.7778 41.2348C87.1533 41.2348 85.8577 41.8418 84.8896 43.0558C83.93 44.2697 83.4498 45.9472 83.4498 48.088V50.2781C83.4498 52.3451 83.9174 53.9939 84.8525 55.2243C85.7961 56.4547 87.0672 57.0699 88.6673 57.0699C90.2498 57.0699 91.4433 56.6925 92.2475 55.9378C93.051 55.175 93.5473 54.035 93.7363 52.5175H95.2615ZM107 58.1033C106.852 57.685 106.757 57.0657 106.717 56.2455C106.2 56.918 105.54 57.439 104.736 57.8081C103.94 58.1691 103.095 58.3495 102.201 58.3495C100.921 58.3495 99.884 57.9927 99.0881 57.2791C98.3007 56.5654 97.9073 55.6632 97.9073 54.5722C97.9073 53.2762 98.4442 52.2509 99.5186 51.4962C100.601 50.7416 102.107 50.3643 104.035 50.3643H106.704V48.8508C106.704 47.8994 106.409 47.153 105.818 46.6116C105.236 46.0621 104.383 45.7872 103.259 45.7872C102.234 45.7872 101.385 46.0497 100.713 46.5747C100.04 47.0996 99.7034 47.7312 99.7034 48.4694L98.2272 48.4573C98.2272 47.3991 98.7192 46.4844 99.7034 45.7134C100.688 44.9341 101.898 44.5445 103.333 44.5445C104.818 44.5445 105.987 44.9177 106.839 45.6642C107.701 46.4024 108.144 47.436 108.169 48.7648V55.0644C108.169 56.3521 108.304 57.316 108.575 57.9558V58.1033H107ZM102.374 57.0452C103.358 57.0452 104.236 56.8074 105.006 56.3317C105.786 55.8559 106.352 55.2202 106.704 54.4245V51.4962H104.071C102.603 51.5127 101.455 51.7833 100.626 52.3083C99.7979 52.8251 99.3835 53.5386 99.3835 54.4491C99.3835 55.1955 99.6586 55.8149 100.208 56.3071C100.766 56.7992 101.488 57.0452 102.374 57.0452ZM122.81 51.5824C122.81 53.6576 122.351 55.3063 121.432 56.5285C120.514 57.7424 119.283 58.3495 117.741 58.3495C115.92 58.3495 114.526 57.7097 113.557 56.4301V63.2217H112.093V44.7906H113.459L113.533 46.6731C114.493 45.2541 115.883 44.5445 117.704 44.5445C119.295 44.5445 120.542 45.1474 121.445 46.3532C122.354 47.5589 122.81 49.2324 122.81 51.3732V51.5824ZM121.333 51.324C121.333 49.626 120.985 48.2849 120.288 47.3006C119.59 46.3163 118.619 45.8242 117.372 45.8242C116.469 45.8242 115.694 46.0416 115.046 46.4763C114.398 46.9111 113.902 47.5426 113.557 48.3711V54.7568C113.91 55.5196 114.415 56.1019 115.071 56.5038C115.727 56.9058 116.502 57.1068 117.396 57.1068C118.635 57.1068 119.599 56.6145 120.288 55.6303C120.985 54.6377 121.333 53.2023 121.333 51.324ZM127.731 58.1033H126.255V44.7906H127.731V58.1033ZM125.997 40.9395C125.997 40.6606 126.087 40.4269 126.267 40.2383C126.448 40.0414 126.694 39.9429 127.006 39.9429C127.317 39.9429 127.564 40.0414 127.744 40.2383C127.932 40.4269 128.027 40.6606 128.027 40.9395C128.027 41.2184 127.932 41.4521 127.744 41.6409C127.564 41.8295 127.317 41.9238 127.006 41.9238C126.694 41.9238 126.448 41.8295 126.267 41.6409C126.087 41.4521 125.997 41.2184 125.997 40.9395ZM134.031 41.3825V44.7906H136.787V45.9964H134.031V54.8675C134.031 55.6056 134.163 56.1553 134.425 56.5162C134.695 56.8771 135.143 57.0576 135.766 57.0576C136.012 57.0576 136.41 57.0166 136.96 56.9346L137.021 58.1402C136.636 58.2797 136.111 58.3495 135.446 58.3495C134.437 58.3495 133.703 58.0582 133.244 57.4758C132.784 56.8853 132.555 56.0199 132.555 54.8798V45.9964H130.106V44.7906H132.555V41.3825H134.031ZM148.242 58.1033C148.094 57.685 148 57.0657 147.959 56.2455C147.442 56.918 146.782 57.439 145.978 57.8081C145.183 58.1691 144.338 58.3495 143.443 58.3495C142.164 58.3495 141.126 57.9927 140.331 57.2791C139.543 56.5654 139.15 55.6632 139.15 54.5722C139.15 53.2762 139.687 52.2509 140.761 51.4962C141.844 50.7416 143.349 50.3643 145.276 50.3643H147.947V48.8508C147.947 47.8994 147.651 47.153 147.061 46.6116C146.478 46.0621 145.626 45.7872 144.502 45.7872C143.476 45.7872 142.627 46.0497 141.954 46.5747C141.282 47.0996 140.946 47.7312 140.946 48.4694L139.47 48.4573C139.47 47.3991 139.962 46.4844 140.946 45.7134C141.93 44.9341 143.14 44.5445 144.576 44.5445C146.06 44.5445 147.229 44.9177 148.082 45.6642C148.944 46.4024 149.387 47.436 149.411 48.7648V55.0644C149.411 56.3521 149.546 57.316 149.817 57.9558V58.1033H148.242ZM143.615 57.0452C144.6 57.0452 145.478 56.8074 146.249 56.3317C147.028 55.8559 147.594 55.2202 147.947 54.4245V51.4962H145.314C143.846 51.5127 142.697 51.7833 141.868 52.3083C141.04 52.8251 140.626 53.5386 140.626 54.4491C140.626 55.1955 140.901 55.8149 141.451 56.3071C142.008 56.7992 142.73 57.0452 143.615 57.0452ZM154.997 58.1033H153.52V39.2047H154.997V58.1033Z" fill="white"/>
</svg>
