<svg width="222" height="101" viewBox="0 0 222 101" fill="none" xmlns="http://www.w3.org/2000/svg">
<path d="M83.4319 15.8275C84.8285 17.307 84.7043 17.4194 84.4794 17.6265C84.2575 17.8692 83.9705 18.1739 84.6865 19.5883C85.3996 21.053 86.527 22.2099 87.6395 23.3846C89.0983 24.8641 90.5748 26.3909 91.5749 28.5627C92.5277 30.8618 91.7968 31.6016 91.0364 32.436C90.3706 33.1609 89.6723 33.9302 90.131 35.892C90.6044 37.9337 92.004 39.2031 93.3532 40.4576C95.0664 42.0318 96.9069 43.5616 97.3981 46.2453C97.8419 48.9616 96.3684 50.2487 94.8593 51.6158C93.6225 52.7727 92.3531 53.9622 92.0661 56.1311C91.859 58.3177 92.7644 59.3149 93.6343 60.2322C94.7143 61.3418 95.747 62.3212 94.8564 64.9576C93.9361 67.4815 92.2703 69.106 90.6695 70.6654C89.4297 71.917 88.2254 73.1568 87.6395 74.941C87.101 76.6276 87.607 77.1602 88.0656 77.6573C88.5568 78.1722 88.9711 78.6071 87.8437 80.4713C86.669 82.2555 85.3197 83.6876 83.9557 85.102C82.8461 86.2086 81.7483 87.336 80.831 88.5432C80.4819 88.8302 80.1327 89.0729 79.8132 89.3451C80.9731 87.623 82.3667 86.2412 83.716 84.8416C84.8108 83.7172 85.9234 82.5751 86.6986 81.2258C87.5241 79.8114 87.1424 79.4268 86.7637 79.0243C86.1453 78.4148 85.4943 77.7224 86.1778 75.376C86.8909 72.9615 88.4 71.4051 89.9061 69.8605C91.208 68.6059 92.5395 67.3188 93.1254 65.4073C93.729 63.4278 92.936 62.5934 92.0631 61.7087C90.9032 60.5192 89.7611 59.2824 90.128 56.2731C90.415 53.2343 91.9359 51.7578 93.4272 50.3257C94.5989 49.2309 95.8062 48.1568 95.4245 46.0826C95.1552 44.0232 93.7438 42.7863 92.2821 41.5317C90.6488 39.9576 88.9977 38.3627 88.4118 35.5665C87.8082 32.8502 88.7284 31.8531 89.5865 30.9684C90.2197 30.2937 90.8085 29.6812 90.125 27.9798C89.4741 26.308 88.2994 25.1038 87.1572 23.9143C85.7606 22.4348 84.3492 21.0352 83.4911 18.9788C82.5383 17.0318 82.92 16.6294 83.2366 16.3572C83.3964 16.1648 83.5059 16.0346 82.5087 14.928C82.8254 15.218 83.1124 15.5375 83.429 15.8275H83.4319ZM17.6815 12.694C16.4921 14.3806 15.1102 15.7654 13.7639 17.1797C12.6543 18.2893 11.5743 19.464 10.7665 20.8133C9.97349 22.2277 10.3404 22.5798 10.734 23.0148C11.3198 23.5947 12.0034 24.3019 11.2725 26.6335C10.6067 29.0598 9.08289 30.6044 7.59158 32.1638C6.28965 33.4183 4.94334 34.7055 4.37226 36.617C3.73609 38.5935 4.51429 39.4131 5.41676 40.3127C6.57666 41.5021 7.70106 42.7419 7.36966 45.7453C7.05305 48.7841 5.51441 50.2487 4.00535 51.6957C2.83066 52.7905 1.64117 53.832 2.00512 55.924C2.27438 57.9834 3.73313 59.235 5.1623 60.5044C6.79563 62.049 8.44671 63.6231 9.05029 66.437C9.65399 69.1711 8.71597 70.1653 7.86084 71.0352C7.22763 71.7099 6.62401 72.3046 7.30456 74.0415C7.97032 75.6985 9.14499 76.9176 10.302 78.0923C11.6986 79.5688 13.0952 80.9861 13.9829 83.0278C14.9061 84.9895 14.5066 85.389 14.2373 85.6464C14.048 85.8565 13.9355 85.9512 14.9209 87.0756C14.619 86.7886 14.3172 86.4808 14.0154 86.1909C12.6366 84.6966 12.7312 84.5694 12.9532 84.3563C13.2076 84.1315 13.4769 83.8415 12.7608 82.4271C12.0477 80.9506 10.9204 79.8055 9.77819 78.616C8.33427 77.1395 6.92286 75.6275 5.90499 73.4379C4.93742 71.1565 5.63572 70.3991 6.41392 69.5794C7.09744 68.8575 7.79574 68.0852 7.33415 66.1086C6.82522 64.0817 5.46115 62.8124 4.09708 61.54C2.38386 59.9659 0.590749 58.4539 0.0670191 55.7376C-0.329481 53.0213 1.09968 51.7341 2.60578 50.3849C3.86037 49.2249 5.0972 48.0532 5.41381 45.8666C5.62093 43.6799 4.7155 42.6828 3.86037 41.7832C2.76556 40.6736 1.76544 39.6765 2.65312 37.0578C3.57335 34.5191 5.22443 32.9124 6.81042 31.3501C8.01471 30.0807 9.25449 28.8438 9.82559 27.0744C10.3819 25.3878 9.88769 24.8582 9.41129 24.3759C8.93489 23.861 8.52364 23.3935 9.63319 21.5471C10.8079 19.7629 12.172 18.3308 13.5035 16.9341C14.6161 15.792 15.7109 14.6676 16.6607 13.4929C16.9951 13.2207 17.3117 12.9307 17.6756 12.691L17.6815 12.694ZM21.108 10.4097C20.0605 12.3212 18.6491 13.7355 17.2673 15.1677C16.1547 16.2625 15.0599 17.3869 14.3646 18.8486C13.7314 20.3458 14.2373 20.8754 14.7759 21.4376C15.5215 22.1922 16.3619 23.0443 15.8411 25.4707C15.3647 28.042 13.9355 29.5066 12.462 31.0482C11.2873 32.2555 10.0179 33.4923 9.57409 35.5162C9.17759 37.6052 10.0505 38.555 10.9855 39.5818C12.2697 40.9015 13.539 42.2685 13.2698 45.4168C13.0952 48.648 11.5713 50.1925 10.0475 51.7341C8.85509 52.9236 7.68035 54.0983 7.93777 56.3471C8.11235 58.5811 9.50899 59.8505 10.8553 61.1376C12.3791 62.697 13.9651 64.2741 14.3646 67.2005C14.7285 70.0469 13.6663 71.1536 12.6662 72.201C11.9057 73.0029 11.2074 73.7426 11.666 75.5446C12.175 77.3141 13.2994 78.4533 14.4267 79.6132C15.8085 81.0423 17.1874 82.4597 17.9005 84.6611C18.6787 86.7679 18.1076 87.3123 17.6608 87.765C17.3265 88.0875 17.075 88.345 17.9478 89.6144C17.5987 89.3421 17.2495 89.0847 16.9181 88.8125C15.6783 87.1732 15.9476 86.8685 16.3471 86.4808C16.7436 86.111 17.1726 85.679 16.569 84.1492C15.9654 82.5899 14.8883 81.4329 13.7758 80.2908C12.3643 78.8764 10.9825 77.4117 10.2043 75.1126C9.49119 72.6863 10.3316 71.7868 11.2814 70.8222C12.0921 69.9552 12.9325 69.0527 12.5981 66.9785C12.3288 64.857 10.9796 63.5876 9.67759 62.3153C8.07684 60.7559 6.36362 59.1818 5.99671 56.2228C5.68011 53.2313 7.13886 51.817 8.64792 50.3227C9.88479 49.1007 11.1216 47.8461 11.3287 45.4997C11.4737 43.2183 10.5032 42.1087 9.53559 41.0465C8.2958 39.7771 7.20396 38.6054 7.86972 35.8535C8.52068 33.1373 10.0771 31.5956 11.5506 30.0659C12.7549 28.8764 13.9 27.6544 14.2965 25.8228C14.7404 24.0385 14.0894 23.3787 13.4562 22.7366C12.82 22.062 12.2341 21.4495 13.1544 19.4404C14.1219 17.5259 15.486 16.1264 16.8501 14.7445C17.9774 13.6201 19.1048 12.478 19.9422 11.1435C20.3061 10.8684 20.7204 10.6435 21.1021 10.4038L21.108 10.4097ZM24.996 8.33551C24.061 10.4718 22.5845 11.9365 21.1405 13.3657C20.0132 14.5226 18.9036 15.6825 18.3473 17.2567C17.8236 18.8811 18.442 19.5055 19.1255 20.1978C20.0457 21.1151 21.0281 22.1123 20.6641 24.6836C20.3771 27.3525 18.9509 28.7995 17.5543 30.276C16.3648 31.4655 15.1753 32.6905 14.9061 34.7943C14.6664 36.9484 15.6488 38.0106 16.6666 39.135C18.0011 40.5642 19.38 42.0288 19.2379 45.2748C19.1433 48.571 17.6194 50.1629 16.1103 51.7548C14.9209 53.0272 13.7136 54.2611 13.8734 56.6252C13.9829 58.9717 15.3174 60.2588 16.5571 61.5282C18.0958 63.1023 19.6019 64.6469 19.8238 67.6384C19.9806 70.5796 18.8059 71.8312 17.649 73.0059C16.7436 73.9231 15.9358 74.7576 16.2701 76.6542C16.6045 78.4888 17.7289 79.6428 18.8414 80.7849C20.2351 82.1993 21.6347 83.6136 22.2028 85.9778C22.8242 88.2917 22.1229 88.9989 21.5045 89.6084C21.0429 90.0759 20.6641 90.4281 21.4246 91.8424C21.0429 91.6176 20.6316 91.3927 20.2499 91.15C19.1551 89.2859 19.5989 88.8362 20.17 88.2888C20.6789 87.7887 21.2323 87.2442 20.7263 85.5872C20.2824 83.8651 19.158 82.7408 18.0307 81.5986C16.6489 80.1842 15.2848 78.7521 14.7285 76.3406C14.2373 73.8166 15.2523 72.7396 16.3145 71.6329C17.2199 70.6831 18.1698 69.6712 17.9952 67.5319C17.8206 65.3304 16.6134 64.0906 15.3114 62.839C13.7876 61.2648 12.2016 59.7025 11.9146 56.569C11.7252 53.3852 13.1869 51.8436 14.693 50.302C15.9299 49.0149 17.1519 47.7277 17.2643 45.3014C17.3738 42.9224 16.3293 41.7477 15.2315 40.5908C13.9296 39.1912 12.7253 37.8923 13.1396 34.9807C13.5834 32.1815 15.0747 30.6725 16.5187 29.193C17.646 28.0035 18.7882 26.8466 19.0426 24.8996C19.3445 23.0207 18.5692 22.2306 17.8354 21.5087C17.0099 20.6565 16.2494 19.902 16.9951 17.7449C17.7881 15.6529 19.2024 14.2563 20.5813 12.8094C21.7708 11.6673 22.9307 10.4778 23.6763 8.98351C24.1202 8.74384 24.5492 8.54855 24.9931 8.32367L24.996 8.33551ZM29.3101 6.37373C28.5023 8.77046 26.9785 10.3121 25.4872 11.8714C24.2977 13.0432 23.1378 14.2179 22.6792 15.9547C22.2531 17.7064 23.0283 18.461 23.8036 19.2835C24.8836 20.2955 26.0109 21.4199 25.789 24.1687C25.5967 26.9501 24.203 28.3793 22.7887 29.844C21.6791 31.0187 20.4866 32.2081 20.3623 34.377C20.2203 36.5962 21.3003 37.768 22.4099 38.9279C23.8213 40.4221 25.2653 41.9815 25.2179 45.2452C25.1854 48.5562 23.6793 50.1481 22.1702 51.7726C20.966 53.0745 19.7439 54.3439 19.8238 56.7732C19.8859 59.1847 21.1405 60.4363 22.3774 61.7087C23.8687 63.2384 25.3126 64.7297 25.3777 67.8159C25.4399 70.8044 24.1231 72.1744 22.839 73.4911C21.8536 74.4883 20.9009 75.4529 21.108 77.4295C21.3447 79.3587 22.472 80.5008 23.5816 81.64C25.0256 83.0692 26.4518 84.5161 26.8838 87.0726C27.4223 89.6292 26.5495 90.4665 25.789 91.2388C25.1854 91.8336 24.6765 92.3307 25.3452 93.9048C24.9013 93.7125 24.4575 93.4876 24.0284 93.2775C23.0609 91.1737 23.6941 90.5612 24.4101 89.8688C25.0434 89.2238 25.7121 88.5669 25.3304 86.7501C24.9487 84.9156 23.8065 83.729 22.6496 82.6046C21.2678 81.1903 19.8741 79.7759 19.4747 77.2194C19.1728 74.5652 20.3327 73.3787 21.5222 72.1241C22.5697 71.0796 23.6172 70.0026 23.5373 67.8011C23.4574 65.5523 22.2827 64.3125 21.0606 63.0905C19.5693 61.5311 18.0455 59.9866 17.8709 56.7554C17.7614 53.4621 19.2675 51.885 20.7588 50.2783C21.9809 48.9764 23.2029 47.6893 23.2502 45.2481C23.2976 42.8366 22.1406 41.582 21.0281 40.3778C19.6463 38.8983 18.3325 37.4839 18.5692 34.4776C18.8059 31.5838 20.2676 30.1191 21.6465 28.6574C22.7887 27.5005 23.916 26.3583 24.0758 24.3167C24.2504 22.3372 23.3627 21.4406 22.5046 20.5707C21.537 19.6061 20.6198 18.6888 21.2056 16.3424C21.9039 14.0906 23.3301 12.6437 24.7741 11.1642C25.9991 9.957 27.1886 8.70537 27.8366 7.00103C28.3278 6.77615 28.8219 6.56606 29.3131 6.37373H29.3101ZM34.0237 4.52441C33.3432 7.19336 31.7868 8.8326 30.2333 10.4866C29.0261 11.7235 27.804 12.9633 27.4253 14.8599C27.0909 16.7566 27.9816 17.6236 28.8841 18.5261C30.1061 19.686 31.3755 20.905 31.2334 23.7989C31.1536 26.7253 29.7096 28.187 28.2982 29.6516C27.156 30.8234 25.9991 31.9833 25.934 34.2173C25.9192 36.4838 27.0436 37.6733 28.2183 38.9101C29.7096 40.4547 31.2009 42.014 31.2157 45.2748C31.2305 48.571 29.7244 50.1481 28.2183 51.7548C27.011 53.042 25.789 54.3587 25.8216 56.8028C25.8393 59.2143 27.0436 60.4511 28.2508 61.6732C29.7096 63.2 31.1536 64.6942 31.124 67.7982C31.1062 70.8666 29.7126 72.3135 28.2834 73.6983C27.2034 74.7901 26.1559 75.8346 26.2832 77.9266C26.4252 79.9505 27.5673 81.1104 28.7272 82.2673C30.2037 83.7793 31.6802 85.2884 32.0264 88.0875C32.4377 90.8541 31.4228 91.8336 30.4878 92.7183C29.7895 93.4107 29.106 94.0675 29.7244 95.8695C29.2007 95.6594 28.7243 95.4671 28.2656 95.26C27.3927 92.9136 28.1857 92.1413 29.0734 91.2566C29.8339 90.5168 30.6269 89.712 30.3103 87.7354C29.9936 85.7737 28.8337 84.5516 27.6295 83.3473C26.2003 81.93 24.7889 80.4683 24.5492 77.7845C24.3598 75.018 25.644 73.716 26.9755 72.3342C28.0851 71.2394 29.2125 70.0677 29.2125 67.8307C29.245 65.5494 28.023 64.3599 26.8483 63.123C25.4043 61.5962 23.913 60.0842 23.8332 56.8057C23.8006 53.4917 25.3245 51.885 26.7862 50.2635C28.023 48.9942 29.245 47.6922 29.245 45.2481C29.2302 42.8514 28.0378 41.5998 26.8661 40.3274C25.4073 38.7681 23.9959 37.3064 24.0906 34.2528C24.203 31.279 25.6292 29.7996 27.0406 28.3852C28.1532 27.2105 29.3279 26.0536 29.4078 23.932C29.535 21.8253 28.5201 20.8606 27.5525 19.896C26.4252 18.7539 25.3629 17.7271 25.8216 15.2032C26.3778 12.7265 27.8839 11.1849 29.3752 9.65814C30.6298 8.35622 31.8814 7.00695 32.4555 5.11027C32.9615 4.91794 33.4852 4.72265 34.0237 4.53032V4.52441ZM39.0213 2.80231C38.5302 5.72869 36.959 7.43303 35.4026 9.18472C34.148 10.5192 32.9112 11.8211 32.5946 13.8628C32.3401 15.9192 33.3402 16.8838 34.3699 17.8958C35.7192 19.1681 37.1158 20.4849 37.0537 23.5385C37.0211 26.5921 35.5121 28.0716 34.0563 29.5984C32.8816 30.7583 31.7246 31.9448 31.7246 34.2291C31.7572 36.5282 32.9467 37.7502 34.1539 39.0048C35.6925 40.5642 37.2312 42.1235 37.2637 45.3547C37.3111 48.6184 35.7872 50.1629 34.2959 51.7548C33.0739 53.042 31.8519 54.3114 31.8519 56.7525C31.8045 59.1492 33.0118 60.3712 34.216 61.5933C35.6452 63.1053 37.1513 64.5996 37.0892 67.7479C37.0241 70.8814 35.518 72.3786 34.0089 73.8107C32.852 74.9529 31.7246 76.1098 31.7572 78.2787C31.8519 80.4002 33.0266 81.6045 34.2486 82.8443C35.7399 84.3889 37.2963 86.0104 37.5478 88.9841C37.8644 91.943 36.6424 93.1 35.5624 94.1297C34.7398 94.9345 33.9616 95.7216 34.4676 97.7129C33.9113 97.4881 33.3727 97.3105 32.8816 97.1182C32.1182 94.4966 33.0887 93.5823 34.1184 92.5674C34.9913 91.7004 35.9293 90.8482 35.7044 88.6793C35.4647 86.5075 34.2456 85.2558 33.0236 84.0161C31.5145 82.4892 30.0706 81.0098 29.9138 78.1307C29.8339 75.2369 31.2127 73.8699 32.6744 72.4555C33.8491 71.2512 35.0712 70.0765 35.1037 67.7952C35.1333 65.4636 33.9616 64.2563 32.7869 63.052C31.3281 61.5252 29.8339 60.0132 29.8516 56.7495C29.8516 53.4562 31.3755 51.8643 32.852 50.2724C34.0888 49.0001 35.2961 47.7484 35.2961 45.3517C35.2487 42.9402 34.0267 41.6708 32.8194 40.4192C31.2956 38.8273 29.822 37.3005 29.8043 34.1965C29.822 31.1577 31.263 29.6783 32.6922 28.2491C33.8669 27.0596 35.0416 25.8524 35.1067 23.6332C35.1688 21.414 34.0415 20.3547 32.9792 19.325C31.695 18.0704 30.4907 16.9134 30.8695 14.2119C31.3311 11.4779 32.8668 9.83864 34.4084 8.26449C35.6778 6.85012 36.9323 5.418 37.3614 3.3142C37.8999 3.13667 38.4562 2.95913 39.0273 2.79935L39.0213 2.80231ZM44.161 1.51517C43.9065 4.66643 42.433 6.30568 40.8766 8.01003C39.6398 9.43919 38.3852 10.7914 38.1485 12.9929C37.9739 15.1765 39.1012 16.2861 40.2108 17.3484C41.6873 18.7006 43.1786 20.1475 43.1609 23.3136C43.1313 26.4649 41.6075 28.0242 40.0511 29.5185C38.8616 30.7731 37.6543 31.9773 37.6869 34.2942C37.7342 36.6081 38.974 37.8627 40.2108 39.1172C41.7643 40.6766 43.3059 42.236 43.3207 45.4346C43.3532 48.6361 41.8442 50.1777 40.3529 51.7371C39.1308 52.9917 37.9088 54.2611 37.8792 56.6578C37.8289 59.0368 39.0539 60.2588 40.2582 61.4956C41.7347 62.9899 43.2585 64.5019 43.1934 67.7183C43.1786 70.8843 41.5927 72.3963 40.0363 73.9054C38.7994 75.0801 37.5774 76.237 37.5774 78.5213C37.6247 80.7879 38.8616 82.0424 40.1309 83.3118C41.6696 84.9185 43.2585 86.5104 43.3828 89.6291C43.5574 92.7656 42.2081 94.1622 40.9861 95.3872C39.986 96.3193 39.0983 97.1863 39.477 99.3907C38.9207 99.2309 38.3497 99.0859 37.8111 98.8906C37.2253 96.0293 38.3349 94.9049 39.5244 93.7302C40.5245 92.7804 41.5867 91.801 41.427 89.5197C41.3175 87.2206 40.0303 85.8536 38.7935 84.5694C37.2075 83.0426 35.7133 81.4507 35.6186 78.4444C35.6038 75.4233 37.0951 73.9587 38.616 72.4792C39.8706 71.2719 41.1399 70.0677 41.1695 67.7212C41.2169 65.3896 39.9948 64.1528 38.7906 62.9307C37.3318 61.4187 35.8227 59.9096 35.8849 56.6933C35.9174 53.4296 37.4087 51.8554 38.9148 50.2783C40.1369 49.0415 41.3589 47.7869 41.3264 45.4227C41.2938 43.0437 40.0718 41.7744 38.8349 40.5375C37.2637 38.9456 35.7547 37.404 35.7073 34.2528C35.66 31.1488 37.1365 29.6546 38.6426 28.1603C39.8498 26.9383 41.0867 25.7015 41.0867 23.3846C41.134 21.0707 39.9297 19.9434 38.7698 18.8338C37.3584 17.4668 36.0092 16.1974 36.2784 13.2562C36.6424 10.315 38.1662 8.64324 39.7374 6.97144C40.992 5.49198 42.1815 4.07761 42.4655 1.81106C43.0218 1.74597 43.5456 1.65128 44.1462 1.52109L44.161 1.51517ZM49.351 1.01807C49.3835 4.20188 47.9869 5.75828 46.5577 7.33539C45.3535 8.61957 44.1166 10.0339 44.019 12.3508C43.9243 14.6646 45.1463 15.7742 46.3536 16.9815C47.907 18.5083 49.4782 20.0203 49.4782 23.2189C49.4605 26.4175 47.8745 27.9769 46.321 29.5037C45.0516 30.7583 43.8 31.9803 43.8148 34.3267C43.8474 36.6732 45.1138 37.9278 46.3684 39.1823C47.8922 40.7091 49.4309 42.236 49.4131 45.4346C49.4131 48.6361 47.907 50.1777 46.4157 51.7193C45.1759 52.9739 43.9716 54.2285 43.9568 56.5897C43.9273 58.9539 45.1463 60.176 46.3861 61.4128C47.91 62.9396 49.4486 64.4664 49.4309 67.665C49.4457 70.8488 47.8774 72.4082 46.2885 73.935C45.0191 75.1718 43.7349 76.3761 43.7349 78.7255C43.7675 81.0394 45.0043 82.3413 46.2885 83.5959C47.8597 85.17 49.3983 86.6643 49.3658 89.8659C49.351 93.0645 47.9218 94.609 46.5429 96.0855C45.4807 97.2928 44.448 98.3195 44.6552 100.669C44.0663 100.491 43.4953 100.394 42.939 100.314C42.6224 97.2129 43.8592 95.8607 45.1937 94.6386C46.321 93.4314 47.4454 92.2123 47.3981 89.8659C47.3981 87.5194 46.1612 86.2501 44.8593 85.0103C43.2733 83.3858 41.7317 81.8087 41.6696 78.6752C41.7021 75.5239 43.2408 74.0297 44.8416 72.5176C46.1139 71.2631 47.3803 70.0262 47.3951 67.6798C47.3951 65.3186 46.1731 64.0788 44.9363 62.8567C43.4124 61.3151 41.9063 59.8031 41.9536 56.6045C41.9832 53.3882 43.4775 51.8466 44.9688 50.2842C46.2056 49.0622 47.4277 47.8076 47.4277 45.4464C47.4277 43.0822 46.1908 41.8454 44.9392 40.5908C43.3976 39.0462 41.8442 37.5046 41.782 34.3356C41.7495 31.1548 43.3059 29.6102 44.8445 28.0656C46.1169 26.8288 47.3833 25.589 47.3981 23.2426C47.4158 20.8814 46.1287 19.6416 44.8919 18.4195C43.3858 17.02 41.9093 15.5908 42.0661 12.4869C42.2584 9.36817 43.8119 7.75852 45.3061 5.95949C46.4779 4.67235 47.623 3.38818 47.6525 1.05653C48.2088 1.00919 48.8124 0.95889 49.351 1.00919V1.01807ZM54.5232 1.67495C54.825 4.77887 53.5882 6.12815 52.2537 7.35018C51.1589 8.55743 50.0167 9.77946 50.0315 12.1229C50.0641 14.4694 51.3187 15.7387 52.5703 16.9933C54.1563 18.6 55.7127 20.1771 55.7778 23.3106C55.763 26.4619 54.2066 27.9562 52.6206 29.4859C51.366 30.7228 50.0818 31.9626 50.067 34.3238C50.067 36.6702 51.3039 37.9248 52.5259 39.1468C54.0498 40.6588 55.5588 42.1857 55.5115 45.402C55.4641 48.6154 53.9699 50.1452 52.4786 51.7193C51.2417 52.9443 50.0197 54.1782 50.0197 56.5424C50.0345 58.9036 51.2743 60.1582 52.5259 61.4128C54.0823 62.9573 55.6357 64.4812 55.7008 67.665C55.7156 70.834 54.1947 72.3756 52.6236 73.9024C51.3512 75.157 50.07 76.3968 50.0522 78.758C50.0345 81.1074 51.3039 82.3413 52.5585 83.5811C54.0823 84.9629 55.5411 86.4098 55.399 89.5138C55.1771 92.6177 53.6533 94.2392 52.1768 96.0412C50.9873 97.3283 49.8274 98.5977 49.8126 100.959C49.2563 100.977 48.7 101.006 48.0993 100.991C48.0668 97.7928 49.4634 96.2335 50.8896 94.6564C52.1146 93.387 53.3337 91.9726 53.4432 89.6439C53.5231 87.3448 52.301 86.2353 51.0938 85.0132C49.5403 83.5012 47.984 81.9744 47.984 78.7758C47.984 75.592 49.5699 74.0356 51.1589 72.491C52.4135 71.2542 53.6828 70.0144 53.6503 67.668C53.6178 65.3215 52.3513 64.0847 51.0967 62.8124C49.5581 61.2855 48.0343 59.7587 48.0343 56.5601C48.052 53.3763 49.5581 51.817 51.0346 50.2754C52.2566 49.0385 53.4935 47.784 53.5112 45.4198C53.5438 43.0408 52.304 41.8188 51.082 40.5819C49.5581 39.0522 48.0195 37.5253 48.0343 34.3445C48.0195 31.1281 49.5906 29.5865 51.1944 28.0597C52.449 26.8377 53.7154 25.6157 53.7154 23.287C53.6976 20.9376 52.4164 19.6534 51.1618 18.3988C49.5936 16.8543 48.052 15.3127 48.0846 12.1436C48.0993 8.94505 49.5137 7.38569 50.8896 5.90623C51.9844 4.69898 53.0023 3.67223 52.8277 1.35539C53.3988 1.51517 53.9373 1.59506 54.5261 1.67791L54.5232 1.67495ZM59.6481 3.12187C60.2043 5.98316 59.0918 7.07796 57.92 8.26745C56.9199 9.19952 55.8577 10.1967 56.0174 12.4958C56.1269 14.7771 57.4289 16.1441 58.6657 17.4283C60.2043 18.9876 61.7282 20.5648 61.8051 23.5533C61.8377 26.5743 60.3612 28.039 58.8225 29.5333C57.5857 30.7228 56.3341 31.9448 56.269 34.2912C56.2216 36.6229 57.4584 37.8419 58.6479 39.0817C60.1244 40.5582 61.6157 42.088 61.5506 45.3192C61.5358 48.5829 60.0268 50.1422 58.5207 51.7016C57.2987 52.971 56.0944 54.2107 56.124 56.5868C56.1565 58.951 57.3933 60.2351 58.6302 61.4749C60.1836 63.0343 61.7075 64.5936 61.7548 67.7419C61.8022 70.8606 60.3434 72.3401 58.8196 73.8521C57.5975 75.089 56.3784 76.311 56.3311 78.6278C56.3163 80.924 57.5058 82.0513 58.6805 83.1757C60.0771 84.5102 61.4412 85.8121 61.1571 88.7533C60.808 91.6945 59.2693 93.3337 57.7129 95.0381C56.4583 96.5175 55.254 97.9497 54.9996 100.216C54.4137 100.281 53.8574 100.361 53.3011 100.491C53.5231 97.3549 55.0292 95.7186 56.5708 93.9965C57.8253 92.5496 59.077 91.2003 59.2989 89.0285C59.4883 86.7945 58.3787 85.7174 57.2513 84.6552C55.76 83.2882 54.2687 81.8412 54.2835 78.6752C54.3161 75.5239 55.8695 73.9794 57.3933 72.4703C58.6331 71.2335 59.8226 70.0114 59.7901 67.7123C59.7427 65.3985 58.4882 64.1261 57.2661 62.8893C55.6949 61.3151 54.1563 59.7706 54.1267 56.5572C54.1089 53.3408 55.6032 51.814 57.0767 50.2547C58.3136 48.9853 59.5534 47.7307 59.5682 45.3517C59.6333 42.955 58.4112 41.7507 57.204 40.5139C55.7275 39.0018 54.2036 37.475 54.251 34.2942C54.2983 31.1104 55.8843 29.5984 57.4259 28.0893C58.6479 26.9146 59.867 25.7577 59.867 23.4911C59.8197 21.2246 58.568 19.9552 57.343 18.7006C55.7748 17.0791 54.1859 15.502 54.0438 12.3833C53.8841 9.23206 55.2333 7.868 56.485 6.59565C57.4377 5.67838 58.3402 4.80846 57.9763 2.62477C58.5325 2.78455 59.0711 2.92954 59.6421 3.12187H59.6481ZM64.5983 4.89131C65.3114 7.51292 64.3587 8.39469 63.3112 9.42439C62.4235 10.2914 61.5033 11.1613 61.7578 13.3154C61.9797 15.4843 63.2017 16.7389 64.4238 17.9757C65.9151 19.4877 67.3916 20.9968 67.5336 23.8433C67.646 26.7519 66.2346 28.1189 64.7877 29.5481C63.5982 30.7553 62.4087 31.927 62.3466 34.2261C62.2993 36.5578 63.5065 37.7295 64.6634 38.9515C66.1222 40.4488 67.649 41.9726 67.5987 45.2541C67.5987 48.5503 66.0749 50.1097 64.5865 51.7312C63.3793 52.9858 62.1572 54.2551 62.172 56.6667C62.2194 59.0634 63.4414 60.315 64.6486 61.5874C66.1725 63.1615 67.649 64.6913 67.6786 67.807C67.6638 70.8459 66.2346 72.3253 64.7907 73.7574C63.6012 74.9469 62.4117 76.1838 62.3496 78.3882C62.2874 80.5896 63.4148 81.6667 64.5066 82.6964C65.7612 83.9184 66.998 85.1079 66.6015 87.8094C66.1399 90.5257 64.6013 92.1797 63.0775 93.7569C61.7933 95.1712 60.5387 96.6033 60.0801 98.7071C59.5415 98.8817 59.003 99.0622 58.429 99.1894C58.9379 96.2808 60.4913 94.5439 62.0477 92.8396C63.3319 91.4903 64.554 90.2032 64.8706 88.1467C65.125 86.0725 64.1249 85.1079 63.0775 84.1107C61.7459 82.8236 60.3316 81.5069 60.4292 78.471C60.4588 75.4144 61.9679 73.9202 63.4266 72.4082C64.5865 71.2335 65.7908 70.0765 65.7582 67.7774C65.7109 65.4784 64.5214 64.2386 63.2994 63.0047C61.7607 61.4128 60.2369 59.8682 60.1895 56.6371C60.157 53.3734 61.666 51.8288 63.1573 50.2547C64.3942 48.9527 65.5985 47.6833 65.6162 45.2541C65.631 42.8425 64.4593 41.6235 63.2372 40.4162C61.8081 38.8865 60.3197 37.3952 60.3967 34.2439C60.4588 31.1104 61.9679 29.5984 63.4592 28.1988C64.5865 27.0419 65.7612 25.8997 65.6961 23.7308C65.6162 21.5945 64.3942 20.3872 63.2047 19.1652C61.6986 17.6058 60.157 15.9991 59.9203 13.0076C59.6037 10.0339 60.7784 8.87699 61.888 7.86504C62.7283 7.04541 63.4917 6.29089 62.9828 4.29657C63.5213 4.4889 64.0628 4.68419 64.6013 4.89131H64.5983ZM69.1995 6.7584C70.0546 9.11962 69.2616 9.8771 68.3887 10.7441C67.6283 11.4986 66.8205 12.2886 67.1519 14.2504C67.4537 16.2418 68.6284 17.449 69.8179 18.6533C71.2293 20.0824 72.6733 21.5294 72.9129 24.2161C73.1053 26.9797 71.8033 28.2994 70.4866 29.6516C69.377 30.776 68.2497 31.933 68.2497 34.1847C68.2171 36.4838 69.4244 37.6733 70.5813 38.8776C72.0578 40.3896 73.5639 41.9341 73.5965 45.2126C73.6438 48.5237 72.1199 50.1304 70.6612 51.7371C69.4392 53.0242 68.2201 54.3084 68.2023 56.7377C68.2349 59.167 69.4244 60.4186 70.6138 61.6732C72.0578 63.2148 73.487 64.6942 73.3893 67.7656C73.2769 70.7423 71.8655 72.204 70.4541 73.6332C69.3119 74.8079 68.1372 75.9648 68.0573 78.0864C67.9479 80.1902 68.948 81.1548 69.9155 82.1046C71.0399 83.229 72.1347 84.306 71.6436 86.7974C71.0725 89.2889 69.5812 90.8157 68.0721 92.3425C66.8175 93.6592 65.5955 95.0262 64.9919 96.9229C64.5007 97.1152 63.977 97.3253 63.4384 97.5029C64.122 94.8339 65.6606 93.1621 67.1992 91.5051C68.4361 90.2683 69.6581 89.0462 70.0398 87.1821C70.389 85.2381 69.4835 84.3711 68.5633 83.4835C67.3561 82.3117 66.0867 81.0867 66.2139 78.2106C66.3116 75.2843 67.7555 73.8077 69.1817 72.3756C70.3239 71.1713 71.4838 70.0292 71.5311 67.7952C71.5459 65.5287 70.4363 64.3214 69.2291 63.0846C67.7378 61.5252 66.2465 59.9659 66.2317 56.717C66.2139 53.4207 67.723 51.8466 69.2143 50.2547C70.4363 48.9527 71.6731 47.6508 71.6436 45.2067C71.6258 42.7922 70.4215 41.5406 69.2143 40.3186C67.7703 38.777 66.2938 37.2798 66.3264 34.1788C66.3589 31.1104 67.7703 29.6783 69.1669 28.3112C70.2469 27.2016 71.2914 26.1571 71.182 24.0829C71.037 22.0413 69.88 20.8843 68.7231 19.7096C67.2466 18.1976 65.773 16.6886 65.4239 13.8894C64.98 11.1435 66.0098 10.176 66.9773 9.27645C67.6904 8.58702 68.3414 7.92718 67.723 6.15774C68.2142 6.35007 68.7083 6.5424 69.1995 6.75248V6.7584ZM73.4189 8.73496C74.3865 10.8269 73.7533 11.4187 73.0372 12.1436C72.4158 12.7532 71.7205 13.4456 72.1318 15.2476C72.4987 17.0821 73.6556 18.2538 74.7978 19.393C76.1944 20.8103 77.591 22.2395 77.9727 24.796C78.2893 27.4472 77.1324 28.6219 75.9103 29.8913C74.8954 30.921 73.8628 31.9951 73.9278 34.2143C74.0077 36.4483 75.1972 37.6851 76.3867 38.9249C77.878 40.4665 79.4315 42.0288 79.5912 45.257C79.7037 48.5533 78.1798 50.1126 76.6856 51.7193C75.4783 53.0242 74.2593 54.3261 74.2267 56.7673C74.1468 59.164 75.3393 60.4156 76.4637 61.6377C77.81 63.0994 79.1444 64.5315 78.9225 67.5378C78.6681 70.4316 77.2241 71.9081 75.8275 73.355C74.6853 74.5149 73.558 75.6719 73.4012 77.6958C73.2088 79.6576 74.0995 80.5571 74.9398 81.4092C75.9399 82.4064 76.8454 83.3237 76.2417 85.6553C75.5582 87.9218 74.1468 89.3688 72.7029 90.8482C71.4808 92.0525 70.2617 93.3248 69.6078 95.0262C69.1166 95.2363 68.6402 95.4434 68.1639 95.6535C68.9716 93.242 70.4659 91.6826 71.9897 90.1558C73.1644 88.9663 74.3391 87.7916 74.783 86.0577C75.2091 84.306 74.4486 83.5485 73.6556 82.7289C72.5608 81.6844 71.4483 80.5748 71.6879 77.8585C71.8773 75.0623 73.2562 73.6154 74.6705 72.1685C75.8127 70.9938 76.9874 69.8191 77.1146 67.6354C77.2418 65.4162 76.1648 64.2415 75.0522 63.0698C73.6408 61.5578 72.2117 60.031 72.2442 56.7673C72.262 53.4385 73.7829 51.8466 75.2742 50.2399C76.4962 48.9379 77.7035 47.6508 77.6413 45.2245C77.5614 42.8277 76.292 41.5584 75.1025 40.3215C73.5935 38.7622 72.1347 37.2531 72.0874 34.1818C72.0253 31.1755 73.342 29.8262 74.6114 28.5243C75.5967 27.5123 76.5495 26.5477 76.3423 24.5859C76.1027 22.6567 74.9783 21.4998 73.8509 20.3724C72.4395 18.9255 70.9955 17.4786 70.5517 14.925C70.0132 12.3685 70.8683 11.5341 71.6939 10.7618C72.2649 10.1819 72.8035 9.66702 72.1051 8.09288C72.5342 8.30296 72.978 8.51008 73.4219 8.73496H73.4189ZM77.1945 10.8565C78.2893 12.7058 77.8455 13.1704 77.2744 13.7178C76.7832 14.2001 76.2121 14.7623 76.7181 16.4193C77.1797 18.1236 78.3041 19.248 79.4019 20.3902C80.7807 21.8193 82.1773 23.2337 82.7188 25.663C83.2396 28.187 82.2099 29.2315 81.1476 30.3559C80.2274 31.3234 79.2924 32.3176 79.4492 34.4717C79.6238 36.6584 80.8458 37.8982 82.133 39.1498C83.6716 40.7239 85.2724 42.3011 85.5446 45.4346C85.7488 48.6184 84.2279 50.1452 82.7514 51.7045C81.5441 52.9739 80.3221 54.2758 80.1978 56.6874C80.1031 59.0841 81.1506 60.2558 82.2454 61.398C83.5473 62.8124 84.7694 64.0965 84.3403 67.0229C83.9142 69.8191 82.4377 71.3311 80.976 72.8106C79.8339 74.0001 78.6917 75.1422 78.4225 77.0862C78.1354 78.9829 78.9136 79.7552 79.6297 80.4949C80.47 81.3471 81.2305 82.1164 80.4848 84.2557C79.6771 86.3447 78.2804 87.7591 76.8838 89.1764C75.7121 90.3334 74.5374 91.5081 73.8065 93.0349C73.3479 93.245 72.9189 93.4698 72.4898 93.6799C73.41 91.5406 74.8688 90.0789 76.3127 88.632C77.4549 87.4898 78.597 86.3477 79.1356 84.7558C79.6593 83.1343 79.0261 82.507 78.3574 81.8324C77.4371 80.9003 76.4548 79.9031 76.8039 77.3141C77.1205 74.6629 78.532 73.1982 79.9434 71.7513C81.1329 70.547 82.3075 69.325 82.5916 67.2182C82.8135 65.0641 81.8312 63.9871 80.8162 62.8922C79.467 61.4453 78.0881 59.9659 78.2449 56.7347C78.3396 53.4059 79.8487 51.8318 81.34 50.2576C82.5295 48.9734 83.7515 47.7189 83.5917 45.3724C83.4793 43.0082 82.1152 41.7389 80.8932 40.4843C79.3545 38.9101 77.8455 37.3508 77.6413 34.3622C77.4667 31.4359 78.6385 30.1813 79.8309 28.9918C80.6861 28.0923 81.5293 27.2223 81.1802 25.3434C80.8458 23.4941 79.7037 22.352 78.6266 21.2276C77.23 19.7984 75.8186 18.3988 75.2475 16.0346C74.6291 13.7208 75.3304 12.9958 75.9636 12.3863C76.4074 11.9365 76.8039 11.5519 76.0257 10.1523C76.3897 10.3772 76.8039 10.6021 77.2004 10.8595L77.1945 10.8565ZM80.544 13.1881C81.7483 14.8599 81.4642 15.1677 81.0825 15.5375C80.7008 15.9074 80.2718 16.3424 80.8754 17.8514C81.4613 19.4108 82.5738 20.5677 83.6982 21.6921C85.0801 23.139 86.4737 24.5859 87.2371 26.8998C87.968 29.3261 87.0951 30.2109 86.1601 31.1932C85.3493 32.0454 84.509 32.9449 84.8581 35.0043C85.1452 37.1407 86.4767 38.3953 87.7638 39.6646C89.3498 41.2566 91.0956 42.8337 91.4595 45.7896C91.7613 48.7782 90.3174 50.1955 88.8113 51.6572C87.5744 52.894 86.3346 54.1664 86.1305 56.495C86.0032 58.7941 86.956 59.9037 87.9384 60.9482C89.1752 62.2206 90.2878 63.4071 89.6191 66.1737C88.9858 68.89 87.4117 70.4198 85.9234 71.9318C84.7161 73.139 83.5592 74.3581 83.1479 76.2074C82.7514 77.9917 83.4023 78.6515 83.9882 79.2463C84.6717 79.9682 85.2576 80.5659 84.3226 82.5898C83.355 84.5043 81.9732 85.8861 80.6269 87.2679C79.4847 88.3923 78.3722 89.5493 77.5466 90.9015C77.1205 91.1412 76.7566 91.3838 76.3571 91.6235C77.4194 89.709 78.8338 88.2976 80.2274 86.8833C81.3222 85.7589 82.417 84.6167 83.1005 83.1698C83.7515 81.6578 83.2426 81.1607 82.704 80.5807C81.9436 79.8262 81.1328 78.974 81.624 76.5448C82.1152 73.9734 83.5444 72.5117 85.0209 70.9849C86.2281 69.7629 87.4946 68.5261 87.9236 66.4992C88.3053 64.4102 87.4324 63.4604 86.4796 62.4336C85.2251 61.1169 83.9409 59.7351 84.1776 56.5838C84.3818 53.3527 85.876 51.8081 87.3821 50.2813C88.5864 49.074 89.7611 47.9023 89.5244 45.6506C89.3172 43.4166 87.9384 42.1472 86.6039 40.8748C85.0505 39.3007 83.4467 37.7236 83.0976 34.7972C82.7159 31.9359 83.7959 30.8263 84.796 29.7966C85.5417 29.0095 86.24 28.255 85.7961 26.4382C85.2724 24.7043 84.1302 23.5444 83.0354 22.3875C81.6536 20.9553 80.26 19.541 79.5439 17.3543C78.7835 15.218 79.3397 14.6883 79.7984 14.2356C80.115 13.9131 80.3694 13.6557 79.4818 12.4188C79.8309 12.6585 80.1801 12.9337 80.547 13.1881H80.544Z" fill="white"/>
<path d="M122.703 35.0919L123.494 39.0645L124.461 35.2677L130.015 16.4062H131.967L137.451 35.2677L138.4 39.0998L139.244 35.0919L143.867 16.4062H146.082L139.525 42H137.451L131.65 21.9785L131 19.4473L130.367 21.9785L124.426 42H122.351L115.812 16.4062H118.027L122.703 35.0919ZM161.164 42C160.953 41.4023 160.818 40.5176 160.76 39.3457C160.021 40.3066 159.078 41.0508 157.929 41.5781C156.793 42.0938 155.586 42.3517 154.308 42.3517C152.48 42.3517 150.998 41.8419 149.861 40.8223C148.736 39.8027 148.174 38.5138 148.174 36.9552C148.174 35.1036 148.941 33.6387 150.476 32.5605C152.023 31.4824 154.174 30.9434 156.928 30.9434H160.742V28.7812C160.742 27.422 160.32 26.3556 159.476 25.5821C158.644 24.797 157.426 24.4044 155.82 24.4044C154.355 24.4044 153.142 24.7794 152.181 25.5294C151.22 26.2794 150.74 27.1816 150.74 28.2363L148.631 28.2188C148.631 26.707 149.334 25.4004 150.74 24.2988C152.146 23.1855 153.875 22.629 155.926 22.629C158.047 22.629 159.717 23.1621 160.935 24.2285C162.166 25.2832 162.799 26.7598 162.834 28.6582V37.6582C162.834 39.498 163.027 40.8751 163.414 41.7892V42H161.164ZM154.554 40.4883C155.961 40.4883 157.215 40.1484 158.316 39.4688C159.429 38.7891 160.238 37.8809 160.742 36.7441V32.5605H156.98C154.883 32.584 153.242 32.9707 152.058 33.7207C150.875 34.459 150.283 35.4786 150.283 36.7794C150.283 37.8458 150.676 38.7306 151.461 39.4338C152.258 40.1369 153.289 40.4883 154.554 40.4883ZM177.248 24.7734C176.802 24.6914 176.328 24.6504 175.824 24.6504C174.511 24.6504 173.398 25.0195 172.484 25.7578C171.582 26.4844 170.937 27.545 170.551 28.9396V42H168.459V22.9805H170.515L170.551 26.004C171.664 23.754 173.451 22.629 175.912 22.629C176.498 22.629 176.961 22.7052 177.301 22.8575L177.248 24.7734ZM195.881 32.6836C195.881 35.6484 195.224 38.004 193.912 39.75C192.599 41.4844 190.842 42.3517 188.638 42.3517C186.037 42.3517 184.045 41.4377 182.662 39.6096V49.3125H180.57V22.9805H182.521L182.627 25.67C183.998 23.6427 185.984 22.629 188.586 22.629C190.859 22.629 192.64 23.4902 193.929 25.2129C195.23 26.9355 195.881 29.3263 195.881 32.3848V32.6836ZM193.771 32.3146C193.771 29.8888 193.273 27.9728 192.277 26.5665C191.281 25.1603 189.892 24.4571 188.111 24.4571C186.822 24.4571 185.715 24.7677 184.789 25.3888C183.863 26.0099 183.154 26.9121 182.662 28.0957V37.2188C183.166 38.3086 183.886 39.1408 184.824 39.715C185.761 40.2893 186.869 40.5762 188.146 40.5762C189.916 40.5762 191.293 39.8731 192.277 38.4669C193.273 37.049 193.771 34.9981 193.771 32.3146ZM136.097 76.0196C135.804 78.715 134.838 80.7773 133.197 82.207C131.568 83.6367 129.394 84.3517 126.676 84.3517C124.777 84.3517 123.095 83.8771 121.631 82.9277C120.178 81.9785 119.052 80.6367 118.256 78.9023C117.459 77.1562 117.054 75.1641 117.043 72.9258V69.6035C117.043 67.3302 117.441 65.3145 118.238 63.5566C119.035 61.7988 120.178 60.4454 121.666 59.4963C123.166 58.5354 124.888 58.0547 126.834 58.0547C129.576 58.0547 131.738 58.799 133.32 60.2873C134.914 61.7639 135.84 63.8086 136.097 66.4219H133.918C133.379 62.0742 131.017 59.9004 126.834 59.9004C124.513 59.9004 122.662 60.7676 121.279 62.502C119.908 64.2363 119.222 66.6328 119.222 69.6914V72.8203C119.222 75.7734 119.89 78.1291 121.226 79.8869C122.574 81.6447 124.39 82.5235 126.676 82.5235C128.937 82.5235 130.642 81.9845 131.791 80.9062C132.939 79.8164 133.648 78.1876 133.918 76.0196H136.097ZM152.867 84C152.656 83.4023 152.521 82.5176 152.463 81.3457C151.724 82.3066 150.781 83.0509 149.633 83.5782C148.496 84.0939 147.289 84.3517 146.011 84.3517C144.183 84.3517 142.701 83.8419 141.564 82.8224C140.439 81.8028 139.877 80.5138 139.877 78.9552C139.877 77.1036 140.644 75.6389 142.179 74.5606C143.726 73.4826 145.877 72.9434 148.631 72.9434H152.445V70.7812C152.445 69.4219 152.023 68.3556 151.179 67.5821C150.347 66.7971 149.129 66.4043 147.523 66.4043C146.058 66.4043 144.845 66.7793 143.885 67.5293C142.924 68.2793 142.443 69.1816 142.443 70.2363L140.334 70.219C140.334 68.7072 141.037 67.4004 142.443 66.2988C143.849 65.1855 145.578 64.6289 147.629 64.6289C149.75 64.6289 151.42 65.1622 152.638 66.2285C153.869 67.2832 154.502 68.76 154.537 70.6584V79.6584C154.537 81.4982 154.73 82.8751 155.117 83.7892V84H152.867ZM146.258 82.4883C147.664 82.4883 148.918 82.1486 150.019 81.4689C151.133 80.7892 151.941 79.8811 152.445 78.7443V74.5606H148.683C146.586 74.5841 144.945 74.9709 143.761 75.7209C142.578 76.4592 141.986 77.4785 141.986 78.7793C141.986 79.8457 142.379 80.7306 143.164 81.4337C143.961 82.1368 144.992 82.4883 146.258 82.4883ZM175.455 74.6838C175.455 77.6486 174.799 80.0039 173.486 81.75C172.174 83.4844 170.416 84.3517 168.213 84.3517C165.611 84.3517 163.619 83.4376 162.236 81.6095V91.3125H160.144V64.9805H162.095L162.201 67.6699C163.572 65.6426 165.558 64.6289 168.16 64.6289C170.433 64.6289 172.215 65.4902 173.504 67.2129C174.804 68.9355 175.455 71.3264 175.455 74.385V74.6838ZM173.345 74.3145C173.345 71.8887 172.847 69.9727 171.851 68.5664C170.855 67.1602 169.467 66.4571 167.685 66.4571C166.396 66.4571 165.289 66.7677 164.363 67.3889C163.437 68.01 162.728 68.9123 162.236 70.0959V79.219C162.74 80.3088 163.461 81.1406 164.398 81.7148C165.336 82.2891 166.443 82.5762 167.72 82.5762C169.49 82.5762 170.867 81.873 171.851 80.4668C172.847 79.0488 173.345 76.998 173.345 74.3145ZM182.486 84H180.377V64.9805H182.486V84ZM180.008 59.4785C180.008 59.0802 180.136 58.7463 180.394 58.4767C180.652 58.1954 181.004 58.0547 181.449 58.0547C181.894 58.0547 182.246 58.1954 182.504 58.4767C182.773 58.7463 182.908 59.0802 182.908 59.4785C182.908 59.877 182.773 60.2109 182.504 60.4805C182.246 60.75 181.894 60.8848 181.449 60.8848C181.004 60.8848 180.652 60.75 180.394 60.4805C180.136 60.2109 180.008 59.877 180.008 59.4785ZM191.486 60.1115V64.9805H195.424V66.7033H191.486V79.377C191.486 80.4316 191.674 81.2169 192.049 81.7325C192.435 82.2481 193.074 82.506 193.965 82.506C194.316 82.506 194.885 82.4474 195.67 82.3302L195.758 84.0527C195.207 84.2521 194.457 84.3517 193.508 84.3517C192.066 84.3517 191.017 83.9355 190.361 83.1035C189.705 82.2598 189.377 81.0236 189.377 79.3946V66.7033H185.879V64.9805H189.377V60.1115H191.486ZM211.789 84C211.578 83.4023 211.443 82.5176 211.385 81.3457C210.646 82.3066 209.703 83.0509 208.554 83.5782C207.418 84.0939 206.211 84.3517 204.933 84.3517C203.105 84.3517 201.623 83.8419 200.486 82.8224C199.361 81.8028 198.799 80.5138 198.799 78.9552C198.799 77.1036 199.566 75.6389 201.101 74.5606C202.648 73.4826 204.799 72.9434 207.552 72.9434H211.367V70.7812C211.367 69.4219 210.945 68.3556 210.101 67.5821C209.269 66.7971 208.051 66.4043 206.445 66.4043C204.98 66.4043 203.767 66.7793 202.806 67.5293C201.845 68.2793 201.365 69.1816 201.365 70.2363L199.256 70.219C199.256 68.7072 199.959 67.4004 201.365 66.2988C202.771 65.1855 204.5 64.6289 206.551 64.6289C208.672 64.6289 210.342 65.1622 211.56 66.2285C212.791 67.2832 213.424 68.76 213.459 70.6584V79.6584C213.459 81.4982 213.652 82.8751 214.039 83.7892V84H211.789ZM205.179 82.4883C206.586 82.4883 207.84 82.1486 208.941 81.4689C210.054 80.7892 210.863 79.8811 211.367 78.7443V74.5606H207.605C205.508 74.5841 203.867 74.9709 202.683 75.7209C201.5 76.4592 200.908 77.4785 200.908 78.7793C200.908 79.8457 201.301 80.7306 202.086 81.4337C202.883 82.1368 203.914 82.4883 205.179 82.4883ZM221.439 84H219.33V57H221.439V84Z" fill="white"/>
</svg>
