<svg width="254" height="111" viewBox="0 0 254 111" fill="none" xmlns="http://www.w3.org/2000/svg">
<g clip-path="url(#clip0_2_16331)">
<path d="M95.1847 16.4586C96.7543 18.1008 96.6148 18.2256 96.362 18.4555C96.1126 18.7249 95.79 19.0631 96.5948 20.6331C97.3962 22.2589 98.6633 23.5431 99.9136 24.847C101.553 26.4892 103.213 28.184 104.337 30.5947C105.407 33.1467 104.586 33.9678 103.731 34.894C102.983 35.6987 102.198 36.5526 102.714 38.7302C103.246 40.9965 104.819 42.4055 106.335 43.798C108.261 45.5454 110.329 47.2434 110.881 50.2224C111.38 53.2374 109.724 54.6661 108.028 56.1836C106.638 57.4678 105.211 58.7881 104.889 61.1956C104.656 63.6227 105.673 64.7296 106.651 65.7478C107.865 66.9795 109.026 68.0666 108.025 70.993C106.99 73.7945 105.118 75.5977 103.319 77.3287C101.926 78.7179 100.572 80.0941 99.9136 82.0746C99.3084 83.9467 99.8771 84.5379 100.393 85.0897C100.945 85.6612 101.41 86.144 100.143 88.2132C98.8229 90.1937 97.3064 91.7833 95.7734 93.3533C94.5263 94.5816 93.2925 95.833 92.2616 97.173C91.8692 97.4916 91.4768 97.761 91.1177 98.0631C92.4213 96.1516 93.9875 94.6178 95.504 93.0642C96.7345 91.8162 97.9849 90.5484 98.8561 89.0507C99.7839 87.4807 99.3549 87.0538 98.9293 86.607C98.2343 85.9305 97.5026 85.1619 98.2708 82.5574C99.0723 79.8773 100.768 78.1497 102.461 76.4352C103.924 75.0426 105.421 73.6139 106.079 71.4922C106.758 69.2949 105.866 68.3687 104.885 67.3867C103.582 66.0664 102.298 64.6935 102.71 61.3532C103.033 57.9801 104.742 56.3412 106.418 54.7516C107.735 53.5364 109.092 52.3441 108.663 50.0418C108.36 47.7558 106.774 46.3829 105.131 44.9903C103.296 43.243 101.44 41.4727 100.782 38.3689C100.103 35.3538 101.137 34.247 102.102 33.265C102.813 32.5161 103.475 31.8362 102.707 29.9476C101.976 28.0919 100.655 26.7553 99.3716 25.4349C97.8019 23.7927 96.2157 22.2391 95.2513 19.9565C94.1804 17.7954 94.6094 17.3487 94.9652 17.0466C95.1448 16.833 95.2679 16.6885 94.1471 15.4601C94.5031 15.782 94.8256 16.1367 95.1815 16.4586H95.1847ZM21.2883 12.9804C19.9515 14.8525 18.3984 16.3897 16.8853 17.9595C15.6382 19.1912 14.4244 20.4951 13.5165 21.9928C12.6253 23.5628 13.0376 23.9536 13.48 24.4365C14.1384 25.0802 14.9067 25.8652 14.0852 28.4533C13.3369 31.1464 11.6243 32.861 9.94827 34.5919C8.48504 35.9844 6.97193 37.4132 6.33009 39.5349C5.6151 41.7289 6.48972 42.6386 7.504 43.6372C8.8076 44.9574 10.0713 46.3336 9.69885 49.6674C9.34302 53.0404 7.61375 54.6661 5.91772 56.2723C4.5975 57.4875 3.26064 58.6436 3.66968 60.9657C3.9723 63.2516 5.61178 64.6409 7.21801 66.0499C9.0537 67.7645 10.9093 69.5117 11.5877 72.6351C12.2662 75.67 11.212 76.7736 10.2509 77.7391C9.53922 78.4881 8.86082 79.1482 9.62569 81.0761C10.3739 82.9154 11.6941 84.2686 12.9945 85.5725C14.5641 87.2114 16.1337 88.7846 17.1314 91.0509C18.169 93.2284 17.72 93.6719 17.4173 93.9576C17.2046 94.1908 17.0781 94.2959 18.1856 95.544C17.8463 95.2254 17.5071 94.8838 17.1679 94.562C15.6183 92.9033 15.7246 92.7621 15.9741 92.5256C16.2601 92.276 16.5627 91.9541 15.7579 90.3842C14.9565 88.7452 13.6895 87.4742 12.4058 86.1538C10.783 84.5149 9.1967 82.8366 8.05272 80.4061C6.96527 77.8738 7.75009 77.0331 8.6247 76.1232C9.39291 75.3219 10.1777 74.4646 9.65894 72.2706C9.08696 70.0208 7.55389 68.6118 6.02082 67.1995C4.09534 65.4522 2.08008 63.7739 1.49146 60.7588C1.04584 57.7437 2.65206 56.3149 4.34476 54.8173C5.75478 53.5297 7.14485 52.2291 7.50068 49.802C7.73346 47.3748 6.71586 46.268 5.75478 45.2694C4.52433 44.0378 3.4003 42.931 4.39796 40.0242C5.4322 37.2063 7.28784 35.4228 9.07032 33.6887C10.4238 32.2796 11.8172 30.9067 12.4591 28.9427C13.0843 27.0705 12.5288 26.4827 11.9934 25.9473C11.458 25.3758 10.9958 24.8569 12.2428 22.8074C13.5631 20.8269 15.0962 19.2373 16.5926 17.6869C17.8431 16.4192 19.0735 15.1711 20.141 13.8672C20.5168 13.565 20.8726 13.2431 21.2816 12.9771L21.2883 12.9804ZM25.1393 10.4449C23.962 12.5666 22.3757 14.1365 20.8227 15.7262C19.5723 16.9414 18.3419 18.1895 17.5604 19.812C16.8488 21.4739 17.4173 22.0618 18.0227 22.6858C18.8606 23.5234 19.8052 24.4692 19.2198 27.1625C18.6844 30.0167 17.0781 31.6424 15.4221 33.3536C14.1019 34.6937 12.6752 36.0665 12.1764 38.3131C11.7308 40.6318 12.7118 41.6861 13.7627 42.8259C15.206 44.2907 16.6325 45.8081 16.33 49.3027C16.1337 52.8894 14.421 54.6037 12.7084 56.3149C11.3683 57.6353 10.048 58.9392 10.3373 61.4353C10.5336 63.9151 12.1032 65.3241 13.6163 66.7528C15.3289 68.4837 17.1114 70.2343 17.5604 73.4826C17.9694 76.6421 16.7756 77.8706 15.6516 79.0332C14.7969 79.9233 14.0121 80.7444 14.5275 82.7446C15.0995 84.7087 16.3632 85.9732 17.6302 87.2607C19.1832 88.847 20.7329 90.4203 21.5344 92.8639C22.409 95.2024 21.7671 95.8067 21.265 96.3092C20.8893 96.6672 20.6066 96.953 21.5875 98.3621C21.1952 98.0598 20.8027 97.7741 20.4303 97.4719C19.0369 95.6523 19.3395 95.3141 19.7885 94.8838C20.2342 94.4733 20.7163 93.9938 20.0379 92.2957C19.3595 90.5649 18.149 89.2806 16.8987 88.0129C15.3123 86.4429 13.7593 84.8171 12.8847 82.2651C12.0832 79.5719 13.0277 78.5734 14.0952 77.5027C15.0064 76.5403 15.9509 75.5386 15.5751 73.2362C15.2724 70.8813 13.756 69.4723 12.2927 68.0601C10.4936 66.3291 8.56817 64.5819 8.1558 61.2974C7.79998 57.9768 9.43946 56.4069 11.1355 54.7483C12.5256 53.3918 13.9156 51.9992 14.1484 49.3947C14.3113 46.8624 13.2206 45.6307 12.1331 44.4517C10.7397 43.0427 9.51262 41.7421 10.2609 38.6875C10.9925 35.6725 12.7417 33.9612 14.3978 32.2632C15.7513 30.9429 17.0382 29.5865 17.4839 27.5534C17.9828 25.5728 17.2511 24.8404 16.5395 24.1277C15.8244 23.3789 15.166 22.699 16.2003 20.4689C17.2876 18.3438 18.8207 16.7904 20.3538 15.2565C21.6208 14.0084 22.8879 12.7406 23.829 11.2594C24.238 10.9539 24.7037 10.7043 25.1326 10.4383L25.1393 10.4449ZM29.509 8.14248C28.4581 10.5138 26.7987 12.1396 25.1758 13.726C23.9088 15.0102 22.6618 16.2976 22.0365 18.045C21.448 19.8481 22.143 20.5412 22.9112 21.3096C23.9454 22.3278 25.0495 23.4347 24.6404 26.2889C24.3178 29.2513 22.7149 30.8575 21.1453 32.4964C19.8084 33.8168 18.4715 35.1765 18.169 37.5117C17.8996 39.9028 19.0037 41.0818 20.1476 42.3299C21.6474 43.9163 23.1972 45.542 23.0375 49.1451C22.9312 52.8039 21.2185 54.5709 19.5224 56.3379C18.1856 57.7503 16.8288 59.1199 17.0084 61.744C17.1314 64.3487 18.6313 65.7773 20.0245 67.1864C21.7539 68.9336 23.4466 70.6481 23.696 73.9687C23.8722 77.2334 22.552 78.6227 21.2517 79.9266C20.2342 80.9447 19.3263 81.871 19.702 83.9762C20.0778 86.0126 21.3415 87.2936 22.5919 88.5613C24.1582 90.1313 25.7312 91.7012 26.3697 94.3254C27.0681 96.8939 26.2799 97.6788 25.5849 98.3554C25.0661 98.8743 24.6404 99.2653 25.4951 100.835C25.0661 100.586 24.6038 100.336 24.1749 100.067C22.9444 97.9974 23.4432 97.4983 24.0851 96.8906C24.657 96.3355 25.279 95.7311 24.7103 93.8919C24.2114 91.9803 22.9477 90.7324 21.6807 89.4645C20.1277 87.8945 18.5946 86.3049 17.9694 83.6281C17.4173 80.8265 18.5581 79.631 19.7519 78.4026C20.7695 77.3483 21.837 76.2251 21.6408 73.8505C21.4446 71.4068 20.0878 70.0306 18.6245 68.6414C16.9119 66.894 15.1294 65.1598 14.8069 61.6817C14.594 58.1476 16.2368 56.4365 17.9295 54.7253C19.3196 53.2966 20.693 51.8678 20.8194 49.1746C20.9424 46.5339 19.7685 45.23 18.5347 43.9459C17.0715 42.3923 15.718 40.9505 16.1836 37.7186C16.6824 34.6115 18.3585 32.9365 19.9814 31.2943C21.2484 29.974 22.5321 28.6898 22.818 26.5286C23.1573 24.443 22.2859 23.566 21.4612 22.7647C20.5334 21.8188 19.6787 20.9813 20.5168 18.5869C21.4081 16.2648 22.9976 14.7146 24.5473 13.1085C25.8842 11.8408 27.1878 10.5204 28.0258 8.86176C28.5247 8.59573 29.0068 8.37896 29.5057 8.12934L29.509 8.14248ZM34.3576 5.96491C33.4497 8.62528 31.7371 10.3365 30.061 12.0673C28.7242 13.368 27.4206 14.6719 26.9051 16.5998C26.4262 18.5442 27.2975 19.3818 28.1688 20.2948C29.3826 21.4181 30.6496 22.6662 30.4002 25.7173C30.1841 28.8047 28.6177 30.3911 27.0282 32.0169C25.7811 33.3208 24.4409 34.6411 24.3012 37.0485C24.1416 39.5118 25.3554 40.8125 26.6025 42.1C28.1887 43.7586 29.8116 45.4895 29.7584 49.1122C29.7218 52.7875 28.0291 54.5545 26.3331 56.3577C24.9797 57.8028 23.6062 59.2118 23.696 61.9083C23.7658 64.5851 25.1758 65.9744 26.5659 67.3867C28.242 69.0847 29.8648 70.74 29.938 74.1657C30.0079 77.483 28.5279 79.0036 27.0847 80.4652C25.9772 81.5721 24.9065 82.6428 25.1393 84.8368C25.4053 86.9782 26.6723 88.246 27.9193 89.5105C29.5422 91.0969 31.1451 92.7029 31.6307 95.5407C32.2359 98.3785 31.2549 99.3079 30.4002 100.165C29.7218 100.825 29.1499 101.377 29.9014 103.124C29.4025 102.911 28.9038 102.661 28.4215 102.428C27.3341 100.093 28.0458 99.413 28.8505 98.6444C29.5622 97.9285 30.3138 97.1993 29.8848 95.1827C29.4558 93.1464 28.1721 91.8293 26.8719 90.5812C25.3189 89.0113 23.7525 87.4413 23.3036 84.6036C22.9643 81.6574 24.2679 80.3404 25.6048 78.9478C26.7821 77.7884 27.9593 76.593 27.8695 74.1493C27.7798 71.6531 26.4595 70.2769 25.086 68.9205C23.4099 67.1896 21.6973 65.4752 21.5011 61.8886C21.378 58.233 23.0707 56.4824 24.7468 54.699C26.1203 53.2539 27.4937 51.8252 27.5469 49.1155C27.6002 46.4387 26.2998 45.0461 25.0495 43.7094C23.4965 42.0672 22.0199 40.4972 22.2859 37.1602C22.552 33.9481 24.1948 32.3223 25.7445 30.6998C27.0282 29.4156 28.2952 28.1478 28.4748 25.8816C28.671 23.6844 27.6733 22.6891 26.7089 21.7235C25.6214 20.6528 24.5906 19.6346 25.249 17.0301C26.0338 14.5306 27.6367 12.9246 29.2596 11.2823C30.6364 9.94234 31.9732 8.55303 32.7015 6.66121C33.2536 6.41159 33.8089 6.1784 34.3609 5.96491H34.3576ZM39.6551 3.91216C38.8903 6.8747 37.1411 8.69425 35.3951 10.5302C34.0384 11.9032 32.6649 13.2793 32.2392 15.3846C31.8634 17.4899 32.8645 18.4523 33.8788 19.454C35.2522 20.7415 36.6789 22.0946 36.5191 25.3068C36.4295 28.5552 34.8066 30.1776 33.2203 31.8033C31.9366 33.104 30.6364 34.3915 30.5632 36.8713C30.5466 39.3871 31.8103 40.7074 33.1305 42.0803C34.8066 43.7948 36.4826 45.5256 36.4993 49.1451C36.5159 52.8039 34.8232 54.5545 33.1305 56.3379C31.7736 57.7667 30.4002 59.2282 30.4369 61.9412C30.4568 64.6179 31.8103 65.9908 33.167 67.3473C34.8066 69.0421 36.4295 70.7006 36.3962 74.1461C36.3762 77.552 34.8099 79.1581 33.2037 80.6952C31.9899 81.9071 30.8126 83.0665 30.9556 85.3886C31.1152 87.6351 32.3988 88.9226 33.7024 90.2068C35.3619 91.8851 37.0213 93.5602 37.4104 96.6672C37.8727 99.7381 36.732 100.825 35.6812 101.807C34.8964 102.576 34.1282 103.305 34.8232 105.305C34.2346 105.072 33.6992 104.859 33.1837 104.629C32.2026 102.024 33.0939 101.167 34.0915 100.185C34.9463 99.3637 35.8375 98.4704 35.4817 96.2764C35.1257 94.0989 33.8221 92.7423 32.4687 91.4056C30.8625 89.8324 29.2762 88.2099 29.0068 85.2309C28.794 82.16 30.2373 80.7148 31.7337 79.181C32.9808 77.9658 34.2479 76.6652 34.2479 74.1822C34.2844 71.6499 32.911 70.3296 31.5908 68.9566C29.9679 67.2619 28.2918 65.5835 28.2021 61.9444C28.1655 58.2659 29.8782 56.4824 31.521 54.6826C32.911 53.2736 34.2844 51.8284 34.2844 49.1155C34.2678 46.4551 32.9276 45.0658 31.6108 43.6535C29.9712 41.9227 28.385 40.3002 28.4914 36.9107C28.6177 33.6098 30.2206 31.9676 31.8069 30.3976C33.0573 29.0937 34.3776 27.8096 34.4674 25.4546C34.6103 23.1161 33.4697 22.0453 32.3822 20.9746C31.1152 19.7069 29.9213 18.5672 30.4369 15.7656C31.062 13.0165 32.7547 11.3053 34.4307 9.6106C35.8408 8.16547 37.2474 6.66778 37.8927 4.56247C38.4613 4.34898 39.0499 4.13221 39.6551 3.91872V3.91216ZM45.2719 2.00063C44.72 5.24891 42.9541 7.14073 41.2049 9.08511C39.7949 10.5664 38.4048 12.0115 38.049 14.2778C37.763 16.5604 38.887 17.6311 40.0442 18.7544C41.5607 20.1667 43.1303 21.6283 43.0606 25.0178C43.0239 28.4073 41.328 30.0495 39.6918 31.7443C38.3716 33.0318 37.0712 34.3488 37.0712 36.8844C37.1078 39.4364 38.4447 40.7928 39.8015 42.1854C41.5307 43.9163 43.26 45.6472 43.2966 49.2338C43.3498 52.8565 41.6371 54.5709 39.9611 56.3379C38.5877 57.7667 37.2143 59.1757 37.2143 61.8853C37.161 64.5457 38.5179 65.9021 39.8713 67.2586C41.4775 68.937 43.1702 70.5956 43.1004 74.0902C43.0273 77.5684 41.3346 79.2303 39.6385 80.8199C38.3383 82.0878 37.0712 83.3719 37.1078 85.7794C37.2143 88.1343 38.5345 89.4711 39.9079 90.8472C41.584 92.5617 43.3332 94.3616 43.6159 97.6624C43.9717 100.947 42.5983 102.231 41.3845 103.374C40.46 104.267 39.5854 105.141 40.154 107.351C39.5288 107.102 38.9235 106.905 38.3716 106.691C37.5136 103.781 38.6043 102.766 39.7616 101.64C40.7426 100.678 41.7968 99.7316 41.5441 97.3241C41.2747 94.9134 39.9045 93.524 38.5311 92.1479C36.8351 90.4531 35.2123 88.8109 35.0361 85.6151C34.9463 82.403 36.4959 80.8857 38.1387 79.3157C39.4589 77.9789 40.8324 76.675 40.869 74.1427C40.9022 71.5547 39.5854 70.2146 38.2651 68.8778C36.6256 67.183 34.9463 65.5047 34.9662 61.882C34.9662 58.2265 36.6789 56.4594 38.3383 54.6924C39.7283 53.2802 41.0852 51.8908 41.0852 49.2305C41.0319 46.5537 39.6585 45.1447 38.3016 43.7554C36.5891 41.9884 34.9329 40.2936 34.913 36.8482C34.9329 33.4751 36.5524 31.833 38.1587 30.2466C39.4789 28.9262 40.7992 27.5862 40.8723 25.1229C40.9421 22.6596 39.6752 21.4838 38.4812 20.3408C37.0379 18.9482 35.6844 17.6639 36.1102 14.6653C36.629 11.6305 38.3549 9.81096 40.0875 8.06365C41.5142 6.4937 42.9241 4.90405 43.4064 2.56883C44.0116 2.37177 44.6368 2.1747 45.2787 1.99735L45.2719 2.00063ZM51.0484 0.571906C50.7624 4.06981 49.1063 5.88937 47.3571 7.7812C45.967 9.36757 44.557 10.8685 44.291 13.3122C44.0948 15.736 45.3617 16.9676 46.6088 18.1468C48.2682 19.6477 49.9443 21.2538 49.9244 24.7682C49.8911 28.2661 48.1785 29.9969 46.4293 31.6556C45.0924 33.0482 43.7356 34.3849 43.7722 36.9566C43.8254 39.5251 45.2188 40.9177 46.6088 42.3102C48.3548 44.0411 50.0874 45.772 50.104 49.3225C50.1405 52.8761 48.4446 54.5873 46.7685 56.3182C45.395 57.7109 44.0216 59.1199 43.9883 61.7802C43.9318 64.4209 45.3086 65.7773 46.6621 67.1502C48.3215 68.8089 50.0341 70.4872 49.9609 74.0574C49.9443 77.5716 48.1619 79.25 46.4127 80.9251C45.0225 82.229 43.6491 83.5131 43.6491 86.0487C43.7023 88.5646 45.0924 89.9571 46.519 91.3662C48.2483 93.1496 50.0341 94.9166 50.1738 98.3784C50.37 101.86 48.8535 103.41 47.4801 104.77C46.3561 105.804 45.3585 106.767 45.7841 109.214C45.1589 109.036 44.5171 108.875 43.9118 108.659C43.2534 105.483 44.5005 104.235 45.8374 102.931C46.9614 101.876 48.1552 100.789 47.9757 98.2569C47.8526 95.7049 46.4059 94.1876 45.0159 92.7621C43.2334 91.0674 41.5541 89.3003 41.4477 85.9633C41.431 82.6099 43.1071 80.9842 44.8164 79.342C46.2264 78.0019 47.653 76.6652 47.6863 74.0606C47.7395 71.4725 46.366 70.0997 45.0126 68.7431C43.3731 67.0648 41.677 65.3897 41.7469 61.8196C41.7835 58.1969 43.4595 56.4496 45.1522 54.699C46.5257 53.3261 47.8991 51.9335 47.8626 49.3093C47.826 46.6686 46.4526 45.2597 45.0624 43.8867C43.2966 42.1197 41.6006 40.4085 41.5473 36.9107C41.4942 33.4652 43.1536 31.8067 44.8463 30.148C46.2031 28.7916 47.5932 27.4187 47.5932 24.847C47.6464 22.2785 46.2929 21.0272 44.9893 19.7956C43.403 18.2782 41.8866 16.8692 42.1892 13.6045C42.5983 10.3398 44.3109 8.48407 46.0767 6.62837C47.4868 4.98617 48.8236 3.41622 49.1428 0.900347C49.7681 0.828089 50.3568 0.722989 51.0318 0.578475L51.0484 0.571906ZM56.8814 0.0201247C56.9179 3.55416 55.3483 5.28176 53.742 7.03235C52.3886 8.45779 50.9985 10.0277 50.8888 12.5995C50.7824 15.1678 52.1558 16.3994 53.5126 17.7395C55.2585 19.4343 57.0244 21.1126 57.0244 24.663C57.0045 28.2135 55.222 29.9444 53.476 31.6392C52.0493 33.0318 50.6427 34.3882 50.6593 36.9927C50.6959 39.5973 52.1192 40.9899 53.5293 42.3824C55.2419 44.0772 56.9712 45.772 56.9512 49.3225C56.9512 52.8761 55.2585 54.5873 53.5824 56.2985C52.189 57.6911 50.8355 59.0837 50.8189 61.7046C50.7857 64.3289 52.1558 65.6854 53.5492 67.0583C55.2619 68.753 56.9911 70.4478 56.9712 73.9982C56.9878 77.5322 55.2252 79.2632 53.4395 80.9579C52.0128 82.3308 50.5695 83.6675 50.5695 86.2754C50.6061 88.8438 51.9962 90.2889 53.4395 91.6815C55.2053 93.4288 56.9346 95.0874 56.898 98.6412C56.8814 102.192 55.2751 103.906 53.7254 105.545C52.5316 106.885 51.371 108.025 51.6038 110.633C50.942 110.436 50.3002 110.327 49.675 110.238C49.3192 106.796 50.7092 105.295 52.209 103.939C53.476 102.599 54.7397 101.246 54.6866 98.6412C54.6866 96.0366 53.2964 94.6277 51.8332 93.2515C50.0507 91.4483 48.3181 89.6977 48.2483 86.2195C48.2849 82.7216 50.0142 81.063 51.8133 79.3846C53.2433 77.9921 54.6665 76.6192 54.6832 74.0146C54.6832 71.3937 53.3098 70.0175 51.9198 68.661C50.2071 66.9498 48.5144 65.2715 48.5675 61.7211C48.6008 58.151 50.2802 56.4398 51.9563 54.7055C53.3463 53.3491 54.7198 51.9565 54.7198 49.3356C54.7198 46.7113 53.3297 45.3385 51.923 43.9459C50.1904 42.2314 48.4446 40.5202 48.3747 37.0026C48.3381 33.4719 50.0874 31.7574 51.8166 30.0429C53.2466 28.67 54.6699 27.2939 54.6866 24.6894C54.7064 22.0684 53.2599 20.6922 51.8699 19.3357C50.1772 17.7823 48.5177 16.1959 48.694 12.7505C48.9101 9.28874 50.656 7.50203 52.3354 5.5051C53.6523 4.07638 54.9393 2.65095 54.9725 0.0628221C55.5977 0.0102714 56.2761 -0.0455635 56.8814 0.0102714V0.0201247ZM62.6944 0.749264C63.0336 4.19461 61.6436 5.69232 60.1437 7.04877C58.9133 8.38882 57.6296 9.74527 57.6462 12.3465C57.6829 14.9511 59.0929 16.36 60.4996 17.7526C62.2821 19.5361 64.0313 21.2866 64.1044 24.7648C64.0878 28.2628 62.3386 29.9215 60.5561 31.6194C59.1461 32.9924 57.7027 34.3686 57.6861 36.9895C57.6861 39.594 59.0763 40.9866 60.4497 42.343C62.1624 44.0213 63.8583 45.7162 63.8052 49.2863C63.7519 52.8532 62.0726 54.5512 60.3965 56.2985C59.0064 57.6582 57.633 59.0279 57.633 61.6521C57.6496 64.2731 59.043 65.6657 60.4497 67.0583C62.1989 68.7727 63.9447 70.4642 64.0179 73.9982C64.0345 77.5158 62.3252 79.227 60.5595 80.9217C59.1294 82.3143 57.6895 83.6905 57.6695 86.3115C57.6496 88.9193 59.0763 90.2889 60.4863 91.6651C62.1989 93.1989 63.8384 94.8049 63.6787 98.2504C63.4293 101.696 61.7167 103.496 60.0573 105.496C58.7204 106.924 57.4168 108.334 57.4002 110.954C56.775 110.974 56.1497 111.007 55.4746 110.991C55.4381 107.44 57.0077 105.709 58.6106 103.959C59.9874 102.55 61.3575 100.98 61.4806 98.3948C61.5704 95.8428 60.1969 94.6113 58.8401 93.2547C57.0942 91.5764 55.345 89.8817 55.345 86.3312C55.345 82.7972 57.1274 81.0696 58.9133 79.3551C60.3233 77.9822 61.7499 76.6061 61.7134 74.0015C61.6768 71.3969 60.2534 70.0241 58.8434 68.6118C57.1142 66.917 55.4016 65.2222 55.4016 61.6718C55.4215 58.1378 57.1142 56.4069 58.7736 54.6958C60.147 53.3228 61.5371 51.9303 61.557 49.306C61.5937 46.6654 60.2003 45.3089 58.8269 43.936C57.1142 42.238 55.3849 40.5432 55.4016 37.0125C55.3849 33.4423 57.1507 31.7311 58.9532 30.0363C60.3632 28.6799 61.7865 27.3235 61.7865 24.7386C61.7665 22.1308 60.3266 20.7053 58.9166 19.3127C57.1541 17.5983 55.4215 15.8872 55.4581 12.3695C55.4746 8.81907 57.0643 7.08818 58.6106 5.44598C59.8411 4.10594 60.9851 2.96624 60.7888 0.394548C61.4307 0.571906 62.0359 0.660585 62.6977 0.752548L62.6944 0.749264ZM68.4543 2.35534C69.0794 5.53138 67.829 6.7466 66.5121 8.06694C65.388 9.10154 64.1942 10.2084 64.3737 12.7604C64.4968 15.2926 65.9601 16.81 67.3501 18.2355C69.0794 19.9663 70.7921 21.717 70.8785 25.0342C70.9151 28.3875 69.2557 30.0134 67.5264 31.672C66.1363 32.9924 64.7297 34.3488 64.6565 36.9533C64.6032 39.5415 65.9933 40.8946 67.3301 42.2708C68.9896 43.9097 70.6656 45.6077 70.5925 49.1944C70.5758 52.8171 68.8799 54.5479 67.1872 56.2788C65.8138 57.6879 64.4603 59.0639 64.4935 61.7014C64.5301 64.3257 65.9201 65.751 67.3102 67.1272C69.0561 68.8581 70.7688 70.589 70.822 74.0836C70.8752 77.5453 69.2357 79.1876 67.5231 80.8659C66.1496 82.2389 64.7795 83.5953 64.7263 86.1669C64.7097 88.7157 66.0465 89.967 67.3668 91.2151C68.9364 92.6964 70.4695 94.1415 70.1502 97.4062C69.7579 100.671 68.0285 102.49 66.2793 104.382C64.8693 106.024 63.5158 107.614 63.2298 110.13C62.5713 110.202 61.9461 110.291 61.3209 110.436C61.5704 106.954 63.2631 105.138 64.9957 103.226C66.4056 101.62 67.8124 100.122 68.0618 97.7117C68.2747 95.232 67.0276 94.0364 65.7605 92.8573C64.0844 91.34 62.4084 89.7338 62.425 86.2195C62.4617 82.7216 64.2075 81.0072 65.9201 79.3321C67.3135 77.9593 68.6504 76.6027 68.6138 74.0507C68.5606 71.4824 67.1507 70.07 65.7771 68.6972C64.0113 66.9498 62.2821 65.2354 62.2488 61.6686C62.2288 58.0984 63.9082 56.4036 65.5643 54.6728C66.9544 53.2638 68.3478 51.8711 68.3645 49.2305C68.4376 46.5701 67.0641 45.2333 65.7073 43.8605C64.0479 42.1821 62.3352 40.4873 62.3885 36.9566C62.4416 33.4226 64.2241 31.7443 65.9567 30.0692C67.3301 28.7653 68.7003 27.4811 68.7003 24.9652C68.6471 22.4494 67.2403 21.0403 65.8636 19.6477C64.1011 17.8479 62.3153 16.0973 62.1556 12.6355C61.9761 9.13765 63.4925 7.62355 64.8993 6.21124C65.97 5.19307 66.9843 4.22746 66.5753 1.80356C67.2004 1.98092 67.8058 2.14186 68.4475 2.35534H68.4543ZM74.0178 4.31942C74.8192 7.22941 73.7485 8.20817 72.5712 9.35114C71.5735 10.3135 70.5393 11.2791 70.8253 13.6702C71.0747 16.0776 72.4481 17.4702 73.8216 18.8431C75.4977 20.5214 77.1571 22.1965 77.3167 25.3561C77.443 28.5847 75.8568 30.102 74.2306 31.6885C72.8937 33.0285 71.5569 34.329 71.4871 36.881C71.4339 39.4692 72.7907 40.7698 74.0909 42.1262C75.7305 43.7882 77.4464 45.4797 77.3899 49.1221C77.3899 52.7809 75.6773 54.5118 74.0045 56.3117C72.6477 57.7043 71.2742 59.1132 71.2908 61.7901C71.3441 64.4504 72.7175 65.8397 74.0743 67.2521C75.787 68.9993 77.4464 70.6974 77.4797 74.1558C77.463 77.529 75.8568 79.1712 74.234 80.7608C72.8971 82.0811 71.5602 83.4541 71.4904 85.901C71.4205 88.3445 72.6876 89.5401 73.9147 90.6831C75.3247 92.0395 76.7148 93.3598 76.2691 96.3585C75.7504 99.3736 74.0211 101.21 72.3085 102.96C70.8652 104.53 69.4552 106.12 68.9398 108.455C68.3344 108.649 67.7292 108.849 67.0841 108.99C67.6561 105.762 69.4019 103.834 71.1511 101.942C72.5945 100.444 73.968 99.0156 74.3238 96.7329C74.6097 94.4305 73.4857 93.3598 72.3085 92.253C70.812 90.8243 69.2224 89.3627 69.3321 85.9929C69.3654 82.6001 71.0615 80.9415 72.7009 79.2632C74.0045 77.9593 75.358 76.675 75.3214 74.123C75.2682 71.5711 73.9313 70.1949 72.5579 68.8253C70.8286 67.0583 69.116 65.3438 69.0627 61.7573C69.0262 58.1345 70.7222 56.42 72.3982 54.6728C73.7884 53.2276 75.1419 51.8185 75.1618 49.1221C75.1784 46.4452 73.8615 45.0922 72.488 43.752C70.8819 42.0541 69.2091 40.3987 69.2956 36.9008C69.3654 33.4226 71.0615 31.7443 72.7375 30.1907C74.0045 28.9066 75.3247 27.6387 75.2516 25.2313C75.1618 22.86 73.7884 21.5199 72.4515 20.1634C70.7588 18.4325 69.0262 16.6491 68.7602 13.3285C68.4044 10.0277 69.7246 8.74353 70.9717 7.62026C71.9161 6.71047 72.774 5.87296 72.2021 3.65926C72.8073 3.87275 73.4159 4.08952 74.0211 4.31942H74.0178ZM79.189 6.39189C80.1501 9.01285 79.2588 9.85365 78.2778 10.816C77.4231 11.6535 76.5153 12.5304 76.8877 14.708C77.2269 16.9185 78.5472 18.2585 79.884 19.5952C81.4703 21.1815 83.0932 22.7877 83.3625 25.7699C83.5787 28.8375 82.1154 30.3024 80.6356 31.8033C79.3885 33.0514 78.1215 34.3357 78.1215 36.8351C78.0849 39.3871 79.4418 40.7074 80.742 42.0442C82.4014 43.7225 84.0941 45.4369 84.1308 49.0761C84.1839 52.7514 82.4712 54.5348 80.8318 56.3182C79.4584 57.7469 78.0883 59.1724 78.0683 61.8689C78.1049 64.5654 79.4418 65.9547 80.7785 67.3473C82.4014 69.0585 84.0077 70.7006 83.8979 74.1099C83.7716 77.414 82.1853 79.0365 80.5991 80.6229C79.3153 81.9268 77.9951 83.211 77.9053 85.566C77.7823 87.9012 78.9063 88.9719 79.9937 90.0262C81.2574 91.2743 82.4879 92.4697 81.9359 95.2352C81.2941 98.0007 79.618 99.6955 77.9219 101.39C76.5119 102.852 75.1385 104.369 74.4601 106.474C73.9081 106.688 73.3195 106.921 72.7141 107.118C73.4824 104.156 75.2117 102.3 76.9409 100.461C78.331 99.0879 79.7044 97.7313 80.1334 95.6622C80.5259 93.5044 79.5082 92.542 78.474 91.5568C77.1172 90.2561 75.6906 88.8963 75.8335 85.7038C75.9433 82.4556 77.5661 80.8166 79.169 79.227C80.4527 77.8902 81.7563 76.6225 81.8095 74.1427C81.8261 71.6269 80.579 70.2868 79.2223 68.914C77.5462 67.183 75.8702 65.4522 75.8535 61.8459C75.8335 58.187 77.5296 56.4398 79.2056 54.6728C80.579 53.2276 81.9691 51.7825 81.9359 49.0695C81.9159 46.3894 80.5624 45.0001 79.2056 43.6437C77.5827 41.9325 75.9233 40.2706 75.96 36.8285C75.9965 33.4226 77.5827 31.833 79.1524 30.3155C80.3662 29.0838 81.5401 27.9244 81.4171 25.6221C81.2542 23.3559 79.9538 22.0716 78.6536 20.7677C76.9942 19.0894 75.338 17.4144 74.9456 14.3073C74.4467 11.2594 75.6041 10.1854 76.6915 9.18693C77.4929 8.42166 78.2246 7.68924 77.5296 5.72516C78.0816 5.93865 78.637 6.15213 79.189 6.38532V6.39189ZM83.9312 8.58587C85.0187 10.908 84.307 11.5648 83.5022 12.3695C82.8038 13.0461 82.0223 13.8147 82.4846 15.8149C82.897 17.8512 84.1972 19.1518 85.4809 20.4163C87.0505 21.9895 88.6202 23.5759 89.0491 26.4136C89.405 29.3565 88.1048 30.6604 86.7312 32.0694C85.5906 33.2124 84.4301 34.4046 84.5031 36.8679C84.5929 39.3477 85.9298 40.7205 87.2667 42.0967C88.9427 43.8079 90.6887 45.542 90.8682 49.1253C90.9946 52.7842 89.2819 54.5151 87.6026 56.2985C86.2457 57.7469 84.8757 59.192 84.8391 61.9018C84.7493 64.5621 86.0895 65.9514 87.3532 67.3079C88.8663 68.9304 90.366 70.52 90.1166 73.857C89.8307 77.0692 88.2078 78.7081 86.6382 80.3141C85.3545 81.6016 84.0875 82.8859 83.9113 85.1324C83.695 87.31 84.6961 88.3085 85.6405 89.2543C86.7645 90.3612 87.7822 91.3794 87.1037 93.9674C86.3355 96.4833 84.7493 98.0894 83.1265 99.7316C81.7529 101.068 80.3828 102.481 79.6479 104.369C79.0958 104.602 78.5604 104.832 78.0251 105.065C78.9329 102.389 80.6123 100.658 82.3249 98.963C83.6451 97.6427 84.9654 96.3387 85.4643 94.4141C85.9432 92.4697 85.0884 91.6289 84.1972 90.7191C82.9668 89.5598 81.7164 88.3281 81.9857 85.313C82.1986 82.2092 83.7483 80.6032 85.3378 78.9971C86.6215 77.6932 87.9418 76.3893 88.0847 73.9654C88.2277 71.5021 87.0173 70.1981 85.7668 68.8976C84.1806 67.2192 82.5744 65.5245 82.6109 61.9018C82.6309 58.2068 84.3403 56.4398 86.0163 54.6564C87.3897 53.2111 88.7466 51.7825 88.6767 49.0893C88.5869 46.4288 87.1602 45.0199 85.8234 43.6469C84.1274 41.9161 82.4879 40.241 82.4347 36.8319C82.3649 33.4949 83.8447 31.9972 85.2714 30.552C86.3788 29.4287 87.4496 28.358 87.2168 26.1804C86.9475 24.039 85.6838 22.7548 84.4167 21.5034C82.8304 19.8974 81.2075 18.2913 80.7087 15.4568C80.1035 12.6191 81.0646 11.6929 81.9925 10.8357C82.6342 10.192 83.2395 9.62046 82.4546 7.87317C82.9369 8.10635 83.4356 8.33626 83.9345 8.58587H83.9312ZM88.1745 10.9408C89.405 12.9935 88.9062 13.5092 88.2643 14.1168C87.7123 14.6522 87.0704 15.2762 87.6391 17.1155C88.1579 19.0073 89.4216 20.2553 90.6554 21.5232C92.2051 23.1095 93.7747 24.6795 94.3833 27.376C94.9686 30.1776 93.8113 31.337 92.6174 32.5851C91.5832 33.659 90.5324 34.7626 90.7086 37.1537C90.9048 39.5809 92.2782 40.9571 93.7249 42.3463C95.4541 44.0936 97.2533 45.8443 97.5592 49.3225C97.7887 52.8565 96.0793 54.5512 94.4199 56.2821C93.063 57.6911 91.6896 59.1362 91.5499 61.8131C91.4435 64.4734 92.6208 65.774 93.8512 67.0418C95.3144 68.6118 96.6879 70.0372 96.2057 73.2855C95.7268 76.3893 94.0673 78.0676 92.4245 79.7098C91.1409 81.0302 89.8572 82.2979 89.5547 84.4557C89.232 86.5611 90.1066 87.4183 90.9115 88.2394C91.8559 89.1854 92.7106 90.0393 91.8725 92.4139C90.9647 94.7327 89.395 96.3027 87.8253 97.8759C86.5085 99.1601 85.1882 100.464 84.3668 102.159C83.8514 102.392 83.3692 102.642 82.887 102.875C83.9212 100.5 85.5607 98.8777 87.1835 97.2716C88.4672 96.0038 89.7508 94.736 90.3561 92.969C90.9447 91.1691 90.2331 90.4728 89.4815 89.724C88.4472 88.6894 87.3432 87.5825 87.7355 84.7087C88.0914 81.7659 89.6777 80.1401 91.264 78.534C92.6009 77.1972 93.921 75.8408 94.2403 73.5023C94.4897 71.1112 93.3857 69.9157 92.2449 68.7004C90.7286 67.0944 89.1788 65.4522 89.3551 61.8656C89.4615 58.1706 91.1576 56.4234 92.8336 54.676C94.1705 53.2505 95.5439 51.858 95.3643 49.2534C95.238 46.6292 93.7049 45.2202 92.3315 43.8276C90.6021 42.0803 88.9062 40.3495 88.6767 37.0321C88.4805 33.7839 89.7974 32.3913 91.1376 31.071C92.0987 30.0725 93.0464 29.1068 92.654 27.0212C92.2782 24.9685 90.9946 23.7008 89.7841 22.4527C88.2144 20.8663 86.6282 19.3127 85.9863 16.6885C85.2913 14.1202 86.0795 13.3154 86.7911 12.6389C87.2899 12.1396 87.7355 11.7127 86.8609 10.1591C87.27 10.4087 87.7355 10.6583 88.1812 10.9441L88.1745 10.9408ZM91.939 13.5289C93.2925 15.3846 92.9732 15.7262 92.5442 16.1367C92.1152 16.5473 91.6331 17.0301 92.3115 18.7051C92.97 20.4361 94.2203 21.7202 95.484 22.9683C97.0371 24.5744 98.6034 26.1804 99.4614 28.7488C100.283 31.442 99.3018 32.4242 98.2509 33.5145C97.3397 34.4605 96.3953 35.4589 96.7876 37.7448C97.1103 40.1162 98.6068 41.5089 100.053 42.9178C101.836 44.6849 103.798 46.4355 104.207 49.7165C104.546 53.0339 102.923 54.6071 101.231 56.2296C99.8404 57.6024 98.447 59.0148 98.2177 61.5995C98.0746 64.1515 99.1454 65.3832 100.25 66.5426C101.64 67.9549 102.89 69.2719 102.138 72.3429C101.427 75.358 99.6576 77.056 97.9849 78.7344C96.628 80.0744 95.3278 81.4276 94.8655 83.4803C94.4199 85.4609 95.1515 86.1932 95.8099 86.8535C96.5781 87.6548 97.2366 88.3182 96.1858 90.5647C95.0983 92.6898 93.5453 94.2236 92.0322 95.7574C90.7485 97.0055 89.4982 98.2898 88.5703 99.7907C88.0914 100.057 87.6824 100.326 87.2334 100.592C88.4273 98.4671 90.0169 96.9004 91.5832 95.3305C92.8136 94.0825 94.0441 92.8146 94.8123 91.2085C95.5439 89.5302 94.972 88.9784 94.3666 88.3346C93.512 87.4972 92.6008 86.5512 93.1528 83.8548C93.7049 81.0005 95.3112 79.3781 96.9706 77.6833C98.3273 76.3269 99.7508 74.954 100.233 72.7042C100.662 70.3854 99.6809 69.3311 98.61 68.1914C97.2001 66.7298 95.7568 65.196 96.0228 61.6981C96.2523 58.1116 97.9316 56.3971 99.6243 54.7023C100.978 53.3622 102.298 52.0616 102.032 49.5622C101.799 47.0825 100.25 45.6735 98.7497 44.2611C97.0039 42.5138 95.2013 40.7633 94.809 37.515C94.38 34.3389 95.5938 33.1073 96.7178 31.9643C97.5559 31.0906 98.3407 30.2531 97.8418 28.2365C97.2532 26.3118 95.9695 25.0244 94.7391 23.7402C93.1861 22.1505 91.6198 20.5806 90.815 18.1533C89.9604 15.782 90.5855 15.1941 91.1011 14.6916C91.4569 14.3336 91.7428 14.0479 90.7452 12.6749C91.1376 12.941 91.53 13.2465 91.9424 13.5289H91.939Z" fill="#E22E4D"/>
<path d="M139.321 37.842L140.21 42.2515L141.297 38.0371L147.539 17.1008H149.733L155.896 38.0371L156.963 42.2906L157.912 37.842L163.107 17.1008H165.597L158.227 45.5099H155.896L149.377 23.2861L148.646 20.4765L147.935 23.2861L141.258 45.5099H138.926L131.576 17.1008H134.066L139.321 37.842ZM182.547 45.5099C182.31 44.8465 182.158 43.8645 182.093 42.5637C181.263 43.6303 180.203 44.4563 178.912 45.0416C177.635 45.6141 176.278 45.9003 174.842 45.9003C172.787 45.9003 171.122 45.3343 169.844 44.2027C168.58 43.0709 167.948 41.6403 167.948 39.9102C167.948 37.8549 168.81 36.2289 170.535 35.0321C172.274 33.8354 174.691 33.2371 177.786 33.2371H182.073V30.8371C182.073 29.3283 181.599 28.1447 180.65 27.2861C179.715 26.4146 178.346 25.9788 176.541 25.9788C174.895 25.9788 173.531 26.3951 172.451 27.2276C171.371 28.0601 170.832 29.0615 170.832 30.2322L168.462 30.2128C168.462 28.5347 169.252 27.0844 170.832 25.8616C172.412 24.6259 174.355 24.0081 176.66 24.0081C179.044 24.0081 180.921 24.5999 182.29 25.7836C183.673 26.9543 184.385 28.5933 184.424 30.7005V40.6905C184.424 42.7327 184.641 44.2613 185.076 45.276V45.5099H182.547ZM175.118 43.832C176.7 43.832 178.109 43.4547 179.346 42.7003C180.597 41.9458 181.507 40.9377 182.073 39.6759V35.0321H177.845C175.488 35.0582 173.644 35.4874 172.313 36.3199C170.984 37.1394 170.318 38.2712 170.318 39.7151C170.318 40.8988 170.76 41.8809 171.642 42.6614C172.538 43.4418 173.697 43.832 175.118 43.832ZM200.624 26.3884C200.123 26.2974 199.59 26.2519 199.024 26.2519C197.548 26.2519 196.297 26.6616 195.27 27.4811C194.256 28.2876 193.531 29.4649 193.097 31.0129V45.5099H190.746V24.3983H193.057L193.097 27.7544C194.348 25.2569 196.357 24.0081 199.122 24.0081C199.781 24.0081 200.301 24.0927 200.684 24.2618L200.624 26.3884ZM221.566 35.1687C221.566 38.4597 220.827 41.0743 219.353 43.0124C217.877 44.9376 215.902 45.9003 213.425 45.9003C210.502 45.9003 208.263 44.8857 206.709 42.8565V53.6268H204.358V24.3983H206.55L206.669 27.3836C208.21 25.1333 210.442 24.0081 213.367 24.0081C215.921 24.0081 217.923 24.9641 219.372 26.8763C220.834 28.7884 221.566 31.442 221.566 34.8371V35.1687ZM219.194 34.7592C219.194 32.0665 218.634 29.9398 217.515 28.3788C216.396 26.8179 214.835 26.0373 212.833 26.0373C211.384 26.0373 210.14 26.3821 209.099 27.0715C208.059 27.7609 207.262 28.7624 206.709 30.0762V40.2028C207.275 41.4125 208.084 42.3361 209.139 42.9735C210.192 43.611 211.437 43.9295 212.872 43.9295C214.862 43.9295 216.409 43.1491 217.515 41.5882C218.634 40.0142 219.194 37.7378 219.194 34.7592ZM154.375 83.2717C154.045 86.2635 152.96 88.5527 151.115 90.1397C149.285 91.7267 146.841 92.5203 143.786 92.5203C141.652 92.5203 139.762 91.9934 138.116 90.9397C136.483 89.8861 135.218 88.3967 134.323 86.4715C133.428 84.5333 132.972 82.3221 132.96 79.8376V76.1498C132.96 73.6264 133.407 71.389 134.303 69.4378C135.199 67.4866 136.483 65.9843 138.156 64.9307C139.842 63.8641 141.777 63.3307 143.964 63.3307C147.046 63.3307 149.476 64.1567 151.254 65.8087C153.045 67.4478 154.086 69.7175 154.375 72.6183H151.926C151.32 67.7923 148.665 65.3794 143.964 65.3794C141.355 65.3794 139.275 66.342 137.721 68.2672C136.18 70.1922 135.409 72.8524 135.409 76.2474V79.7205C135.409 82.9984 136.16 85.6131 137.661 87.5643C139.176 89.5155 141.217 90.491 143.786 90.491C146.328 90.491 148.244 89.8926 149.535 88.6958C150.825 87.4861 151.622 85.6782 151.926 83.2717H154.375ZM173.222 92.1299C172.985 91.4665 172.834 90.4845 172.768 89.1837C171.938 90.2503 170.878 91.0764 169.588 91.6617C168.31 92.2342 166.953 92.5203 165.517 92.5203C163.462 92.5203 161.797 91.9545 160.519 90.8228C159.255 89.691 158.623 88.2603 158.623 86.5302C158.623 84.4749 159.485 82.849 161.21 81.6522C162.949 80.4555 165.366 79.8571 168.462 79.8571H172.748V77.4571C172.748 75.9482 172.274 74.7647 171.325 73.9061C170.39 73.0346 169.021 72.5987 167.216 72.5987C165.57 72.5987 164.206 73.015 163.128 73.8475C162.047 74.68 161.507 75.6815 161.507 76.8522L159.137 76.8329C159.137 75.1548 159.927 73.7044 161.507 72.4816C163.087 71.2458 165.03 70.628 167.335 70.628C169.719 70.628 171.596 71.2199 172.965 72.4036C174.348 73.5743 175.06 75.2134 175.099 77.3207V87.3107C175.099 89.3528 175.316 90.8813 175.751 91.896V92.1299H173.222ZM165.795 90.452C167.375 90.452 168.784 90.0748 170.022 89.3204C171.274 88.5659 172.182 87.5579 172.748 86.296V81.6522H168.52C166.163 81.6783 164.319 82.1075 162.988 82.94C161.659 83.7595 160.993 84.8911 160.993 86.335C160.993 87.5187 161.435 88.5009 162.317 89.2813C163.213 90.0618 164.372 90.452 165.795 90.452ZM198.609 81.7888C198.609 85.0798 197.872 87.6943 196.396 89.6324C194.921 91.5576 192.946 92.5203 190.47 92.5203C187.545 92.5203 185.306 91.5057 183.752 89.4765V100.247H181.401V71.0183H183.594L183.713 74.0035C185.254 71.7532 187.486 70.628 190.41 70.628C192.965 70.628 194.967 71.5841 196.416 73.4963C197.877 75.4083 198.609 78.0621 198.609 81.4572V81.7888ZM196.237 81.379C196.237 78.6864 195.678 76.5596 194.558 74.9986C193.439 73.4378 191.879 72.6573 189.876 72.6573C188.428 72.6573 187.183 73.0021 186.143 73.6915C185.102 74.3809 184.305 75.3825 183.752 76.6963V86.8229C184.319 88.0326 185.129 88.956 186.182 89.5934C187.236 90.2308 188.48 90.5495 189.916 90.5495C191.905 90.5495 193.452 89.769 194.558 88.2081C195.678 86.6341 196.237 84.3577 196.237 81.379ZM206.511 92.1299H204.141V71.0183H206.511V92.1299ZM203.726 64.9111C203.726 64.4689 203.87 64.0982 204.16 63.7991C204.45 63.4868 204.845 63.3307 205.345 63.3307C205.846 63.3307 206.241 63.4868 206.531 63.7991C206.834 64.0982 206.985 64.4689 206.985 64.9111C206.985 65.3534 206.834 65.724 206.531 66.0233C206.241 66.3224 205.846 66.4721 205.345 66.4721C204.845 66.4721 204.45 66.3224 204.16 66.0233C203.87 65.724 203.726 65.3534 203.726 64.9111ZM216.626 65.6136V71.0183H221.052V72.9305H216.626V86.9984C216.626 88.169 216.837 89.0407 217.259 89.613C217.693 90.1853 218.411 90.4716 219.412 90.4716C219.807 90.4716 220.446 90.4065 221.328 90.2765L221.427 92.1884C220.808 92.4097 219.965 92.5203 218.899 92.5203C217.278 92.5203 216.099 92.0583 215.362 91.1348C214.624 90.1983 214.256 88.826 214.256 87.018V72.9305H210.324V71.0183H214.256V65.6136H216.626ZM239.444 92.1299C239.207 91.4665 239.056 90.4845 238.99 89.1837C238.16 90.2503 237.1 91.0764 235.809 91.6617C234.532 92.2342 233.175 92.5203 231.739 92.5203C229.685 92.5203 228.019 91.9545 226.741 90.8228C225.477 89.691 224.845 88.2603 224.845 86.5302C224.845 84.4749 225.707 82.849 227.432 81.6522C229.171 80.4555 231.588 79.8571 234.683 79.8571H238.97V77.4571C238.97 75.9482 238.496 74.7647 237.547 73.9061C236.612 73.0346 235.243 72.5987 233.438 72.5987C231.792 72.5987 230.429 73.015 229.348 73.8475C228.268 74.68 227.729 75.6815 227.729 76.8522L225.359 76.8329C225.359 75.1548 226.149 73.7044 227.729 72.4816C229.309 71.2458 231.252 70.628 233.557 70.628C235.941 70.628 237.818 71.2199 239.187 72.4036C240.571 73.5743 241.282 75.2134 241.321 77.3207V87.3107C241.321 89.3528 241.538 90.8813 241.973 91.896V92.1299H239.444ZM232.015 90.452C233.597 90.452 235.006 90.0748 236.244 89.3204C237.494 88.5659 238.404 87.5579 238.97 86.296V81.6522H234.742C232.385 81.6783 230.541 82.1075 229.21 82.94C227.881 83.7595 227.215 84.8911 227.215 86.335C227.215 87.5187 227.657 88.5009 228.539 89.2813C229.435 90.0618 230.594 90.452 232.015 90.452ZM250.29 92.1299H247.92V62.1599H250.29V92.1299Z" fill="white"/>
</g>
<defs>
<clipPath id="clip0_2_16331">
<rect width="254" height="111" fill="white"/>
</clipPath>
</defs>
</svg>
