<svg width="1920" height="1080" viewBox="0 0 1920 1080" fill="none" xmlns="http://www.w3.org/2000/svg">
<g clip-path="url(#clip0_355_3638)">
<rect width="1920" height="1080" fill="#F4F6FA"/>
<g opacity="0.08">
<path d="M-994 1301.97C-926.832 1276.21 -873.723 1223.93 -819.052 1178.67C-690.965 1068.63 -615.988 1074.09 -459.003 1102.97C-371.528 1118.57 -280.929 1120.92 -193.457 1106.09C-127.849 1096.72 -62.2437 1080.34 4.14205 1084.24C87.7111 1088.14 161.908 1132.62 229.858 1177.89C289.213 1216.12 348.571 1255.14 411.834 1286.36C640.672 1397.96 746.11 1117.01 1066.33 1147.45C1128.81 1152.91 1189.73 1172.42 1246.74 1199.74C1295.95 1223.15 1342.81 1253.58 1392.01 1277.77C1560.71 1365.96 1645.06 1259.04 1777.83 1173.2C1809.08 1152.91 1844.24 1136.52 1878.6 1122.48C1935.61 1098.29 1995.73 1083.46 2057.44 1080.34C2121.5 1077.21 2184.73 1084.24 2248.79 1086.58C2298.79 1088.92 2349.55 1087.36 2399.52 1084.24C2448.73 1081.12 2497.94 1076.43 2547.15 1080.34C2621.33 1085.8 2683.83 1120.91 2738.49 1169.3C2768.95 1195.05 2797.06 1223.93 2828.31 1249.68C2853.31 1269.97 2879.84 1290.26 2910.33 1300.41" stroke="url(#paint0_linear_355_3638)" stroke-linecap="round" stroke-linejoin="round"/>
<path d="M-994 1271.53C-927.613 1244.22 -875.285 1191.16 -820.614 1145.89C-691.746 1035.86 -615.205 1048.34 -459.783 1076.44C-374.653 1091.26 -287.959 1092.04 -202.829 1077.22C-142.69 1067.85 -82.5519 1053.8 -22.4133 1055.37C69.7473 1056.15 148.63 1108.43 222.046 1158.38C275.155 1195.06 330.607 1228.61 388.404 1256.71C639.111 1379.23 721.119 1042.88 1106.94 1099.07C1167.08 1108.43 1225.66 1130.28 1278.77 1159.16C1333.44 1188.81 1384.2 1226.27 1439.65 1254.37C1577.11 1325.38 1663.81 1242.66 1773.93 1169.3C1809.08 1145.89 1846.55 1126.38 1884.85 1108.43C1934.03 1085.02 1986.37 1065.51 2041.04 1056.93C2119.91 1043.66 2199.58 1053.02 2279.25 1055.37C2327.66 1056.93 2376.11 1056.15 2423.73 1053.02C2471.38 1050.68 2519.04 1046.78 2565.9 1050.68C2633.83 1055.37 2694.74 1085.02 2747.09 1127.94C2802.52 1171.65 2848.62 1226.27 2911.09 1260.61" stroke="url(#paint1_linear_355_3638)" stroke-linecap="round" stroke-linejoin="round"/>
<path d="M-994 1241.1C-924.489 1209.88 -871.38 1151.35 -812.023 1104.53C-688.621 1002.3 -605.052 1024.93 -460.564 1049.12C-378.556 1063.17 -294.987 1062.39 -212.982 1048.34C-152.843 1038.98 -92.7047 1024.15 -31.7855 1027.27C58.0334 1030.39 134.572 1083.46 204.863 1133.4C252.507 1167.74 302.491 1198.96 355.601 1224.71C415.74 1255.15 481.345 1269.19 545.389 1243.44C594.592 1224.71 637.55 1194.28 680.505 1164.62C726.585 1133.4 774.227 1102.97 825.774 1082.68C897.629 1053.8 976.512 1044.44 1053.83 1047.56C1156.93 1049.9 1248.31 1081.12 1333.44 1138.08C1384.2 1170.08 1431.07 1208.32 1485.73 1233.29C1602.11 1289.48 1688.8 1217.69 1784.08 1156.82C1816.1 1135.74 1850.46 1118.58 1884.85 1100.63C1931.71 1075.65 1980.92 1052.24 2032.44 1038.2C2120.71 1013.22 2213.64 1022.59 2303.46 1024.93C2351.11 1026.49 2398.76 1025.71 2446.38 1023.37C2491.69 1021.81 2537.76 1017.91 2583.86 1021.81C2648.68 1025.71 2709.59 1052.24 2760.36 1092.04C2812.67 1131.06 2857.22 1180.23 2911.09 1216.9" stroke="url(#paint2_linear_355_3638)" stroke-linecap="round" stroke-linejoin="round"/>
<path d="M-994 1209.88C-925.27 1176.32 -872.942 1117.79 -813.585 1070.97C-690.965 970.297 -603.491 998.391 -462.125 1021.8C-380.12 1035.07 -295.77 1032.73 -214.543 1017.12C-152.063 1006.98 -88.0187 992.149 -23.9746 1000.73C52.5639 1010.88 117.389 1056.14 178.31 1099.84C229.077 1136.52 280.624 1173.2 338.418 1198.17C389.965 1223.14 450.104 1237.97 506.337 1220.02C557.103 1204.41 600.842 1172.42 643.016 1141.98C689.877 1107.64 736.738 1073.31 789.846 1049.12C853.11 1019.46 923.401 1007.76 993.692 1005.41C1128.81 1000.73 1239.71 1014.78 1352.96 1094.38C1405.29 1129.5 1453.71 1171.64 1509.95 1200.51C1614.6 1255.92 1694.27 1205.98 1784.87 1150.57C1816.1 1131.06 1848.9 1114.67 1880.94 1096.72C1921.55 1074.09 1962.93 1050.68 2005.89 1032.73C2104.3 989.026 2196.47 990.586 2301.11 994.489C2372.2 997.611 2444.04 995.269 2515.11 992.149C2612.76 988.247 2691.63 995.269 2773.65 1054.58C2822.83 1088.92 2865.02 1131.84 2911.88 1167.74" stroke="url(#paint3_linear_355_3638)" stroke-linecap="round" stroke-linejoin="round"/>
<path d="M-994 1177.89C-922.927 1140.43 -869.818 1077.21 -804.993 1029.61C-685.499 936.744 -586.308 977.325 -452.753 995.274C-364.498 1008.54 -274.681 998.394 -187.207 981.227C-130.974 971.083 -71.6159 962.498 -15.3828 975.765C51.0029 990.592 107.236 1031.17 161.127 1070.97C214.235 1110.77 268.127 1150.57 329.826 1174.76C382.157 1198.18 443.076 1209.1 497.745 1187.25C598.497 1147.45 669.569 1057.7 767.197 1012.44C857.796 967.18 961.67 967.96 1060.08 967.96C1195.98 967.96 1284.23 984.347 1394.36 1068.63C1436.53 1099.85 1476.36 1134.18 1520.88 1161.5C1615.38 1220.03 1688.02 1196.61 1779.39 1145.11C1807.53 1129.5 1837.19 1114.67 1865.3 1099.07C1895 1082.68 1923.87 1065.51 1952.78 1048.34C2070.71 979.665 2152.72 958.595 2289.4 963.278C2357.36 965.617 2426.08 967.18 2494.04 964.058C2561.97 962.498 2631.48 957.035 2697.88 976.545C2781.45 999.956 2845.48 1062.39 2911.09 1116.24" stroke="url(#paint4_linear_355_3638)" stroke-linecap="round" stroke-linejoin="round"/>
<path d="M-994 1145.11C-910.431 1097.5 -851.074 1016.34 -766.723 970.3C-669.096 914.892 -557.411 956.253 -454.317 967.958C-403.55 974.203 -351.223 974.983 -300.456 968.74C-247.346 963.275 -195.799 950.791 -142.691 943.766C59.5945 910.99 147.069 1081.9 313.426 1147.45C358.723 1166.18 410.273 1177.89 458.695 1164.62C507.9 1152.13 550.075 1120.92 589.906 1089.7C637.55 1051.46 684.411 1010.1 739.08 981.225C831.24 929.719 939.804 937.524 1041.34 936.744C1169.42 936.744 1273.3 927.379 1384.2 1005.42C1434.19 1039.76 1478.71 1081.12 1528.69 1116.23C1651.31 1204.42 1726.29 1160.72 1846.55 1102.19C2000.43 1024.15 2084 933.621 2271.44 933.621C2337.05 932.842 2402.66 936.744 2468.25 935.181C2531.51 935.181 2594.77 928.939 2658.04 935.181C2763.49 943.766 2834.56 996.835 2911.88 1063.17" stroke="url(#paint5_linear_355_3638)" stroke-linecap="round" stroke-linejoin="round"/>
<path d="M-994 1111.55C-901.059 1055.36 -834.672 953.908 -727.672 921.911C-637.855 896.937 -545.694 932.056 -455.878 940.641C-401.986 946.883 -346.537 946.103 -292.645 938.298C-237.193 931.276 -182.521 916.447 -126.288 912.547C51.7835 893.818 151.755 1067.84 304.054 1123.25C470.412 1189.58 550.856 1067.06 671.133 979.659C725.805 938.298 791.41 911.764 860.14 909.424C917.935 906.302 975.729 911.764 1033.53 911.764C1088.2 912.547 1142.87 907.864 1197.54 907.864C1342.03 904.742 1412.32 971.075 1516.2 1057.7C1609.14 1134.96 1677.87 1163.05 1794.24 1115.45C1856.71 1092.82 1915.3 1060.82 1971.53 1024.92C2056.65 970.295 2142.57 918.789 2245.68 909.424C2297.21 903.962 2349.55 906.302 2401.87 907.082C2449.52 907.864 2496.38 907.864 2544.01 906.302C2703.34 900.84 2781.45 904.742 2910.33 1010.88" stroke="url(#paint6_linear_355_3638)" stroke-linecap="round" stroke-linejoin="round"/>
<path d="M-994 1077.21C-896.373 1014 -822.176 898.505 -697.993 885.238C-616.769 877.433 -537.105 906.307 -455.878 912.552C-398.084 918.794 -340.287 915.672 -283.273 906.307C-227.821 897.722 -173.149 883.675 -116.916 882.115C52.5641 875.873 147.85 1046 296.243 1096.72C464.162 1159.16 544.609 1028.83 664.102 941.426C721.899 897.722 788.285 875.873 860.921 879.776C905.437 881.335 949.176 886.798 993.692 889.14C1035.87 891.48 1078.83 891.48 1121 887.578C1231.12 878.993 1321.72 860.264 1420.13 926.599C1519.32 988.249 1602.11 1113.11 1728.63 1109.21C1758.32 1108.43 1787.99 1100.63 1816.1 1092.04C1862.96 1077.99 1907.5 1056.92 1948.87 1031.95C2036.35 979.665 2118.36 913.332 2219.12 889.14C2303.46 868.068 2390.93 876.653 2476.84 876.653C2522.15 877.433 2567.45 875.873 2611.97 874.311C2732.24 870.411 2811.91 882.895 2911.09 957.033" stroke="url(#paint7_linear_355_3638)" stroke-linecap="round" stroke-linejoin="round"/>
<path d="M-994 1042.1C-897.154 974.982 -818.271 857.144 -689.402 855.581C-611.302 854.022 -535.541 880.556 -457.439 886.018C-399.645 891.48 -341.067 887.578 -284.834 877.433C-229.382 868.069 -174.71 853.242 -118.477 853.242C47.878 851.682 139.258 1021.81 286.871 1070.19C392.31 1106.09 462.601 1072.53 542.264 1002.3C604.745 949.231 663.322 883.676 744.549 860.264C831.241 835.292 919.496 866.509 1006.97 871.191C1062.42 875.093 1117.88 871.191 1172.55 863.386C1226.44 856.364 1281.11 844.657 1335.78 852.462C1393.58 859.484 1445.12 891.48 1489.64 928.159C1556.81 981.225 1616.95 1052.24 1702.86 1075.65C1773.14 1093.6 1861.4 1068.63 1924.67 1038.2C2011.37 995.272 2084.79 929.719 2172.26 889.141C2215.22 868.849 2261.29 856.364 2308.94 851.682C2367.51 845.437 2426.08 849.339 2484.65 849.339C2529.95 850.119 2574.47 849.339 2619.77 847.779C2729.11 844.657 2815.81 846.997 2911.09 909.43" stroke="url(#paint8_linear_355_3638)" stroke-linecap="round" stroke-linejoin="round"/>
<path d="M-994 1005.42C-897.154 933.621 -814.366 817.343 -680.029 826.708C-605.052 830.61 -533.2 854.022 -458.222 859.484C-400.425 864.166 -341.848 859.484 -285.615 849.339C-230.946 839.975 -175.493 824.368 -119.26 825.928C46.3168 829.05 136.133 1002.3 286.09 1046.78C393.87 1079.56 464.162 1036.63 541.484 965.618C602.403 911.77 661.761 846.217 744.549 828.267C832.804 811.101 919.496 848.559 1006.97 854.802C1057.74 860.264 1109.28 857.144 1160.05 849.339C1210.82 841.534 1260.8 827.487 1312.35 822.805C1523.22 799.393 1598.98 1070.97 1807.53 1053.8C1894.21 1049.9 1969.97 1010.88 2039.48 962.495C2198.82 851.679 2261.29 812.661 2462 820.465C2516.69 822.025 2570.56 822.025 2625.23 820.465C2725.99 817.343 2820.51 813.44 2911.88 863.386" stroke="url(#paint9_linear_355_3638)" stroke-linecap="round" stroke-linejoin="round"/>
<path d="M-994 967.957C-897.935 892.257 -817.49 785.343 -681.593 799.39C-610.519 805.635 -541.008 827.484 -469.156 832.949C-411.359 838.412 -352.784 833.729 -295.77 822.802C-237.973 812.657 -179.396 795.488 -120.041 797.05C42.4113 803.293 129.886 974.199 277.499 1017.9C385.279 1050.68 456.351 1008.54 533.673 935.961C594.592 881.333 653.169 813.437 736.738 797.05C782.819 788.466 829.68 798.61 874.199 809.535C915.59 819.682 956.984 830.607 999.942 836.849C1053.05 844.654 1106.94 843.094 1160.05 832.949C1209.26 824.365 1256.9 809.535 1306.1 799.39C1358.43 788.466 1413.88 789.245 1462.3 814.22C1575.55 870.408 1647.41 996.831 1777.07 1021.02C1858.29 1035.85 1941.86 1014 2011.37 971.077C2113.66 909.427 2205.07 820.462 2326.9 799.39C2416.72 783.003 2508.86 794.708 2599.47 792.368C2703.34 792.368 2812.67 777.541 2911.09 820.462" stroke="url(#paint10_linear_355_3638)" stroke-linecap="round" stroke-linejoin="round"/>
<path d="M-994 928.933C-898.716 850.113 -819.833 752.564 -683.154 771.293C-612.083 779.098 -542.572 800.95 -470.717 805.632C-412.922 810.315 -354.345 804.852 -297.331 793.925C-239.535 783.001 -180.96 765.831 -120.821 768.173C41.6307 777.538 126.761 950.005 276.718 991.366C381.373 1020.24 450.884 978.099 525.081 908.644C586 854.015 644.577 783 728.927 768.173C775.788 760.369 822.649 772.856 867.168 785.34C910.904 798.607 954.643 811.874 999.942 819.679C1114.75 839.969 1204.57 809.535 1312.35 778.318C1497.45 722.13 1562.28 850.893 1695.05 943.763C1783.29 1007.75 1905.92 1014.78 2002.78 964.832C2106.65 912.546 2188.66 822.799 2300.34 784.56C2387.02 753.344 2480.75 762.709 2571.36 763.491C2623.68 764.271 2676.79 762.709 2729.11 761.149C2790.81 759.589 2853.31 761.149 2911.88 780.658" stroke="url(#paint11_linear_355_3638)" stroke-linecap="round" stroke-linejoin="round"/>
<path d="M-994 889.138C-897.935 807.978 -822.176 721.353 -683.935 742.422C-615.988 751.007 -549.6 771.299 -481.653 775.981C-423.856 781.444 -364.498 775.981 -307.484 764.274C-248.907 753.35 -190.332 735.4 -130.974 737.74C32.2586 744.765 117.389 920.354 268.127 961.715C372.782 990.589 443.857 947.668 517.273 877.433C579.753 821.242 639.892 744.765 728.927 735.4C774.227 731.498 817.963 745.545 860.14 760.372C906.218 776.761 952.298 793.148 999.942 802.513C1119.44 826.707 1213.94 793.931 1324.85 754.91C1499.01 690.917 1560.71 783.784 1684.89 882.895C1719.26 910.209 1756.74 934.401 1798.14 949.228C1863.75 970.3 1937.17 974.982 2001.98 948.448C2109.76 903.964 2189.43 812.66 2295.65 765.837C2383.12 725.255 2480.75 729.938 2575.26 732.278C2629.93 733.84 2683.83 732.278 2738.49 730.718C2796.27 729.158 2854.87 729.158 2911.09 742.422" stroke="url(#paint12_linear_355_3638)" stroke-linecap="round" stroke-linejoin="round"/>
<path d="M-994 850.122C-897.154 767.4 -822.957 692.482 -685.499 714.334C-617.549 723.699 -551.163 743.208 -482.433 747.111C-424.636 751.013 -365.281 745.551 -308.265 733.843C-250.471 722.919 -191.113 705.75 -131.755 710.432C27.5724 724.479 110.361 895.386 259.535 935.184C324.36 953.134 392.309 940.649 446.198 900.068C528.986 843.88 593.031 738.526 691.438 711.212C757.044 694.825 821.868 727.601 881.226 751.013C1066.33 829.053 1170.98 806.421 1349.06 731.504C1523.22 658.146 1584.93 752.573 1712.23 851.682C1755.97 886.021 1805.18 914.115 1859.05 926.602C1909.05 940.649 1962.16 944.549 2012.14 928.162C2110.55 895.386 2183.97 815.786 2272.23 764.28C2367.51 704.97 2454.19 700.287 2563.55 703.41C2621.33 704.97 2679.13 704.97 2737.7 703.41C2795.51 701.847 2854.87 699.507 2911.88 709.652" stroke="url(#paint13_linear_355_3638)" stroke-linecap="round" stroke-linejoin="round"/>
<path d="M-994 811.875C-896.373 729.153 -822.957 664.38 -687.06 686.232C-623.016 695.596 -558.972 711.983 -494.147 715.886C-435.572 719.788 -376.995 714.326 -319.981 703.401C-264.529 693.254 -208.296 678.427 -152.063 681.549C12.7337 691.694 96.3027 869.623 249.382 908.644C314.988 925.031 383.718 910.204 436.826 869.623C516.489 814.218 580.534 709.643 675.039 683.889C753.138 665.16 824.993 715.106 894.504 743.2C1062.42 819.68 1187.39 798.608 1348.28 720.568C1514.63 639.408 1569.3 680.77 1701.3 790.803C1751.28 832.947 1805.94 869.623 1868.44 889.915C1915.3 907.084 1966.07 918.789 2016.04 907.864C2073.05 896.157 2123.05 861.821 2169.12 828.264C2265.98 754.907 2348.76 687.012 2476.08 678.427C2548.7 672.965 2622.12 679.207 2694.74 677.647C2766.61 677.647 2838.47 671.405 2909.54 679.99" stroke="url(#paint14_linear_355_3638)" stroke-linecap="round" stroke-linejoin="round"/>
<path d="M-994 773.636C-901.059 695.597 -826.081 637.849 -698.774 655.798C-633.949 663.6 -570.688 679.21 -505.083 683.112C-446.506 687.012 -387.928 681.549 -330.134 671.405C-274.682 662.04 -218.448 647.993 -161.435 652.676C2.58093 665.943 86.15 845.431 240.791 881.33C306.396 895.377 375.907 877.428 428.234 836.069C505.556 781.441 573.506 672.185 667.228 651.896C722.68 640.968 775.008 668.282 822.649 692.477C862.482 712.766 901.532 734.618 943.707 750.225C1083.51 804.853 1213.16 780.661 1342.81 712.766C1488.08 637.069 1550.56 611.314 1687.24 722.131C1722.38 750.225 1757.53 779.099 1795.79 803.29C1820.79 819.68 1848.14 832.167 1875.46 844.651C1921.55 865.723 1970.74 885.233 2022.29 880.55C2069.94 876.648 2113.66 854.799 2152.72 828.265C2225.37 779.879 2289.4 718.228 2369.07 680.77C2459.68 637.069 2561.97 644.091 2659.62 644.871C2743.19 647.213 2827.52 639.408 2911.09 645.651" stroke="url(#paint15_linear_355_3638)" stroke-linecap="round" stroke-linejoin="round"/>
<path d="M-994 735.403C-791.716 566.838 -735.483 633.954 -506.644 650.341C-448.067 653.463 -389.492 647.218 -331.695 637.074C-273.12 627.709 -212.201 615.225 -153.624 626.929C-1.3246 656.583 79.9 823.587 231.419 854.024C298.588 865.731 367.315 843.879 419.646 801.738C458.695 771.302 493.059 733.843 528.987 699.507C571.942 658.145 625.053 612.882 689.097 620.687C760.169 630.831 817.182 678.435 879.665 709.651C985.101 767.399 1106.16 787.691 1223.31 754.135C1273.3 740.085 1320.94 717.456 1367.02 692.482C1407.63 670.63 1448.25 645.658 1492.76 630.051C1607.58 586.348 1690.36 674.532 1776.28 736.185C1810.64 761.937 1848.9 781.446 1885.61 801.738C1929.36 825.93 1976.22 850.121 2026.98 852.464C2076.96 855.584 2124.61 834.515 2166.01 807.981C2212.87 777.547 2255.83 740.868 2301.11 708.091C2395.62 637.853 2474.5 614.442 2592.43 616.004C2645.54 616.004 2698.65 617.564 2751.76 616.784C2804.87 616.004 2857.98 613.662 2910.33 616.784" stroke="url(#paint16_linear_355_3638)" stroke-linecap="round" stroke-linejoin="round"/>
<path d="M-994 698.724C-797.964 540.304 -727.672 605.857 -508.205 616.782C-452.753 618.344 -397.3 612.879 -342.631 604.295C-280.929 594.93 -215.323 584.785 -154.404 602.735C-10.6967 641.756 75.214 805.638 222.827 826.707C290.777 834.512 359.507 809.541 411.054 766.62C482.126 713.551 553.981 602.735 643.797 591.81C689.877 587.128 732.833 609.76 771.102 632.391C821.088 662.045 868.729 695.602 922.621 719.793C1002.28 756.472 1092.1 768.179 1178.79 754.912C1238.93 746.328 1295.95 724.476 1349.06 695.602C1416.22 661.265 1476.36 611.319 1550.56 592.59C1595.86 581.666 1643.5 594.15 1683.33 617.562C1723.17 640.194 1759.87 669.07 1798.14 695.602C1825.49 714.331 1854.39 729.941 1882.5 747.887C1928.57 775.984 1974.66 807.978 2028.54 819.685C2119.15 840.757 2198.03 777.544 2265.19 725.258C2426.08 596.492 2489.34 581.666 2693.98 586.348C2766.61 587.908 2839.23 584.005 2911.09 585.565" stroke="url(#paint17_linear_355_3638)" stroke-linecap="round" stroke-linejoin="round"/>
<path d="M-994 662.826C-792.497 505.966 -701.899 586.346 -479.308 582.446C-368.403 582.446 -252.032 540.305 -145.032 584.006C-14.6024 633.952 79.9 793.931 222.827 799.394C285.31 800.176 347.01 775.982 395.432 736.964C432.14 708.09 464.942 673.75 497.745 641.754C537.578 603.515 585.219 559.814 644.577 562.154C710.183 566.837 762.51 612.88 816.402 647.219C923.401 722.137 1035.09 758.815 1167.08 745.548C1240.5 738.523 1310.79 712.772 1374.83 676.093C1419.35 651.119 1461.52 620.685 1506.04 595.711C1616.16 531.72 1682.55 562.154 1780.18 628.49C1817.68 654.241 1857.5 676.093 1895 701.844C1937.17 729.939 1978.57 762.715 2026.19 781.447C2130.86 825.928 2217.54 753.35 2295.65 691.7C2352.66 646.436 2412.02 601.176 2481.54 578.544C2560.41 552.01 2644.77 557.472 2725.99 557.472C2787.7 558.252 2850.17 555.912 2911.88 556.692" stroke="url(#paint18_linear_355_3638)" stroke-linecap="round" stroke-linejoin="round"/>
<path d="M-994 628.489C-790.154 477.092 -684.715 559.814 -461.344 547.327C-394.178 544.207 -326.228 531.72 -259.062 535.623C-216.887 537.962 -173.929 550.45 -136.441 569.959C-20.8495 626.927 77.5583 775.202 213.455 770.52C276.718 766.62 337.638 740.086 386.06 700.284C452.448 650.339 522.739 548.107 605.528 534.06C755.483 518.453 836.707 759.595 1166.3 731.501C1306.88 720.576 1392.79 660.486 1505.26 584.786C1566.96 544.207 1632.57 512.991 1706.76 541.085C1739.57 552.789 1770.82 571.519 1800.49 589.468C1823.14 603.515 1847.35 616.782 1870.79 631.609C1919.97 662.826 1962.93 701.847 2012.93 732.281C2126.16 804.078 2206.62 750.23 2299.55 676.873C2362.82 626.927 2426.08 574.641 2503.4 549.67C2579.16 524.695 2660.38 527.818 2738.49 527.818C2796.27 528.598 2853.29 527.038 2911.09 527.818" stroke="url(#paint19_linear_355_3638)" stroke-linecap="round" stroke-linejoin="round"/>
<path d="M-994 594.933C-865.913 507.528 -783.125 498.944 -633.169 510.648C-586.308 513.771 -538.666 515.331 -491.805 513.771C-443.381 512.211 -394.178 507.528 -345.753 505.966C-273.12 502.066 -198.924 515.331 -136.441 554.352C-26.3189 616.002 75.9971 760.375 213.455 739.306C273.593 729.158 331.39 701.064 378.251 662.046C440.731 613.662 504.775 523.135 582.878 505.966C657.075 492.702 717.213 552.009 772.666 591.811C819.527 627.709 868.729 661.266 924.182 683.118C1003.06 714.332 1089.76 720.577 1174.11 715.112C1446.68 699.505 1536.5 484.897 1697.39 502.066C1740.36 507.528 1779.39 528.598 1817.68 548.89C1841.1 561.374 1865.3 573.861 1887.17 589.468C1918.42 610.54 1948.11 635.512 1977.78 658.923C2030.89 701.065 2093.36 748.671 2165.22 735.404C2221.44 725.259 2268.33 688.58 2312.84 655.021C2405.77 580.883 2485.44 516.113 2608.83 503.626C2659.62 498.164 2711.15 498.944 2761.91 498.944C2811.91 498.944 2862.67 498.164 2912.65 498.944" stroke="url(#paint20_linear_355_3638)" stroke-linecap="round" stroke-linejoin="round"/>
<path d="M-994 562.157C-853.417 471.63 -763.599 473.192 -604.271 480.214C-512.111 484.897 -419.95 473.972 -327.79 477.092C-259.843 479.434 -193.457 502.846 -137.221 540.305C-32.5661 604.298 68.1861 738.526 203.302 708.089C260.316 694.042 314.207 665.948 360.287 630.049C422.768 583.226 482.906 499.724 557.884 477.875C638.33 458.362 704.716 530.16 764.074 573.861C812.496 612.103 864.043 647.219 922.621 668.291C1004.63 697.165 1092.88 700.287 1178.79 695.605C1314.69 688.58 1403.73 643.316 1510.73 562.937C1562.28 526.258 1615.38 483.337 1680.21 473.192C1727.85 465.387 1774.72 482.557 1816.89 502.066C1845.79 515.333 1875.46 529.38 1901.25 548.11C1944.21 577.764 1982.47 614.442 2023.08 646.439C2055.1 671.41 2089.46 695.605 2130.07 704.969C2225.37 725.259 2305.8 642.536 2376.11 590.251C2429.22 548.89 2485.44 509.871 2551.05 490.359C2612.76 471.63 2677.58 470.07 2741.61 469.29C2798.62 469.29 2854.87 468.51 2911.88 469.29" stroke="url(#paint21_linear_355_3638)" stroke-linecap="round" stroke-linejoin="round"/>
<path d="M-994 530.16C-856.541 446.658 -760.475 444.316 -605.052 448.218C-516.016 450.561 -426.2 441.976 -337.945 449.781C-265.309 456.023 -196.579 485.677 -137.221 527.818C-36.4717 594.933 68.9667 719.797 203.302 672.973C260.316 652.681 314.207 622.247 360.287 584.006C417.301 538.745 471.192 468.51 543.045 448.218C624.272 429.489 691.438 505.186 750.016 549.67C798.438 589.471 850.765 625.367 909.343 646.439C997.598 676.873 1093.66 676.873 1186.61 673.753C1302.98 669.071 1394.36 640.197 1488.86 571.521C1531.03 541.865 1571.65 508.308 1615.38 480.994C1663.81 449.781 1720.82 433.391 1777.83 447.438C1818.44 457.583 1858.29 472.41 1894.21 493.482C1961.37 533.28 2012.14 594.153 2075.4 639.414C2199.58 731.501 2289.4 644.879 2389.37 566.839C2451.84 516.893 2520.59 470.85 2600.26 454.463C2652.58 442.756 2707.24 441.196 2761.15 440.413C2811.12 439.633 2861.88 439.633 2911.88 440.413" stroke="url(#paint22_linear_355_3638)" stroke-linecap="round" stroke-linejoin="round"/>
<path d="M-994 499.718C-851.074 417.776 -744.855 416.996 -586.308 418.556C-481.653 420.119 -372.309 409.191 -271.557 444.31C-197.36 470.062 -134.879 520.008 -72.3965 566.831C11.1725 630.044 96.3027 684.672 201.741 637.069C251.724 614.437 299.368 585.56 342.324 552.004C388.404 516.105 429.018 471.624 478.22 439.628C634.425 338.956 720.336 592.585 936.679 636.286C1022.59 654.236 1111.63 651.896 1198.32 649.553C1277.2 647.214 1357.65 634.726 1427.94 596.488C1482.61 568.394 1531.03 529.372 1580.24 492.694C1627.88 457.577 1679.43 420.119 1740.36 413.874C1793.44 409.191 1852.04 426.361 1898.9 450.552C1946.53 477.087 1986.37 515.325 2026.19 552.004C2076.19 597.268 2132.41 652.676 2205.07 650.333C2280.8 645.651 2342.51 586.343 2400.32 542.639C2461.23 494.256 2526.84 448.993 2603.37 429.483C2655.69 415.436 2710.38 413.094 2763.49 411.534C2812.68 410.754 2861.12 410.754 2910.33 410.754" stroke="url(#paint23_linear_355_3638)" stroke-linecap="round" stroke-linejoin="round"/>
<path d="M-994 470.067C-931.518 437.291 -864.351 411.539 -794.059 400.612C-692.527 385.785 -589.433 388.908 -487.119 389.688C-417.609 391.247 -346.534 397.492 -281.712 424.024C-201.265 455.24 -134.099 512.208 -63.8076 561.374C22.8864 623.025 101.769 651.119 200.958 597.273C253.288 568.399 304.054 536.403 350.135 498.944C396.215 462.265 438.39 416.222 493.842 393.59C631.3 342.084 723.461 574.641 922.621 610.54C971.826 620.685 1023.37 622.245 1074.14 623.025C1120.22 623.025 1166.3 623.025 1212.38 622.245C1281.89 620.685 1352.96 613.66 1417.01 586.346C1479.49 559.814 1533.38 517.673 1586.49 476.312C1631.01 442.753 1676.3 406.857 1730.19 391.247C1789.54 374.861 1855.15 386.565 1909.05 413.099C1966.83 442.753 2011.37 491.139 2058.23 534.84C2094.94 568.399 2134.76 604.295 2183.97 616.783C2276.9 638.634 2362.05 552.01 2431.54 501.284C2483.88 460.703 2540.11 424.024 2604.16 404.515C2657.27 388.128 2712.7 383.445 2768.16 381.883C2815.81 380.323 2863.47 380.323 2910.33 381.103" stroke="url(#paint24_linear_355_3638)" stroke-linecap="round" stroke-linejoin="round"/>
<path d="M-994 441.193C-933.861 412.319 -871.38 388.127 -805.774 376.42C-704.243 358.471 -601.146 360.033 -498.833 363.153C-425.417 366.275 -350.439 377.983 -282.493 409.196C-224.696 435.731 -172.368 473.189 -120.041 509.868C-77.0826 539.522 -32.566 570.739 17.4198 587.128C83.8056 609.76 150.975 587.128 207.988 551.229C265.002 514.55 321.235 477.092 372.785 432.608C452.448 366.275 515.709 321.792 610.994 393.589C664.103 432.608 709.402 481.774 763.294 520.013C838.271 576.201 920.279 594.15 1012.44 594.15C1082.73 594.93 1153.8 593.37 1224.09 594.15C1295.17 594.15 1368.58 588.688 1434.19 560.594C1494.33 534.84 1546.65 494.261 1597.42 454.46C1641.94 420.124 1687.24 384.225 1741.12 365.495C1798.93 345.986 1864.54 352.228 1919.97 377.983C1981.68 408.416 2027.78 461.485 2077.75 508.308C2109 537.182 2141.8 566.836 2181.62 582.446C2332.36 640.974 2444.83 411.539 2652.58 369.398C2737.7 350.668 2825.17 353.008 2911.09 353.788" stroke="url(#paint25_linear_355_3638)" stroke-linecap="round" stroke-linejoin="round"/>
<path d="M-994 413.882C-933.861 387.348 -871.38 364.716 -806.555 353.011C-705.804 335.062 -601.146 333.502 -498.833 340.524C-391.053 347.549 -294.206 381.885 -205.171 441.976C-155.185 473.972 -107.543 509.871 -55.2159 537.185C52.5641 594.933 132.23 562.937 224.391 496.604C265.782 466.95 308.74 438.853 348.571 406.86C399.337 368.618 456.354 314.773 525.081 328.82C584.439 342.867 628.958 390.47 673.475 428.709C728.147 477.875 786.724 527.038 858.577 548.11C924.182 567.619 992.912 564.499 1060.86 562.937C1121.78 561.377 1183.48 562.157 1244.4 562.937C1317.04 564.499 1392.01 559.817 1459.18 528.601C1520.88 500.507 1573.99 456.803 1627.1 415.442C1670.84 381.885 1716.14 347.549 1769.24 331.159C1822.35 315.553 1880.94 318.675 1931.71 341.304C1990.28 368.618 2034 417.784 2080.1 462.268C2128.51 509.871 2185.53 566.839 2258.94 559.817C2330.8 551.232 2389.37 496.604 2445.62 455.243C2499.5 413.882 2556.51 374.083 2620.56 352.231C2713.49 320.235 2814.26 321.795 2911.09 322.575" stroke="url(#paint26_linear_355_3638)" stroke-linecap="round" stroke-linejoin="round"/>
<path d="M-994 387.345C-872.161 334.279 -743.293 311.648 -611.302 313.207C-483.214 312.428 -364.498 335.059 -254.376 402.172C-164.557 451.338 -72.3965 537.18 33.8197 537.96C94.7415 537.18 149.411 504.403 197.835 470.847C239.23 441.193 280.624 410.757 322.799 381.883C372.001 347.544 421.207 299.94 484.47 297.601C564.914 297.601 630.519 379.54 688.314 427.146C732.052 465.385 780.474 501.284 836.707 519.23C915.59 544.984 999.159 533.277 1080.39 531.718C1141.31 529.378 1202.22 532.497 1263.14 534.06C1342.03 537.96 1424.03 530.938 1494.33 491.919C1552.9 461.482 1602.89 417.781 1654.44 377.98C1698.17 344.424 1745.82 311.648 1800.49 299.16C1848.9 289.016 1901.25 290.576 1945.76 311.648C2000.43 337.399 2041.83 383.442 2084 425.584C2132.41 473.187 2185.53 530.938 2258.15 531.718C2326.11 530.158 2381.57 483.334 2433.89 445.093C2486.23 405.294 2539.34 364.713 2600.26 338.179C2697.09 295.258 2806.43 294.478 2910.33 295.258" stroke="url(#paint27_linear_355_3638)" stroke-linecap="round" stroke-linejoin="round"/>
<path d="M-994 362.367C-882.314 317.887 -762.818 292.912 -642.541 292.912C-547.258 292.132 -450.411 303.057 -361.376 338.956C-303.579 361.588 -249.69 394.364 -196.579 426.36C-148.938 454.454 -100.513 484.891 -47.405 500.498C49.4417 530.152 131.447 477.086 205.644 420.898C254.068 383.439 304.835 349.883 354.821 315.544C427.454 264.818 487.592 246.089 564.133 302.277C653.169 367.83 725.022 466.162 836.707 495.036C918.715 516.887 1003.85 501.278 1087.41 498.938C1154.58 495.816 1221.75 501.278 1288.92 504.4C1375.61 509.863 1455.28 498.158 1530.25 451.332C1616.95 399.826 1685.67 320.226 1780.18 281.208C1835.64 260.136 1901.25 254.674 1956.68 280.428C2009.79 305.399 2049.64 349.1 2090.25 390.462C2138.66 438.848 2190.98 498.938 2264.4 502.84C2333.15 504.4 2390.16 457.577 2443.27 419.338C2494.8 381.097 2547.15 341.298 2605.72 314.764C2700.99 270.281 2808.01 267.161 2911.88 267.941" stroke="url(#paint28_linear_355_3638)" stroke-linecap="round" stroke-linejoin="round"/>
<path d="M-994 338.176C-780.001 260.916 -530.855 241.407 -322.323 345.198C-220.01 391.242 -109.105 487.231 6.48639 477.866C83.0249 470.842 145.508 420.898 204.863 376.415C257.193 335.834 313.426 298.375 370.44 264.039C465.726 207.071 528.986 246.869 603.183 313.202C663.322 367.05 722.68 428.701 800.002 457.577C881.226 488.011 969.481 471.624 1053.83 466.942C1138.18 459.917 1223.31 467.722 1307.66 473.964C1401.38 480.206 1480.27 463.819 1559.15 410.751C1633.35 363.148 1695.05 296.815 1775.49 258.576C1836.4 231.262 1910.61 221.118 1972.32 251.552C2066.8 299.938 2119.15 402.949 2211.29 454.455C2311.26 510.643 2406.57 421.678 2485.44 366.27C2544.01 323.349 2606.51 284.328 2676.79 264.039C2752.55 241.407 2832.98 238.285 2911.88 239.064" stroke="url(#paint29_linear_355_3638)" stroke-linecap="round" stroke-linejoin="round"/>
<path d="M-994 315.55C-855.76 270.289 -708.146 245.315 -562.877 263.264C-472.28 273.409 -384.806 303.845 -303.579 345.206C-204.39 392.81 -101.296 470.069 14.2948 445.095C86.9305 428.708 145.508 378.763 204.083 335.062C258.755 293.701 316.549 255.462 378.251 224.245C453.229 188.347 513.367 217.221 571.161 267.166C618.022 306.968 660.197 351.448 710.183 387.347C767.196 430.268 836.707 450.56 907.782 447.438C978.854 445.095 1049.14 432.611 1121 432.611C1192.07 431.048 1262.36 441.975 1332.65 445.878C1431.07 452.12 1508.38 427.149 1588.05 368.618C1653.66 322.575 1712.23 264.044 1786.43 229.708C1847.35 203.174 1921.55 191.469 1982.47 223.465C2076.19 273.409 2127.72 375.64 2220.68 426.366C2318.3 480.214 2412.82 395.932 2489.34 342.084C2547.91 299.943 2610.41 260.144 2679.93 239.072C2754.9 216.441 2832.98 211.758 2911.09 212.538" stroke="url(#paint30_linear_355_3638)" stroke-linecap="round" stroke-linejoin="round"/>
<path d="M-994 293.701C-782.344 231.268 -568.344 214.881 -362.937 306.968C-310.609 328.817 -259.843 356.131 -207.515 379.543C-160.652 400.615 -110.668 419.344 -58.3382 420.124C33.0391 422.467 108.8 364.716 177.527 311.65C217.36 280.434 258.755 249.997 303.274 225.806C329.826 210.979 356.382 195.372 385.279 185.225C457.134 159.473 518.834 199.271 570.381 245.315C616.461 285.116 659.416 329.6 709.402 363.936C767.196 404.517 836.707 421.684 907.001 416.222C982.759 411.539 1057.74 397.492 1133.49 399.055C1208.47 399.055 1281.89 413.102 1356.87 415.442C1452.93 420.124 1529.47 387.348 1604.45 330.38C1666.93 284.336 1724.73 228.928 1796.58 197.712C1857.5 171.96 1931.71 161.033 1991.83 194.589C2082.44 245.315 2133.97 345.207 2224.58 395.152C2321.41 449.781 2415.93 368.618 2493.25 315.553C2551.82 273.409 2614.31 234.39 2683.83 213.321C2757.24 190.69 2834.56 185.225 2910.33 186.007" stroke="url(#paint31_linear_355_3638)" stroke-linecap="round" stroke-linejoin="round"/>
<path d="M-994 273.406C-769.066 214.875 -569.908 205.51 -353.564 299.94C-256.718 338.958 -159.09 399.049 -50.5298 389.684C48.6613 378.76 124.419 308.525 201.741 252.334C236.105 226.582 272.813 203.951 310.302 184.441C336.076 171.174 363.41 157.127 392.31 151.665C445.418 139.178 497.745 164.932 538.359 197.708C624.272 266.384 699.25 363.15 814.06 384.222C909.343 400.609 1005.41 370.955 1100.69 370.175C1192.85 365.493 1284.23 386.562 1375.61 388.904C1483.39 392.027 1563.84 341.301 1645.06 275.748C1696.61 235.947 1747.37 192.243 1808.29 167.272C1870 143.08 1943.42 133.715 2002.78 170.394C2091.01 223.46 2142.57 322.572 2234.73 370.175C2329.25 419.338 2422.97 342.081 2498.7 290.575C2556.51 249.994 2617.43 211.755 2685.38 189.904C2758.01 166.492 2835.33 160.25 2911.09 161.03" stroke="url(#paint32_linear_355_3638)" stroke-linecap="round" stroke-linejoin="round"/>
<path d="M-994 253.117C-711.271 190.687 -551.163 201.611 -285.615 313.987C-209.076 343.644 -125.507 373.298 -42.7188 354.569C58.0335 331.937 134.572 256.24 217.36 200.051C266.566 167.275 340.763 124.354 400.118 117.329C448.543 112.647 493.059 136.838 529.767 164.933C601.622 221.121 661.761 295.258 746.891 333.5C830.46 372.518 924.182 354.569 1012.44 343.644C1056.96 338.182 1102.26 335.059 1147.55 336.619C1228 338.182 1307.66 356.911 1388.11 356.131C1534.16 356.911 1623.19 253.9 1733.32 176.64C1775.49 146.983 1823.93 123.571 1875.46 116.549C1920.76 107.965 1968.42 114.989 2007.44 139.961C2094.15 194.589 2146.47 292.138 2239.43 338.962C2333.91 385.785 2426.87 310.088 2502.63 259.362C2559.65 220.341 2619.77 183.662 2686.18 161.813C2758.01 137.618 2835.33 131.376 2911.09 132.156" stroke="url(#paint33_linear_355_3638)" stroke-linecap="round" stroke-linejoin="round"/>
<path d="M-994 234.387C-760.475 189.906 -589.433 187.564 -363.717 270.286C-261.404 305.405 -152.063 352.228 -42.7188 321.012C60.3751 292.138 137.697 214.098 225.952 157.91C275.938 126.693 348.571 87.6748 408.709 87.6748C461.82 88.4548 507.117 120.451 546.17 153.228C616.461 211.756 680.505 285.113 769.541 314.77C853.11 342.864 941.365 321.012 1026.5 313.207C1071.01 308.525 1116.31 306.185 1160.83 308.525C1241.28 311.647 1320.16 330.377 1400.6 327.254C1548.22 322.572 1640.38 205.513 1755.97 132.936C1795.03 107.964 1840.31 91.5745 1886.4 86.1122C1928.57 79.87 1972.32 89.2347 2008.23 111.866C2094.94 166.495 2148.05 263.261 2240.19 310.087C2334.71 356.911 2427.64 283.553 2503.4 233.607C2560.41 195.369 2620.56 158.69 2686.94 136.838C2758.8 112.646 2835.33 105.622 2910.33 107.184" stroke="url(#paint34_linear_355_3638)" stroke-linecap="round" stroke-linejoin="round"/>
<path d="M-994 216.438C-862.789 196.149 -728.454 182.102 -595.68 200.831C-506.644 211.756 -420.731 238.29 -335.601 264.044C-242.659 292.918 -140.346 318.67 -44.28 286.676C60.3751 253.117 140.039 172.737 232.98 117.329C285.31 87.6753 354.037 52.5563 415.74 58.7986C472.754 65.0435 519.614 104.062 561.009 140.741C631.3 202.391 702.374 275.749 798.438 293.698C850.765 303.843 903.876 298.381 956.204 292.138C1003.85 285.894 1052.27 280.431 1100.69 278.871C1150.68 277.312 1201.44 281.994 1251.43 287.456C1300.63 292.918 1350.62 299.941 1400.6 296.821C1545.09 289.796 1637.25 175.08 1750.51 102.502C1798.14 72.0657 1854.39 53.3363 1911.4 53.3363C1945.76 53.3363 1979.33 65.0435 2008.23 83.7728C2094.15 139.181 2147.26 235.168 2240.19 280.431C2332.36 325.695 2424.52 256.24 2500.29 207.856C2558.07 169.615 2618.22 133.719 2683.83 111.867C2756.45 87.6753 2833.77 79.8704 2909.54 82.2102" stroke="url(#paint35_linear_355_3638)" stroke-linecap="round" stroke-linejoin="round"/>
<path d="M-994 199.266C-865.913 183.659 -735.483 172.734 -606.616 188.341C-535.541 196.926 -464.469 212.533 -394.959 230.482C-284.834 259.356 -166.121 292.915 -54.4354 254.674C56.4696 218.778 140.819 133.713 240.791 78.3049C296.243 50.2108 359.507 18.2144 423.548 29.9216C491.498 43.9686 542.264 95.4743 593.031 139.175C708.622 244.529 783.599 284.331 942.926 264.039C1019.47 254.674 1096.79 246.872 1174.11 252.334C1249.87 256.236 1325.63 272.623 1401.38 266.381C1540.41 257.016 1631.79 146.2 1741.12 74.4025C1817.68 23.6767 1924.67 0.26496 2005.12 54.1132C2092.6 109.521 2147.26 207.85 2241.77 252.334C2334.7 294.475 2426.08 226.58 2501.84 178.976C2558.86 142.298 2617.43 107.179 2682.25 86.1097C2755.66 61.1381 2832.98 53.3332 2910.33 56.4557" stroke="url(#paint36_linear_355_3638)" stroke-linecap="round" stroke-linejoin="round"/>
<path d="M-994 181.322C-834.672 165.715 -673.002 158.69 -515.236 188.347C-364.498 212.539 -205.951 274.189 -55.2159 219.561C54.1279 181.322 140.039 100.162 240.791 45.5343C297.024 18.2202 359.507 -12.2164 423.548 -0.509158C487.592 12.7579 536.798 60.3612 585.22 100.942C686.752 192.249 764.855 249.217 907.782 237.51C988.226 232.048 1067.89 219.561 1148.34 223.463C1228.78 225.806 1309.22 242.192 1389.67 235.95C1527.91 226.585 1618.51 121.232 1725.51 47.8741C1805.18 -7.53402 1916.07 -31.7257 2001.22 26.0249C2089.46 82.9929 2144.91 182.102 2243.33 224.243C2335.5 261.702 2424.52 196.149 2500.29 150.105C2557.3 114.209 2616.66 79.8705 2681.48 58.8013C2755.66 34.6097 2833.77 26.0249 2911.09 29.9273" stroke="url(#paint37_linear_355_3638)" stroke-linecap="round" stroke-linejoin="round"/>
<path d="M-994 164.152C-834.672 153.228 -673.782 148.545 -516.016 173.52C-367.623 193.809 -212.201 241.412 -65.3687 189.907C47.0974 152.448 136.136 71.2855 240.01 16.66C296.243 -10.6541 358.724 -40.3107 422.768 -29.3834C479.784 -18.4589 525.081 20.5624 568.039 56.4586C638.33 117.329 710.963 185.224 805.468 203.174C900.751 221.903 998.379 197.711 1094.44 198.491C1186.61 195.369 1278.77 214.098 1371.71 207.856C1509.95 199.271 1598.98 101.722 1704.42 25.2448C1735.67 3.39299 1770.03 -16.1163 1806.74 -27.0436C1866.86 -43.4304 1934.03 -39.528 1987.14 -5.19178C2078.54 50.2164 2135.55 151.668 2235.52 194.589C2326.9 232.828 2417.48 169.617 2493.25 123.574C2551.05 87.6751 2610.41 53.3388 2675.23 32.2669C2750.99 7.29535 2831.42 -0.509465 2910.33 4.17288" stroke="url(#paint38_linear_355_3638)" stroke-linecap="round" stroke-linejoin="round"/>
<path d="M-994 146.203C-834.672 138.398 -674.563 135.279 -516.797 155.568C-368.403 171.955 -212.201 207.854 -66.1494 155.568C44.7556 118.109 136.133 40.8492 239.23 -12.9964C295.463 -39.5306 357.943 -69.9671 422.768 -60.6025C468.848 -52.7976 508.681 -26.2635 544.609 2.61048C586.783 36.1668 626.614 73.6256 670.352 105.622C796.877 200.831 900.751 181.322 1047.58 173.517C1096.79 171.175 1145.99 171.957 1194.42 174.297C1242.84 176.64 1292.04 181.322 1341.25 178.2C1448.25 174.297 1529.47 122.791 1609.92 57.2387C1663.81 15.0977 1716.14 -31.7257 1781.74 -54.3575C1845 -75.4294 1917.65 -69.9672 1974.66 -35.6282C2068.39 19 2127.72 122.012 2229.27 164.933C2321.41 203.171 2412.02 140.741 2488.55 94.6974C2546.36 59.5785 2606.51 25.2423 2671.33 4.17041C2748.65 -20.8012 2830.66 -28.606 2911.88 -23.1438" stroke="url(#paint39_linear_355_3638)" stroke-linecap="round" stroke-linejoin="round"/>
<path d="M-994 126.696C-838.577 122.011 -682.374 119.672 -527.733 134.499C-377.775 146.206 -222.354 173.52 -76.3021 125.134C37.7251 89.2351 133.011 13.5377 238.449 -41.0905C295.463 -67.6219 357.162 -98.8384 421.987 -91.8163C467.287 -86.3513 507.9 -60.5998 543.825 -33.2857C583.658 -2.84911 621.928 32.2671 661.761 62.7036C789.846 162.593 887.473 153.228 1039.77 146.206C1086.63 144.643 1134.28 144.643 1181.14 146.206C1228 147.766 1275.64 150.888 1322.5 147.766C1433.41 142.303 1515.41 90.0177 1598.98 22.1224C1653.66 -20.7985 1708.32 -69.1845 1777.07 -88.6938C1837.98 -105.081 1905.92 -96.4986 1960.58 -64.5021C2055.89 -9.87396 2117.57 93.9174 2221.44 136.061C2312.84 171.177 2402.66 111.867 2478.4 67.386C2537 32.2671 2597.12 -2.06914 2662.73 -22.3611C2742.4 -48.1126 2828.31 -55.9174 2911.88 -48.8925" stroke="url(#paint40_linear_355_3638)" stroke-linecap="round" stroke-linejoin="round"/>
<path d="M-994 106.401C-838.577 104.059 -683.154 102.499 -528.514 112.644C-381.681 120.448 -229.382 139.178 -86.4547 95.4742C30.6975 61.9179 130.666 -11.4396 237.666 -67.6277C297.024 -95.7217 361.068 -130.058 429.018 -122.256C471.192 -116.791 508.681 -94.9418 542.264 -70.7475C582.878 -41.0935 620.367 -6.75729 660.197 23.6793C785.16 122.008 880.446 123.568 1031.96 118.886C1120.22 115.766 1208.47 122.788 1295.95 117.326C1424.03 110.304 1507.6 49.4308 1603.67 -28.6064C1653.66 -67.6277 1706.76 -109.769 1770.82 -123.036C1831.74 -134.74 1896.55 -120.693 1949.67 -88.6969C2006.68 -54.3606 2052.75 -4.41481 2102.75 38.5062C2136.32 67.3801 2173.03 95.4742 2215.98 108.741C2305.8 137.615 2391.72 80.6473 2466.69 36.9463C2524.5 2.60736 2584.62 -30.9489 2649.47 -52.0181C2733.04 -79.3322 2822.83 -87.137 2910.33 -77.7723" stroke="url(#paint41_linear_355_3638)" stroke-linecap="round" stroke-linejoin="round"/>
<path d="M-994 84.55C-865.913 84.55 -738.607 82.2075 -610.519 86.1099C-494.928 88.4525 -379.339 97.0345 -264.529 91.5722C-162.996 86.8899 -62.2438 64.2581 29.9168 20.5571C118.172 -20.0241 199.397 -76.2121 288.432 -116.011C335.293 -137.082 385.279 -158.934 437.606 -152.689C482.906 -147.227 522.739 -123.036 558.667 -97.2813C598.497 -67.6274 636.766 -34.851 676.6 -5.19711C793.752 83.7701 891.379 92.3522 1033.53 90.0124C1117.09 88.4525 1201.44 93.1348 1285.01 85.33C1387.33 76.7452 1468.55 32.2644 1547.44 -30.9486C1593.52 -66.0675 1638.03 -105.866 1690.36 -132.4C1720.82 -148.007 1754.42 -157.372 1787.99 -157.372C1841.89 -156.592 1895.76 -139.422 1941.07 -110.548C1995.73 -76.2121 2041.04 -28.6087 2091.01 11.9724C2126.16 40.8464 2164.43 68.9404 2209.73 80.6476C2296.44 104.059 2378.43 51.7736 2450.29 10.4125C2507.3 -23.1438 2565.11 -55.9201 2628.37 -77.7719C2718.95 -109.768 2816.6 -117.573 2911.88 -105.866" stroke="url(#paint42_linear_355_3638)" stroke-linecap="round" stroke-linejoin="round"/>
<path d="M-994 60.3581C-839.358 60.3581 -684.716 58.7983 -530.075 61.918C-385.587 63.4806 -237.973 70.5027 -96.6102 35.3866C29.9168 5.72994 140.822 -63.7252 254.849 -123.036C314.988 -151.13 377.468 -188.588 446.198 -183.906C543.825 -174.541 627.394 -77.7722 707.841 -26.2665C813.277 47.871 915.59 59.5782 1041.34 58.7982C1122.56 58.7982 1205.35 61.1381 1286.57 49.4336C1373.27 37.7264 1451.37 -5.1946 1520.1 -58.2629C1577.11 -100.404 1631.01 -151.13 1698.17 -176.101C1742.68 -193.271 1792.68 -190.148 1837.19 -175.321C1874.69 -164.394 1910.61 -147.227 1942.62 -124.596C2027.78 -67.6276 2103.51 33.044 2206.62 53.336C2400.32 85.3297 2522.94 -187.026 2911.88 -134.74" stroke="url(#paint43_linear_355_3638)" stroke-linecap="round" stroke-linejoin="round"/>
<path d="M-994 33.8238C-836.234 33.8238 -679.249 33.0411 -521.483 33.8238C-376.995 33.0411 -230.162 36.1635 -88.7991 3.38718C36.9447 -23.9269 149.411 -88.6997 261.88 -148.01C322.018 -176.884 382.937 -216.683 452.448 -214.343C553.198 -209.661 644.578 -105.869 728.927 -55.1433C829.679 11.972 935.118 26.0189 1053.05 26.7988C1130.37 27.5788 1208.47 26.7989 1284.23 11.192C1509.16 -33.2916 1606.01 -258.044 1782.53 -210.44C1848.9 -191.711 1911.4 -158.155 1964.51 -115.234C2040.25 -57.4832 2112.11 24.4591 2213.64 27.5788C2309.71 29.1414 2401.87 -44.2161 2485.44 -87.1398C2618.22 -161.275 2758.8 -186.249 2909.54 -162.837" stroke="url(#paint44_linear_355_3638)" stroke-linecap="round" stroke-linejoin="round"/>
<path d="M-994 4.94982C-829.986 4.16716 -665.971 4.16716 -502.739 3.38723C-359.031 1.82735 -212.982 1.8274 -71.6159 -29.3891C53.3473 -55.9233 166.594 -116.014 278.28 -175.322C338.418 -205.758 398.557 -246.339 468.067 -244.777C531.331 -242.437 586 -203.416 635.986 -167.52C680.505 -134.743 725.022 -101.184 774.227 -74.6527C863.263 -23.9269 966.357 -9.87987 1067.11 -9.09721C1146.77 -8.31727 1228 -12.9996 1304.54 -37.1939C1406.07 -68.4077 1486.52 -140.205 1572.43 -198.733C1625.54 -234.632 1687.24 -259.604 1752.07 -241.657C1781.74 -233.852 1809.08 -220.585 1836.4 -206.538C1862.19 -193.271 1888.75 -179.224 1912.17 -162.837C1961.37 -129.278 2005.89 -88.6997 2055.1 -54.3607C2154.28 15.0945 2233.18 11.192 2337.82 -44.9961C2417.48 -87.9171 2493.25 -139.426 2579.16 -169.079C2684.59 -206.538 2800.2 -212 2910.33 -193.271" stroke="url(#paint45_linear_355_3638)" stroke-linecap="round" stroke-linejoin="round"/>
<path d="M-994 -27.0407C-804.212 -28.6033 -613.644 -26.2607 -423.856 -29.3832C-254.376 -32.5057 -80.2076 -38.7479 80.6832 -98.8384C158.002 -127.712 231.419 -166.734 304.054 -205.752C360.287 -236.969 418.081 -275.207 485.251 -275.207C531.331 -274.428 575.067 -253.356 613.336 -229.164C653.169 -204.192 690.658 -175.316 729.708 -150.344C785.943 -112.885 848.424 -81.6689 914.809 -66.062C978.073 -51.2351 1044.46 -46.5527 1110.06 -48.8925C1192.85 -51.235 1276.42 -66.8419 1350.62 -104.301C1402.95 -130.055 1450.59 -164.391 1498.23 -197.947C1537.28 -225.262 1576.33 -253.356 1621.63 -268.965C1698.17 -297.059 1769.24 -258.818 1833.29 -219.799C1869.21 -198.727 1905.15 -176.878 1938.72 -151.124C1983.23 -118.348 2026.19 -82.4489 2076.19 -58.2572C2190.98 1.05333 2287.05 -55.9173 2386.26 -114.445C2454.98 -155.026 2526.05 -194.045 2604.16 -215.117C2704.13 -242.431 2811.12 -243.991 2912.65 -224.482" stroke="url(#paint46_linear_355_3638)" stroke-linecap="round" stroke-linejoin="round"/>
</g>
</g>
<defs>
<linearGradient id="paint0_linear_355_3638" x1="958.158" y1="1078.85" x2="958.158" y2="1312.7" gradientUnits="userSpaceOnUse">
<stop stop-color="#303030"/>
<stop offset="1" stop-color="#303030" stop-opacity="0"/>
</linearGradient>
<linearGradient id="paint1_linear_355_3638" x1="958.548" y1="1049.02" x2="958.548" y2="1283.78" gradientUnits="userSpaceOnUse">
<stop stop-color="#303030"/>
<stop offset="1" stop-color="#303030" stop-opacity="0"/>
</linearGradient>
<linearGradient id="paint2_linear_355_3638" x1="958.548" y1="1020.13" x2="958.548" y2="1256.87" gradientUnits="userSpaceOnUse">
<stop stop-color="#303030"/>
<stop offset="1" stop-color="#303030" stop-opacity="0"/>
</linearGradient>
<linearGradient id="paint3_linear_355_3638" x1="958.938" y1="991.265" x2="958.938" y2="1227.94" gradientUnits="userSpaceOnUse">
<stop stop-color="#303030"/>
<stop offset="1" stop-color="#303030" stop-opacity="0"/>
</linearGradient>
<linearGradient id="paint4_linear_355_3638" x1="958.548" y1="962.16" x2="958.548" y2="1199.07" gradientUnits="userSpaceOnUse">
<stop stop-color="#303030"/>
<stop offset="1" stop-color="#303030" stop-opacity="0"/>
</linearGradient>
<linearGradient id="paint5_linear_355_3638" x1="958.938" y1="932.408" x2="958.938" y2="1170.3" gradientUnits="userSpaceOnUse">
<stop stop-color="#303030"/>
<stop offset="1" stop-color="#303030" stop-opacity="0"/>
</linearGradient>
<linearGradient id="paint6_linear_355_3638" x1="958.158" y1="904.78" x2="958.158" y2="1142.18" gradientUnits="userSpaceOnUse">
<stop stop-color="#303030"/>
<stop offset="1" stop-color="#303030" stop-opacity="0"/>
</linearGradient>
<linearGradient id="paint7_linear_355_3638" x1="958.548" y1="873.678" x2="958.548" y2="1113.08" gradientUnits="userSpaceOnUse">
<stop stop-color="#303030"/>
<stop offset="1" stop-color="#303030" stop-opacity="0"/>
</linearGradient>
<linearGradient id="paint8_linear_355_3638" x1="958.548" y1="846.923" x2="958.548" y2="1084.73" gradientUnits="userSpaceOnUse">
<stop stop-color="#303030"/>
<stop offset="1" stop-color="#303030" stop-opacity="0"/>
</linearGradient>
<linearGradient id="paint9_linear_355_3638" x1="958.938" y1="818.829" x2="958.938" y2="1057.96" gradientUnits="userSpaceOnUse">
<stop stop-color="#303030"/>
<stop offset="1" stop-color="#303030" stop-opacity="0"/>
</linearGradient>
<linearGradient id="paint10_linear_355_3638" x1="958.548" y1="789.892" x2="958.548" y2="1029.17" gradientUnits="userSpaceOnUse">
<stop stop-color="#303030"/>
<stop offset="1" stop-color="#303030" stop-opacity="0"/>
</linearGradient>
<linearGradient id="paint11_linear_355_3638" x1="958.938" y1="760.696" x2="958.938" y2="1000.58" gradientUnits="userSpaceOnUse">
<stop stop-color="#303030"/>
<stop offset="1" stop-color="#303030" stop-opacity="0"/>
</linearGradient>
<linearGradient id="paint12_linear_355_3638" x1="958.548" y1="730.022" x2="958.548" y2="970.823" gradientUnits="userSpaceOnUse">
<stop stop-color="#303030"/>
<stop offset="1" stop-color="#303030" stop-opacity="0"/>
</linearGradient>
<linearGradient id="paint13_linear_355_3638" x1="958.938" y1="702.008" x2="958.938" y2="943.185" gradientUnits="userSpaceOnUse">
<stop stop-color="#303030"/>
<stop offset="1" stop-color="#303030" stop-opacity="0"/>
</linearGradient>
<linearGradient id="paint14_linear_355_3638" x1="957.768" y1="675.454" x2="957.768" y2="915.2" gradientUnits="userSpaceOnUse">
<stop stop-color="#303030"/>
<stop offset="1" stop-color="#303030" stop-opacity="0"/>
</linearGradient>
<linearGradient id="paint15_linear_355_3638" x1="958.548" y1="643.172" x2="958.548" y2="886.051" gradientUnits="userSpaceOnUse">
<stop stop-color="#303030"/>
<stop offset="1" stop-color="#303030" stop-opacity="0"/>
</linearGradient>
<linearGradient id="paint16_linear_355_3638" x1="958.158" y1="615.205" x2="958.158" y2="857.16" gradientUnits="userSpaceOnUse">
<stop stop-color="#303030"/>
<stop offset="1" stop-color="#303030" stop-opacity="0"/>
</linearGradient>
<linearGradient id="paint17_linear_355_3638" x1="958.548" y1="585.192" x2="958.548" y2="828.128" gradientUnits="userSpaceOnUse">
<stop stop-color="#303030"/>
<stop offset="1" stop-color="#303030" stop-opacity="0"/>
</linearGradient>
<linearGradient id="paint18_linear_355_3638" x1="958.938" y1="556.531" x2="958.938" y2="799.413" gradientUnits="userSpaceOnUse">
<stop stop-color="#303030"/>
<stop offset="1" stop-color="#303030" stop-opacity="0"/>
</linearGradient>
<linearGradient id="paint19_linear_355_3638" x1="958.548" y1="527.591" x2="958.548" y2="770.629" gradientUnits="userSpaceOnUse">
<stop stop-color="#303030"/>
<stop offset="1" stop-color="#303030" stop-opacity="0"/>
</linearGradient>
<linearGradient id="paint20_linear_355_3638" x1="959.329" y1="498.597" x2="959.329" y2="741.387" gradientUnits="userSpaceOnUse">
<stop stop-color="#303030"/>
<stop offset="1" stop-color="#303030" stop-opacity="0"/>
</linearGradient>
<linearGradient id="paint21_linear_355_3638" x1="958.939" y1="468.943" x2="958.939" y2="712.515" gradientUnits="userSpaceOnUse">
<stop stop-color="#303030"/>
<stop offset="1" stop-color="#303030" stop-opacity="0"/>
</linearGradient>
<linearGradient id="paint22_linear_355_3638" x1="958.938" y1="439.83" x2="958.938" y2="683.23" gradientUnits="userSpaceOnUse">
<stop stop-color="#303030"/>
<stop offset="1" stop-color="#303030" stop-opacity="0"/>
</linearGradient>
<linearGradient id="paint23_linear_355_3638" x1="958.158" y1="410.754" x2="958.158" y2="655.119" gradientUnits="userSpaceOnUse">
<stop stop-color="#303030"/>
<stop offset="1" stop-color="#303030" stop-opacity="0"/>
</linearGradient>
<linearGradient id="paint24_linear_355_3638" x1="958.158" y1="380.59" x2="958.158" y2="625.842" gradientUnits="userSpaceOnUse">
<stop stop-color="#303030"/>
<stop offset="1" stop-color="#303030" stop-opacity="0"/>
</linearGradient>
<linearGradient id="paint25_linear_355_3638" x1="958.548" y1="353.262" x2="958.548" y2="596.196" gradientUnits="userSpaceOnUse">
<stop stop-color="#303030"/>
<stop offset="1" stop-color="#303030" stop-opacity="0"/>
</linearGradient>
<linearGradient id="paint26_linear_355_3638" x1="958.548" y1="321.462" x2="958.548" y2="567.245" gradientUnits="userSpaceOnUse">
<stop stop-color="#303030"/>
<stop offset="1" stop-color="#303030" stop-opacity="0"/>
</linearGradient>
<linearGradient id="paint27_linear_355_3638" x1="958.158" y1="293.093" x2="958.158" y2="537.96" gradientUnits="userSpaceOnUse">
<stop stop-color="#303030"/>
<stop offset="1" stop-color="#303030" stop-opacity="0"/>
</linearGradient>
<linearGradient id="paint28_linear_355_3638" x1="958.938" y1="263.179" x2="958.938" y2="509.001" gradientUnits="userSpaceOnUse">
<stop stop-color="#303030"/>
<stop offset="1" stop-color="#303030" stop-opacity="0"/>
</linearGradient>
<linearGradient id="paint29_linear_355_3638" x1="958.938" y1="232.94" x2="958.938" y2="478.505" gradientUnits="userSpaceOnUse">
<stop stop-color="#303030"/>
<stop offset="1" stop-color="#303030" stop-opacity="0"/>
</linearGradient>
<linearGradient id="paint30_linear_355_3638" x1="958.548" y1="204.133" x2="958.548" y2="449.947" gradientUnits="userSpaceOnUse">
<stop stop-color="#303030"/>
<stop offset="1" stop-color="#303030" stop-opacity="0"/>
</linearGradient>
<linearGradient id="paint31_linear_355_3638" x1="958.158" y1="173.605" x2="958.158" y2="420.192" gradientUnits="userSpaceOnUse">
<stop stop-color="#303030"/>
<stop offset="1" stop-color="#303030" stop-opacity="0"/>
</linearGradient>
<linearGradient id="paint32_linear_355_3638" x1="958.548" y1="145.946" x2="958.548" y2="390.661" gradientUnits="userSpaceOnUse">
<stop stop-color="#303030"/>
<stop offset="1" stop-color="#303030" stop-opacity="0"/>
</linearGradient>
<linearGradient id="paint33_linear_355_3638" x1="958.548" y1="113.056" x2="958.548" y2="360.421" gradientUnits="userSpaceOnUse">
<stop stop-color="#303030"/>
<stop offset="1" stop-color="#303030" stop-opacity="0"/>
</linearGradient>
<linearGradient id="paint34_linear_355_3638" x1="958.158" y1="84.2197" x2="958.158" y2="331.257" gradientUnits="userSpaceOnUse">
<stop stop-color="#303030"/>
<stop offset="1" stop-color="#303030" stop-opacity="0"/>
</linearGradient>
<linearGradient id="paint35_linear_355_3638" x1="957.768" y1="53.3363" x2="957.768" y2="301.449" gradientUnits="userSpaceOnUse">
<stop stop-color="#303030"/>
<stop offset="1" stop-color="#303030" stop-opacity="0"/>
</linearGradient>
<linearGradient id="paint36_linear_355_3638" x1="958.158" y1="23.3849" x2="958.158" y2="271.835" gradientUnits="userSpaceOnUse">
<stop stop-color="#303030"/>
<stop offset="1" stop-color="#303030" stop-opacity="0"/>
</linearGradient>
<linearGradient id="paint37_linear_355_3638" x1="958.548" y1="-7.19045" x2="958.548" y2="241.5" gradientUnits="userSpaceOnUse">
<stop stop-color="#303030"/>
<stop offset="1" stop-color="#303030" stop-opacity="0"/>
</linearGradient>
<linearGradient id="paint38_linear_355_3638" x1="958.158" y1="-36.3865" x2="958.158" y2="213.062" gradientUnits="userSpaceOnUse">
<stop stop-color="#303030"/>
<stop offset="1" stop-color="#303030" stop-opacity="0"/>
</linearGradient>
<linearGradient id="paint39_linear_355_3638" x1="958.938" y1="-66.7656" x2="958.938" y2="182.893" gradientUnits="userSpaceOnUse">
<stop stop-color="#303030"/>
<stop offset="1" stop-color="#303030" stop-opacity="0"/>
</linearGradient>
<linearGradient id="paint40_linear_355_3638" x1="958.938" y1="-96.8149" x2="958.938" y2="152.822" gradientUnits="userSpaceOnUse">
<stop stop-color="#303030"/>
<stop offset="1" stop-color="#303030" stop-opacity="0"/>
</linearGradient>
<linearGradient id="paint41_linear_355_3638" x1="958.158" y1="-127.124" x2="958.158" y2="123.377" gradientUnits="userSpaceOnUse">
<stop stop-color="#303030"/>
<stop offset="1" stop-color="#303030" stop-opacity="0"/>
</linearGradient>
<linearGradient id="paint42_linear_355_3638" x1="958.938" y1="-157.372" x2="958.938" y2="93.3611" gradientUnits="userSpaceOnUse">
<stop stop-color="#303030"/>
<stop offset="1" stop-color="#303030" stop-opacity="0"/>
</linearGradient>
<linearGradient id="paint43_linear_355_3638" x1="958.938" y1="-187.754" x2="958.938" y2="63.5379" gradientUnits="userSpaceOnUse">
<stop stop-color="#303030"/>
<stop offset="1" stop-color="#303030" stop-opacity="0"/>
</linearGradient>
<linearGradient id="paint44_linear_355_3638" x1="957.768" y1="-217.021" x2="957.768" y2="33.8238" gradientUnits="userSpaceOnUse">
<stop stop-color="#303030"/>
<stop offset="1" stop-color="#303030" stop-opacity="0"/>
</linearGradient>
<linearGradient id="paint45_linear_355_3638" x1="958.158" y1="-247.618" x2="958.158" y2="4.9498" gradientUnits="userSpaceOnUse">
<stop stop-color="#303030"/>
<stop offset="1" stop-color="#303030" stop-opacity="0"/>
</linearGradient>
<linearGradient id="paint46_linear_355_3638" x1="959.329" y1="-278.635" x2="959.329" y2="-27.0407" gradientUnits="userSpaceOnUse">
<stop stop-color="#303030"/>
<stop offset="1" stop-color="#303030" stop-opacity="0"/>
</linearGradient>
<clipPath id="clip0_355_3638">
<rect width="1920" height="1080" fill="white"/>
</clipPath>
</defs>
</svg>
