<svg width="1920" height="1080" viewBox="0 0 1920 1080" fill="none" xmlns="http://www.w3.org/2000/svg">
<g clip-path="url(#clip0_355_3437)">
<rect width="1920" height="1080" fill="#E22E4D"/>
<g clip-path="url(#clip1_355_3437)">
<path opacity="0.65" d="M-4.19336 1096.37C111.957 1091.29 228.806 1086.67 344.956 1097.06C419.442 1103.3 492.298 1120.84 565.388 1135.85C580.051 1138.62 596.113 1141.4 611.01 1143.01C625.675 1143.01 641.269 1143.01 655.7 1143.01C670.133 1142.55 685.728 1143.7 699.926 1142.09C719.246 1139.09 739.032 1134.01 757.652 1128C840.286 1099.83 914.071 1071.43 1001.13 1102.6C1032.78 1113.46 1062.35 1131.47 1094.7 1140.47C1111.46 1143.47 1129.61 1140.93 1146.61 1141.63C1184.78 1132.39 1215.97 1105.14 1253.68 1094.06C1290.69 1082.05 1331.19 1089.9 1363.78 1109.99C1383.1 1120.84 1401.72 1134.7 1423.37 1140.93C1436.63 1140.24 1451.06 1142.32 1464.1 1139.55C1508.79 1121.77 1540.45 1081.13 1593.98 1088.05C1617.96 1090.6 1639.61 1103.53 1659.39 1116.46C1674.29 1125.46 1689.65 1137.7 1707.34 1140.24C1721.07 1139.32 1736.2 1142.55 1749.24 1137.24C1785.08 1121.54 1815.81 1092.67 1856.31 1087.83C1923.35 1077.43 1978.05 1127.77 2041.59 1138.39C2060.91 1140.7 2080.7 1138.62 2100.02 1139.32C2111.66 1139.09 2123.76 1139.55 2135.17 1139.09C2151 1137.24 2167.05 1134.93 2182.65 1132.62C2234.32 1124.31 2286.22 1115.77 2338.38 1110.45C2401.23 1103.76 2464.54 1100.76 2527.62 1099.6C2702.18 1095.68 2876.99 1104.91 3051.57 1101.68" stroke="url(#paint0_linear_355_3437)"/>
<path opacity="0.65" d="M-4.19336 1081.36C130.113 1072.81 265.35 1062.19 399.89 1072.81C476.237 1078.12 550.489 1097.52 624.975 1113.92C637.08 1116.22 650.347 1118.77 662.451 1120.15C676.881 1120.84 692.244 1120.38 706.677 1120.38C720.876 1119.92 736.239 1121.3 750.438 1119.46C767.196 1116.69 784.42 1112.3 800.483 1106.99C889.631 1075.81 961.091 1045.56 1054.66 1085.74C1082.83 1096.83 1109.83 1114.84 1140.32 1119.23C1157.08 1118.3 1175.24 1121.53 1191.53 1116.46C1236.92 1100.06 1276.72 1063.12 1327.7 1065.65C1373.79 1065.43 1407.31 1098.68 1447.11 1115.99C1454.09 1119.23 1462.94 1118.53 1470.38 1118.53C1477.6 1118.3 1486.21 1118.99 1493.43 1117.84C1533.93 1103.06 1565.59 1065.19 1611.21 1064.96C1672.43 1062.42 1706.18 1121.3 1749.94 1117.84C1758.32 1117.61 1767.63 1118.53 1775.77 1117.15C1801.38 1108.6 1822.79 1091.29 1847 1079.74C1938.01 1034.48 2005.05 1101.68 2092.11 1114.61C2116.55 1118.99 2141.68 1116.22 2166.58 1116.92C2183.34 1116.69 2200.57 1117.38 2217.56 1116.46C2239.44 1114.38 2261.79 1111.61 2283.67 1109.07C2383.29 1095.9 2483.62 1087.59 2584.18 1085.74C2740.36 1081.82 2896.56 1087.36 3052.73 1082.28" stroke="url(#paint1_linear_355_3437)"/>
<path opacity="0.65" d="M-4.19336 1069.12C153.39 1057.57 311.671 1037.02 469.721 1050.18C521.627 1054.57 573.3 1064.96 623.579 1077.89C664.778 1087.82 706.443 1100.99 749.506 1098.21C763.473 1098.21 778.601 1098.21 792.8 1098.21C806.999 1096.6 821.664 1092.67 835.165 1088.75C895.45 1069.35 955.039 1038.87 1020.21 1045.11C1068.16 1047.41 1109.36 1073.05 1152.43 1091.06C1158.24 1093.13 1165.69 1095.68 1171.75 1097.29C1177.56 1097.52 1185.01 1097.52 1190.83 1097.52C1201.07 1097.06 1212.48 1098.68 1222.49 1095.9C1264.85 1082.28 1299.53 1048.11 1345.39 1044.41C1391.71 1038.64 1426.63 1065.89 1464.1 1087.59C1471.08 1091.29 1479.46 1095.44 1487.14 1096.83C1496.22 1096.83 1506.46 1096.83 1515.77 1096.83C1563.96 1093.13 1603.06 1017.16 1686.62 1052.26C1707.11 1061.04 1725.26 1075.12 1744.58 1085.98C1750.87 1089.44 1758.55 1093.13 1765.3 1095.21C1771.59 1096.6 1779.5 1095.9 1785.78 1096.14C1795.79 1095.9 1806.97 1097.29 1816.28 1092.67C1838.85 1083.44 1859.34 1068.43 1881.45 1058.27C1935.45 1031.02 1993.41 1043.95 2047.41 1063.81C2075.11 1073.28 2103.28 1081.59 2131.9 1087.59C2148.89 1091.06 2166.35 1094.06 2183.58 1095.44C2203.14 1095.44 2222.91 1095.44 2242.48 1095.21C2264.11 1095.21 2285.99 1095.21 2307.41 1094.98C2326.98 1093.6 2346.75 1091.75 2366.53 1090.13C2465 1080.9 2563.92 1074.43 2662.86 1072.12C2792.49 1068.89 2922.38 1069.81 3052.04 1064.04" stroke="url(#paint2_linear_355_3437)"/>
<path opacity="0.65" d="M-4.19336 1058.27C150.829 1047.65 305.153 1022.47 460.875 1023.63C509.756 1024.32 559.335 1028.25 607.285 1037.72C649.881 1045.8 691.78 1058.96 734.143 1068.89C745.78 1071.66 758.815 1074.2 770.455 1075.81C782.092 1076.05 794.662 1075.81 806.301 1075.81C822.593 1075.35 839.82 1077.2 855.88 1073.28C918.029 1059.42 974.59 1022.24 1039.77 1022.01C1076.54 1020.63 1112.62 1031.48 1145.21 1047.87C1165.93 1057.8 1186.87 1069.81 1209.45 1074.89C1228.07 1073.74 1248.32 1078.12 1265.78 1070.5C1302.56 1055.5 1334.45 1027.09 1375.18 1022.24C1417.55 1015.55 1453.16 1037.95 1486.91 1059.65C1510.89 1073.97 1516.47 1075.12 1543.94 1074.2C1560.47 1075.59 1575.13 1064.96 1588.63 1056.88C1606.09 1045.57 1623.78 1033.1 1643.56 1026.17C1680.57 1012.55 1718.51 1025.25 1749.94 1046.49C1767.39 1056.42 1785.78 1071.89 1806.27 1073.51C1817.91 1073.28 1830.01 1073.74 1841.65 1073.05C1866.32 1065.65 1887.97 1050.18 1911.01 1039.1C1961.06 1012.55 2017.62 1016.93 2070.69 1031.25C2111.43 1041.18 2151.7 1053.65 2192.89 1061.96C2216.17 1066.58 2239.91 1070.27 2263.65 1072.35C2283.67 1072.81 2303.91 1072.35 2323.94 1072.35C2362.12 1071.89 2400.74 1073.28 2438.92 1071.2C2532.51 1065.43 2626.07 1060.11 2719.63 1057.34C2830.44 1053.65 2941.23 1052.03 3052.04 1045.34" stroke="url(#paint3_linear_355_3437)"/>
<path opacity="0.65" d="M-4.19336 1046.49C124.759 1039.56 253.014 1021.55 381.268 1008.16C460.875 1000.77 541.877 996.614 621.484 1007.01C669.433 1013.01 716.221 1026.4 762.541 1039.79C781.395 1045.11 800.946 1049.95 820.266 1052.96C831.672 1053.88 844.241 1053.19 855.648 1053.42C867.054 1053.42 879.389 1053.42 890.563 1053.42C901.968 1051.8 914.072 1048.57 925.011 1045.11C959.228 1034.25 991.583 1017.63 1026.27 1007.93C1092.84 988.994 1144.05 1003.08 1202.7 1035.41C1216.67 1042.1 1231.57 1049.72 1246.93 1052.49C1263.22 1051.57 1280.91 1054.8 1296.51 1049.95C1320.02 1041.64 1340.97 1026.4 1363.08 1015.09C1395.43 997.537 1435.24 992.92 1469.45 1008.39C1487.61 1016.24 1504.37 1028.02 1521.13 1038.18C1531.37 1043.72 1543.01 1051.57 1555.11 1051.8C1569.78 1051.11 1586.3 1054.34 1599.57 1046.72C1640.3 1025.48 1673.36 991.072 1723.63 998.924C1762.51 1004 1791.37 1033.1 1826.52 1047.64C1832.57 1050.42 1840.02 1051.57 1846.54 1051.11C1856.31 1051.11 1866.55 1051.11 1876.33 1051.11C1910.78 1041.64 1939.64 1018.32 1973.39 1007.7C2068.13 976.524 2180.79 1025.25 2276.23 1039.79C2303.68 1044.64 2331.61 1047.88 2359.55 1049.72C2404.24 1049.95 2449.17 1049.49 2493.86 1049.49C2578.36 1050.42 2662.86 1044.87 2747.34 1041.87C2848.83 1037.95 2950.55 1034.48 3051.81 1026.86" stroke="url(#paint4_linear_355_3437)"/>
<path opacity="0.65" d="M-4.19336 1032.17C116.613 1028.48 237.186 1016.7 356.828 999.383C463.668 984.836 572.602 969.595 680.141 983.913C725.065 989.685 768.825 1002.85 811.888 1016.01C830.508 1021.55 849.828 1026.86 868.915 1030.09C880.087 1031.48 892.658 1030.56 903.83 1030.79C915.003 1030.79 927.339 1030.79 938.28 1030.79C949.452 1028.94 961.557 1025.48 972.263 1022.01C1045.12 995.228 1101.91 959.206 1182.68 986.221C1215.74 997.074 1244.37 1018.55 1277.65 1028.71C1285.33 1030.79 1294.41 1029.63 1302.33 1029.86C1310.01 1029.63 1319.09 1030.33 1326.77 1029.17C1366.57 1016.7 1397.99 984.143 1439.89 977.677C1475.04 970.982 1509.49 985.759 1537.89 1005.39C1553.48 1014.39 1569.78 1028.02 1588.4 1029.4C1603.06 1028.71 1619.12 1031.94 1632.39 1024.55C1674.99 1002.38 1707.57 967.749 1760.41 976.986C1798.35 982.758 1827.22 1010.7 1861.67 1025.01C1877.03 1031.71 1894.48 1027.78 1910.78 1028.71C1929.63 1027.09 1946.86 1016.01 1963.85 1008.39C1994.57 992.686 2027.4 979.755 2062.08 976.522C2157.98 967.056 2251.08 998.46 2344.9 1013.7C2402.62 1023.4 2461.04 1028.94 2519.46 1027.32C2589.54 1026.86 2659.59 1027.32 2729.65 1026.63C2837.19 1022.94 2944.5 1018.32 3051.57 1009.31" stroke="url(#paint5_linear_355_3437)"/>
<path opacity="0.65" d="M-4.19336 1010.93C44.6877 1010.47 94.2671 1011.39 143.148 1010.01C225.082 1006.54 307.248 998.46 388.485 985.991C530.006 964.287 678.279 934.269 818.404 979.064C853.553 989.223 888.235 1003.08 924.313 1008.62C937.814 1008.62 952.013 1008.62 965.512 1008.62C976.686 1008.85 988.789 1009.08 999.497 1005.62C1031.62 997.305 1061.18 981.142 1092.14 969.597C1118.67 959.438 1147.77 953.202 1176.4 955.05C1226.45 956.435 1264.39 986.684 1308.61 1004.7C1316.06 1007.93 1325.14 1008.39 1333.05 1007.93C1342.83 1007.7 1353.54 1008.62 1363.31 1007.24C1409.63 991.765 1445.71 950.431 1498.32 954.127C1525.32 955.05 1549.99 968.443 1572.1 982.99C1587.7 992.227 1603.53 1005.39 1621.92 1007.47C1636.35 1006.54 1652.18 1010.24 1665.44 1003.31C1710.14 980.912 1741.56 945.352 1796.96 955.05C1832.34 960.822 1860.27 984.606 1891.93 999.385C1897.74 1002.15 1905.19 1004.93 1911.48 1006.54C1925.68 1007.24 1940.57 1006.54 1954.77 1006.77C1978.05 1002.39 1999.23 990.149 2021.11 981.142C2053.93 966.133 2089.54 957.128 2125.62 954.357C2229.89 945.352 2331.61 975.601 2433.8 990.378C2490.83 998.46 2548.55 1005.16 2606.3 1005.16C2690.31 1004.7 2774.34 1005.16 2858.38 1004.23C2923.08 1001.69 2987.57 997.769 3052.04 991.533" stroke="url(#paint6_linear_355_3437)"/>
<path opacity="0.65" d="M-4.19336 988.533C58.4209 988.301 121.501 988.301 184.115 988.069C246.73 988.994 309.81 986.916 372.19 979.064C491.832 966.595 609.38 931.496 730.42 933.344C779.299 933.806 827.949 942.119 874.268 957.358C906.391 967.52 938.512 980.451 971.799 986.223C985.066 986.453 999.265 986.223 1012.53 986.223C1047.91 988.762 1080.04 970.289 1111.69 956.896C1182.92 923.184 1240.18 922.953 1308.15 963.594C1323.51 971.905 1339.8 981.142 1357.03 985.3C1366.57 985.3 1377.51 985.3 1387.05 985.3C1392.64 985.53 1399.86 985.068 1404.98 982.758C1427.79 974.215 1447.81 958.974 1469.45 947.43C1502.27 928.495 1543.71 925.262 1577.69 943.042C1603.99 955.05 1626.11 977.448 1654.74 984.375C1670.8 983.684 1688.49 987.378 1703.15 978.835C1746.68 955.742 1779.03 922.723 1833.03 931.496C1869.35 936.809 1898.68 961.054 1931.49 975.602C1938.95 978.834 1947.32 982.297 1955.47 983.452C1964.78 983.452 1974.79 983.452 1983.87 983.452C2006.91 985.53 2028.33 975.37 2049.28 967.52C2083.96 953.434 2120.03 941.426 2157.05 935.422C2272.04 916.487 2387.48 945.352 2500.84 962.207C2564.15 971.905 2627.93 978.371 2691.95 981.374C2749.68 982.297 2807.63 981.142 2865.35 981.374C2890.02 981.142 2914.94 981.374 2939.61 981.142C2977.32 979.296 3015.02 976.525 3052.5 972.83" stroke="url(#paint7_linear_355_3437)"/>
<path opacity="0.65" d="M-4.19336 960.822C83.0941 964.285 170.615 966.826 257.901 965.439C311.672 964.516 365.906 967.517 419.21 961.977C506.731 954.818 591.922 933.112 678.279 919.026C752.067 907.482 829.112 905.172 901.502 926.417C940.84 937.27 978.547 955.05 1018.58 963.132C1038.37 963.823 1058.85 963.362 1078.64 963.132C1089.35 961.052 1100.98 957.128 1111.22 953.202C1154.52 935.654 1196.88 909.098 1245.3 909.098C1295.11 907.02 1332.59 934.499 1374.72 955.28C1380.07 957.589 1387.05 960.361 1392.64 961.977C1397.99 962.439 1405.21 962.439 1410.56 962.439C1420.11 961.745 1431.05 964.055 1440.12 960.59C1479.46 945.813 1511.35 911.638 1555.11 908.866C1587.47 905.404 1617.73 920.874 1643.8 938.423C1658.93 947.43 1674.29 960.129 1692.21 961.977C1702.45 961.977 1713.63 961.977 1724.1 961.977C1737.14 958.512 1749.47 951.124 1760.88 943.965C1809.06 910.944 1850.73 895.012 1907.29 919.951C1933.12 931.266 1956.87 947.891 1983.87 957.128C1997.14 962.668 2011.8 960.822 2026 961.052C2033.45 961.052 2041.59 961.052 2049.04 961.052C2056.49 960.129 2064.64 957.819 2071.85 955.973C2117.48 942.81 2161.69 924.339 2208.49 915.793C2313.93 895.706 2421.7 912.792 2526.23 928.956C2595.82 939.809 2665.41 949.969 2735.7 955.512C2789.71 960.822 2843.93 959.206 2898.18 959.206C2930.54 959.206 2962.88 958.974 2995.01 958.974C3013.86 957.819 3032.96 956.435 3051.81 954.586" stroke="url(#paint8_linear_355_3437)"/>
<path opacity="0.65" d="M-4.19336 928.727C120.802 932.421 245.566 944.891 370.561 942.813C417.58 941.89 465.298 944.891 512.316 939.58C590.526 931.96 666.64 910.486 743.919 896.861C813.982 884.853 887.769 882.775 956.436 904.482C992.98 915.335 1027.89 932.422 1065.14 940.503C1077.94 941.89 1091.91 940.735 1104.71 940.965C1115.42 941.197 1127.05 941.197 1137.29 937.502C1176.63 925.494 1211.31 900.787 1251.58 891.319C1288.83 881.852 1328.86 887.856 1362.38 905.866C1382.4 916.028 1401.48 928.959 1422.43 937.041C1431.51 941.197 1442.22 940.042 1451.76 940.274C1463.64 940.735 1475.97 940.503 1486.68 934.731C1515.54 921.107 1540.68 898.709 1571.87 890.166C1632.86 873.539 1664.75 911.179 1713.63 935.654C1719.91 938.887 1727.59 940.274 1734.81 939.58C1743.19 939.58 1752.5 939.58 1760.88 939.58C1785.32 932.653 1805.57 915.335 1827.92 903.559C1866.09 880.929 1911.25 880.236 1951.28 898.478C1982.24 911.64 2011.34 931.267 2044.85 938.194C2055.1 939.349 2066.27 938.426 2076.74 938.657C2088.61 938.194 2100.95 939.58 2112.59 937.964C2148.2 931.267 2182.42 918.336 2217.33 908.176C2266.22 893.399 2316.96 885.547 2368.17 884.392C2505.5 880.929 2640.28 914.18 2776.2 928.495C2807.4 931.96 2838.58 934.731 2870.01 936.577C2892.13 936.577 2914.48 936.577 2936.59 936.348C2959.87 936.348 2983.14 936.348 3006.42 936.116C3021.78 935.886 3037.36 936.577 3052.5 934.961" stroke="url(#paint9_linear_355_3437)"/>
<path opacity="0.65" d="M-4.19336 895.015C125.923 898.941 255.808 909.562 385.691 918.567C448.072 921.8 510.686 919.49 573.068 919.49C653.141 913.718 729.954 889.242 808.395 874.002C872.639 861.994 940.608 860.148 1003.69 880.006C1039.77 890.859 1073.98 908.639 1110.99 917.182C1123.56 919.26 1137.29 917.644 1150.1 918.105C1163.13 918.799 1176.63 917.644 1188.5 912.563C1226.68 898.941 1260.66 874.231 1300.93 866.613C1336.08 859.222 1373.09 866.843 1404.05 884.393C1423.6 894.553 1442.22 907.714 1463.17 915.334C1472.01 919.028 1482.72 917.182 1492.26 917.412C1501.81 917.644 1512.28 917.874 1520.89 913.256C1553.25 898.709 1580.48 872.385 1616.33 865.458C1672.66 853.682 1705.01 890.395 1750.4 912.795C1764.6 919.954 1781.59 916.027 1796.96 916.95C1819.3 912.101 1838.16 896.631 1857.94 885.778C1891.23 864.765 1932.19 856.683 1970.6 867.304C2020.65 879.774 2064.17 916.721 2117.25 916.027C2136.1 915.566 2155.41 916.721 2174.28 915.334C2205.92 910.023 2236.66 899.632 2267.61 890.627C2308.11 878.389 2349.53 868.921 2391.68 864.765C2453.36 858.531 2515.52 860.839 2576.95 867.075C2686.13 878.389 2793.67 902.403 2903.07 911.872C2924.47 914.411 2946.12 913.95 2967.54 913.718C2995.71 913.718 3023.87 913.488 3052.04 913.488" stroke="url(#paint10_linear_355_3437)"/>
<path opacity="0.65" d="M-4.19336 861.762C84.4908 864.071 173.64 867.766 262.092 874.693C337.276 880.235 412.459 888.779 487.411 895.012C520.464 898.477 554.214 897.09 587.499 897.09C617.295 896.399 648.02 898.706 677.581 894.321C738.798 886.701 797.689 867.534 857.51 853.912C915.933 840.981 978.084 836.593 1036.51 852.063C1077.47 862.223 1114.95 883.698 1155.68 894.321C1168.02 897.322 1181.75 895.244 1194.32 895.706C1200.14 895.706 1207.59 895.706 1213.41 895.706C1221.56 894.089 1230.87 890.856 1238.55 887.856C1278.82 871.228 1316.53 843.75 1361.45 841.672C1413.36 837.516 1448.5 867.072 1491.8 889.008C1496.92 891.318 1503.67 894.089 1509.02 895.244C1514.14 895.244 1521.13 895.244 1526.25 895.244C1535.33 895.012 1546.03 896.399 1554.65 892.705C1592.12 877.232 1623.08 844.443 1665.21 841.442C1716.42 836.132 1749.01 873.308 1791.84 892.011C1797.89 895.012 1805.8 894.782 1812.32 894.782C1820.46 894.782 1829.54 894.782 1837.69 894.782C1861.2 887.855 1881.45 872.615 1902.63 861.3C1921.95 850.679 1943.6 842.597 1965.95 840.981C2041.59 833.822 2104.67 892.934 2178.68 894.089C2199.87 893.396 2221.29 895.244 2242.25 892.934C2294.15 883.698 2343.72 864.533 2395.41 853.912C2495.02 832.435 2598.6 837.055 2698.93 850.909C2788.78 863.146 2877.69 883.929 2968.24 891.779C2995.94 893.166 3023.87 891.779 3051.57 892.011" stroke="url(#paint11_linear_355_3437)"/>
<path opacity="0.65" d="M-4.19336 830.589C141.053 832.435 286.533 837.746 430.847 854.141C490.436 860.607 549.791 869.15 609.612 874.231C651.511 874.693 694.108 874.693 736.004 873.999C789.309 868.457 840.984 852.293 892.424 837.978C949.686 822.044 1010.67 813.039 1069.56 825.047C1115.42 833.358 1156.15 858.297 1200.61 871.228C1212.71 874.693 1226.21 872.615 1238.55 873.076C1244.37 873.076 1251.82 873.076 1257.4 873.076C1265.55 871.69 1274.63 868.457 1282.31 865.456C1323.74 847.676 1362.61 818.35 1409.63 818.581C1457.12 816.733 1492.26 846.753 1532.07 866.611C1540.68 870.999 1550.69 873.076 1560.47 872.151C1569.54 871.922 1579.55 872.845 1588.4 871.228C1629.6 856.219 1662.18 818.581 1708.51 817.888C1760.64 814.887 1792.77 855.758 1837.92 871.228C1845.84 871.922 1854.92 871.46 1863.06 871.46C1869.35 871.228 1877.03 872.383 1883.08 869.844C1907.52 861.3 1928.7 845.598 1951.75 834.513C1996.44 810.961 2049.27 813.732 2096.29 828.741C2128.66 838.439 2159.84 852.525 2192.43 861.992C2204.76 865.456 2217.79 868.919 2230.38 870.305C2237.12 870.305 2244.57 870.305 2251.31 870.305C2269 870.073 2286.92 870.767 2304.63 869.844C2331.61 865.686 2357.93 858.529 2384.24 851.138C2433.1 837.284 2482.46 824.585 2533.2 819.504C2601.17 812.346 2669.84 814.887 2737.57 823.199C2798.31 830.819 2858.38 843.982 2918.65 854.835C2949.39 860.375 2980.34 865.224 3011.54 868.227C3025.03 868.457 3038.54 868.227 3052.04 868.227" stroke="url(#paint12_linear_355_3437)"/>
<path opacity="0.65" d="M-4.19336 802.418C129.648 803.341 263.954 804.264 397.563 814.888C460.409 819.966 523.257 827.819 585.637 837.053C623.113 842.596 660.821 848.368 698.531 851.832C734.841 851.832 771.385 851.832 807.697 851.6C850.759 846.751 892.656 834.052 933.857 821.353C992.048 802.88 1054.43 789.717 1115.42 801.493C1163.36 809.345 1204.56 837.285 1250.89 849.754C1260.89 851.371 1272.07 850.216 1282.08 850.677C1294.41 850.909 1307.68 850.909 1319.09 845.828C1360.98 829.435 1398.46 798.26 1445.01 796.414C1495.52 792.488 1529.74 823.431 1571.64 844.444C1580.02 848.831 1590.03 850.677 1599.57 849.984C1608.42 849.754 1618.42 850.677 1627.27 849.061C1668 834.052 1700.13 797.107 1745.75 795.721C1799.05 791.795 1832.1 833.129 1878.19 848.831C1886.11 849.754 1894.95 849.061 1902.86 849.293C1912.64 849.523 1923.12 849.523 1932.19 845.135C1960.13 833.82 1985.26 815.579 2013.66 805.419C2066.04 786.254 2124.23 795.027 2175.9 812.808C2214.31 825.739 2252.24 842.366 2292.76 848.138C2303.22 848.368 2314.39 848.138 2325.1 848.138C2340.7 847.677 2357 848.831 2372.6 847.445C2401 843.057 2428.91 835.207 2456.84 827.587C2503.65 814.424 2551.12 802.418 2599.76 797.337C2681.24 788.332 2763.86 793.875 2844.17 808.884C2887.47 816.734 2930.29 827.125 2973.59 835.437C2999.44 840.056 3025.73 845.599 3052.04 846.29" stroke="url(#paint13_linear_355_3437)"/>
<path opacity="0.65" d="M-4.19336 777.017C145.243 777.247 294.911 775.631 444.116 784.867C511.386 789.023 578.655 797.105 645.226 808.42C689.453 815.579 733.911 824.354 778.369 828.971C797.223 829.203 817.009 828.971 835.863 828.971C849.596 828.741 864.492 829.203 878.225 828.509C913.606 823.892 948.056 813.501 981.575 802.416C1038.83 782.79 1100.05 766.626 1160.81 777.479C1208.52 784.406 1249.02 812.578 1294.41 826.2C1300 828.048 1307.22 827.816 1313.03 827.586C1322.81 827.586 1333.75 827.586 1343.76 827.586C1360.75 825.97 1376.81 816.733 1391.94 809.113C1412.89 797.798 1434.07 785.099 1456.88 778.402C1491.57 767.549 1529.51 774.014 1560.47 792.256C1580.72 803.341 1599.8 817.888 1621.92 825.738C1630.53 828.278 1640.54 826.661 1649.38 826.893C1654.27 826.893 1660.79 827.125 1665.67 826.2C1670.8 824.583 1677.31 821.812 1681.97 819.505C1714.56 802.186 1744.12 775.401 1782.53 772.63C1840.72 767.087 1873.07 811.652 1922.88 826.2C1932.43 826.2 1942.44 826.2 1951.98 826.2C1959.89 826.661 1968.74 825.738 1975.96 822.506C2004.82 811.423 2031.12 793.643 2060.68 783.713C2117.48 763.855 2180.33 770.32 2236.43 789.255C2265.06 798.492 2292.99 809.806 2322.09 817.656C2340.01 822.737 2358.62 826.2 2377.24 825.045C2398.66 824.354 2421 826.432 2442.19 823.66C2501.54 813.269 2558.1 791.565 2617.24 780.941C2696.13 766.164 2777.61 766.855 2856.75 779.786C2922.61 790.178 2986.39 810.729 3052.04 820.889" stroke="url(#paint14_linear_355_3437)"/>
<path opacity="0.65" d="M-4.19336 754.388C186.443 755.311 377.545 747.461 567.715 761.547C655.468 767.781 741.359 787.639 827.948 802.647C851.225 807.267 875.2 806.112 898.709 806.112C919.426 805.65 940.84 807.728 961.091 802.879C1013.7 792.72 1062.58 768.242 1114.72 757.159C1159.41 747.461 1207.13 748.846 1249.95 765.471C1275.56 774.939 1299.53 788.793 1324.91 798.492C1330.49 800.57 1337.71 802.879 1343.29 804.496C1350.98 805.419 1359.82 804.957 1367.5 804.957C1375.18 804.957 1384.03 804.957 1391.48 804.727C1397.06 803.341 1404.05 800.801 1409.4 798.723C1467.36 771.936 1507.86 732.914 1577.22 758.314C1606.79 769.167 1630.76 791.333 1660.09 802.418C1664.75 804.727 1671.26 804.264 1676.38 804.264C1684.99 804.264 1694.54 804.264 1703.15 804.264C1737.37 793.413 1763.44 765.703 1797.89 755.081C1859.34 735.685 1896.58 771.936 1947.32 796.875C1953.14 799.415 1960.36 802.186 1966.41 803.573C1972.46 803.573 1979.45 803.573 1985.5 803.573C1994.57 803.111 2004.82 804.496 2013.89 802.647C2054.63 789.948 2091.17 765.471 2133.29 756.236C2186.61 742.612 2243.17 748.846 2294.85 765.935C2335.11 778.634 2374.22 795.491 2416.11 802.186C2432.18 803.573 2448.71 802.186 2464.77 802.647C2478.03 802.186 2491.76 803.573 2505.04 801.031C2554.62 792.258 2601.87 774.708 2650.74 763.625C2730.81 744.458 2814.84 742.612 2896.07 756.927C2948.69 765.934 2999.67 782.56 3052.04 793.874" stroke="url(#paint15_linear_355_3437)"/>
<path opacity="0.65" d="M-4.19336 734.53C170.615 734.993 345.656 728.99 520.464 730.374C586.335 731.297 652.443 734.3 717.617 743.767C773.714 751.387 828.646 765.473 884.044 776.556C897.779 779.097 912.21 781.866 926.175 783.253C937.348 783.253 949.686 783.253 960.625 783.253C978.547 782.56 997.403 784.638 1015.09 781.637C1056.29 774.248 1094.7 756.698 1134.04 743.767C1202.7 720.214 1266.25 722.985 1330.49 757.391C1350.04 766.628 1369.83 777.942 1391.24 782.33C1400.79 782.33 1411.49 782.33 1421.04 782.33C1453.39 784.408 1485.51 756.236 1514.38 743.075C1551.15 723.679 1595.85 721.831 1632.62 742.15C1654.74 753.235 1674.75 769.399 1697.8 778.865C1711.07 783.946 1726.43 780.714 1740.39 781.405C1755.76 779.327 1769.26 769.629 1782.29 762.008C1801.61 749.771 1821.63 736.61 1843.98 730.606C1902.63 714.672 1941.74 749.771 1990.62 773.093C1999.46 776.556 2009.01 781.175 2018.78 780.714C2032.52 780.482 2046.72 780.943 2060.45 780.482C2100.95 770.554 2137.26 748.386 2177.29 736.84C2225.95 722.062 2278.55 722.754 2327.67 735.223C2359.32 743.075 2389.82 755.313 2420.77 765.241C2441.26 771.477 2462.2 778.404 2483.85 779.559C2508.52 778.865 2534.59 780.714 2558.8 778.636C2599.06 771.938 2637.94 758.314 2677.28 747.461C2757.81 723.679 2843.7 717.443 2926.35 732.913C2968.93 740.304 3010.15 753.697 3051.81 765.011" stroke="url(#paint16_linear_355_3437)"/>
<path opacity="0.65" d="M-4.19336 717.209C157.347 718.134 319.12 713.747 480.661 708.666C574 706.588 667.806 704.048 760.679 714.438C825.853 721.135 889.399 738.915 953.177 753.463C975.754 759.005 998.333 761.313 1021.61 760.16C1039.3 759.466 1057.92 761.544 1075.15 758.543C1108.9 752.078 1141.02 737.992 1172.91 725.984C1238.32 699.89 1303.49 695.966 1367.04 729.449C1388.45 739.838 1409.87 752.539 1433.14 758.773C1440.59 759.466 1449.2 759.005 1456.65 759.235C1464.1 759.235 1472.71 759.466 1479.93 758.773C1491.8 755.54 1503.9 749.536 1514.61 743.764C1554.65 719.98 1595.15 695.041 1643.8 707.743C1669.63 713.976 1691.75 729.91 1714.09 743.303C1723.87 749.075 1734.81 755.079 1745.75 758.312C1752.27 758.543 1760.18 758.312 1766.7 758.312C1773.21 758.08 1781.13 759.005 1787.41 757.157C1802.08 752.078 1815.58 743.533 1828.61 735.451C1881.68 699.199 1928.47 692.272 1986.43 723.445C2011.8 735.682 2041.13 757.157 2069.99 757.618C2080.47 757.618 2091.41 757.618 2101.88 757.618C2109.09 757.85 2117.25 757.618 2124.23 755.079C2154.48 746.765 2182.65 731.988 2212.21 721.367C2254.12 705.203 2299.97 699.199 2344.66 704.51C2410.76 710.975 2469.66 746.304 2535.06 756.463C2551.36 756.463 2567.65 756.463 2583.95 756.463C2595.12 756.234 2606.99 757.157 2617.93 754.617C2656.79 747.229 2694.04 733.373 2731.99 722.52C2802.74 701.277 2878.15 695.041 2951.01 708.204C2985.23 714.208 3018.52 724.6 3051.81 734.989" stroke="url(#paint17_linear_355_3437)"/>
<path opacity="0.65" d="M-4.19336 702.202C165.028 704.282 334.483 700.586 503.472 691.119C610.544 686.038 718.314 678.65 825.155 689.042C889.631 694.814 952.013 713.287 1014.39 729.451C1027.43 732.684 1041.63 735.684 1054.9 737.533C1070.03 737.533 1086.09 737.533 1101.45 737.533C1133.11 739.842 1163.37 728.528 1192.23 716.981C1270.44 682.806 1335.38 664.796 1414.99 707.745C1435.94 718.136 1456.88 731.297 1479.93 736.61C1487.14 736.61 1495.76 736.61 1503.2 736.61C1560 741.459 1597.94 670.107 1676.85 683.269C1702.45 687.425 1724.8 701.511 1746.21 715.133C1763.44 725.757 1782.06 738.687 1803.47 735.916C1809.99 735.916 1817.44 735.916 1823.96 735.916C1836.53 733.377 1848.63 726.218 1859.57 719.982C1901.94 692.736 1939.88 671.955 1992.02 685.115C2035.54 695.969 2071.62 726.448 2115.84 735.223C2128.89 735.455 2142.61 735.223 2155.64 735.223C2167.53 736.146 2179.4 733.607 2190.57 729.681C2219.67 720.214 2246.89 706.36 2275.77 696.43C2301.83 687.193 2329.3 681.421 2357 680.498C2393.3 678.882 2429.63 685.115 2464.07 696.2C2504.11 708.668 2542.73 726.911 2584.41 733.838C2598.83 734.993 2613.97 733.838 2628.39 734.068C2638.17 733.838 2648.42 734.3 2658.2 733.838C2669.14 731.99 2680.08 729.451 2690.77 726.68C2722.44 718.136 2753.15 706.36 2784.59 697.353C2875.37 669.875 2962.65 674.033 3051.81 705.667" stroke="url(#paint18_linear_355_3437)"/>
<path opacity="0.65" d="M-4.19336 688.578C177.83 692.274 360.087 689.965 541.645 675.879C656.864 668.029 772.782 654.404 888.235 664.103C949.452 668.72 1008.81 686.27 1067.47 703.819C1082.59 707.974 1098.66 711.901 1114.02 714.44C1124.49 714.904 1136.13 714.44 1146.84 714.672C1157.31 714.672 1168.72 714.672 1179.19 714.672C1196.65 712.594 1213.88 706.358 1230.17 700.356C1301.4 670.107 1361.22 641.012 1438.49 674.724C1467.82 686.27 1494.59 708.9 1526.02 713.978C1540.68 713.055 1557.21 716.056 1571.41 711.671C1620.52 692.274 1656.13 651.401 1714.32 659.947C1741.56 663.409 1765.3 678.418 1787.88 692.966C1800.68 700.818 1814.18 709.129 1828.85 713.287C1835.13 713.287 1842.81 713.287 1849.1 713.287C1904.96 718.136 1937.55 644.938 2029.72 660.408C2079.07 668.72 2120.27 701.279 2168.92 712.132C2187.54 712.824 2206.39 712.362 2224.79 712.132C2273.43 701.509 2316.27 673.339 2365.14 663.409C2414.95 652.095 2467.55 656.944 2515.75 673.108C2551.36 684.654 2585.8 700.818 2622.34 709.129C2640.51 713.517 2659.59 710.746 2678.21 711.439C2685.42 711.439 2693.34 711.439 2700.55 711.439C2718.71 708.668 2736.63 703.357 2754.1 697.585C2788.55 686.039 2822.54 672.646 2858.14 664.796C2921.92 650.017 2989.65 654.404 3051.57 675.879" stroke="url(#paint19_linear_355_3437)"/>
<path opacity="0.65" d="M-4.19336 675.417C154.321 679.341 313.067 680.267 471.348 671.259C584.474 665.487 696.667 650.017 809.56 641.01C879.389 636.161 950.615 635.008 1019.51 649.555C1062.81 658.099 1104.01 674.263 1146.61 685.807C1163.36 690.888 1181.05 692.504 1198.51 691.811C1212.94 691.118 1228.77 693.198 1242.97 690.426C1275.56 683.036 1305.35 666.642 1336.08 654.173C1375.42 637.316 1420.57 630.389 1462.24 643.551C1499.02 654.173 1529.27 680.496 1566.28 691.118C1580.95 690.426 1596.78 692.504 1611.21 689.965C1655.43 674.263 1691.75 634.544 1741.56 635.931C1804.4 635.008 1841.18 693.889 1885.17 690.194C1893.09 690.194 1901.93 690.194 1909.85 690.194C1925.44 686.039 1940.11 677.263 1954.07 669.182C2036.01 616.073 2092.34 631.312 2174.74 671.721C2196.16 681.19 2218.97 691.581 2242.94 689.271C2261.09 688.81 2279.71 691.118 2296.93 684.422C2329.99 674.031 2360.71 657.405 2393.53 646.784C2463.36 623.462 2530.86 633.853 2597.44 661.793C2623.29 671.953 2649.11 682.574 2676.35 687.655C2688.92 688.578 2701.95 687.655 2714.76 687.885C2724.06 687.655 2733.61 688.117 2742.93 687.655C2760.62 684.422 2778.07 679.112 2794.83 673.108C2827.41 661.561 2859.3 648.169 2893.06 640.548C2945.42 628.311 3000.83 630.159 3052.04 646.091" stroke="url(#paint20_linear_355_3437)"/>
<path opacity="0.65" d="M-4.19336 661.332C182.486 666.181 369.863 668.491 556.542 656.251C655.468 650.017 753.695 634.777 852.155 622.539C960.625 609.376 1055.59 608.915 1159.18 648.169C1188.27 657.406 1218.07 670.798 1249.26 668.72C1270.21 668.491 1291.85 670.798 1311.64 662.717C1352.6 648.862 1389.61 623.694 1432.68 616.073C1468.29 609.146 1505.76 615.842 1537.89 632.699C1558.6 643.09 1578.39 656.483 1600.27 664.794C1610.51 669.182 1622.61 667.336 1633.55 667.566C1638.44 667.566 1645.19 667.566 1650.08 667.566C1655.2 666.181 1661.72 663.642 1666.61 661.332C1700.36 645.168 1730.15 618.151 1768.33 613.302C1825.59 604.989 1858.17 643.552 1905.43 663.871C1911.25 666.643 1918.69 667.104 1924.98 666.643C1934.52 666.643 1944.76 666.643 1954.31 666.411C1983.4 657.638 2008.08 638.241 2035.78 626.233C2079.53 605.682 2131.44 607.53 2175.9 625.078C2198.94 633.854 2221.06 645.862 2243.87 655.096C2259.7 661.562 2276.23 667.336 2293.46 665.72C2305.56 665.72 2317.89 665.72 2329.99 665.72C2354.89 660.87 2378.42 649.785 2401.69 639.858C2448.01 618.613 2499.22 605.22 2550.66 612.147C2586.04 616.073 2619.56 629.466 2652.15 643.09C2666.8 649.094 2681.71 655.096 2697.08 659.484C2708.23 662.948 2719.89 665.488 2731.52 664.565C2747.8 664.333 2764.33 665.026 2780.39 664.103C2807.86 658.793 2833.94 647.708 2860 637.548C2922.15 611.686 2986.16 599.91 3052.27 617.458" stroke="url(#paint21_linear_355_3437)"/>
<path opacity="0.65" d="M-4.19336 645.168C103.112 648.171 210.65 648.632 317.956 647.939C420.14 647.939 522.557 647.478 624.743 640.78C731.816 635.008 837.026 614.227 942.935 598.755C1009.97 589.981 1079.1 586.517 1145.21 602.219C1193.39 612.379 1237.62 637.318 1286.27 645.629C1340.5 645.629 1345.86 649.326 1396.36 624.848C1453.86 595.06 1509.02 575.202 1571.41 604.99C1597.94 616.998 1621.45 635.701 1649.38 644.245C1661.72 645.4 1674.99 644.477 1687.56 644.706C1709.44 641.935 1727.83 626.697 1746.45 616.073C1813.48 573.124 1857.01 585.826 1919.86 627.158C1954.31 648.171 1958.73 643.783 1997.14 643.783C2024.14 636.856 2047.41 619.999 2072.32 608.455C2117.48 585.826 2171.24 582.129 2218.97 599.448C2247.37 609.146 2273.66 624.848 2301.83 635.47C2309.5 638.241 2318.12 641.012 2326.03 642.86C2333.72 643.322 2342.32 642.86 2350.02 643.09C2361.66 642.629 2373.99 644.477 2385.63 641.705C2437.07 627.62 2482.69 595.524 2536.45 589.75C2599.3 581.206 2647.95 601.526 2704.05 626.233C2715.23 630.852 2726.63 635.24 2738.27 638.473C2746.18 640.78 2754.57 642.86 2762.7 642.167C2773.65 642.167 2784.82 642.167 2795.76 642.167C2803.67 642.167 2811.83 642.628 2819.27 640.089C2852.79 631.775 2883.74 615.612 2916.1 603.836C2959.17 587.672 3006.65 581.668 3051.81 590.905" stroke="url(#paint22_linear_355_3437)"/>
<path opacity="0.65" d="M-4.19336 626.001C151.062 625.54 306.551 625.31 461.807 624.849C558.171 623.462 654.77 628.081 750.903 619.306C808.397 614.457 865.656 605.22 921.986 593.906C986.696 581.206 1052.1 567.35 1118.44 568.276C1164.99 568.505 1211.08 578.203 1254.38 595.06C1280.91 604.988 1307.68 616.996 1335.61 622.539C1353.77 622.769 1372.39 622.539 1390.31 622.539C1400.32 620.461 1411.03 616.767 1420.34 612.841C1478.76 586.517 1526.71 552.342 1593.98 573.816C1623.78 583.053 1648.92 602.681 1676.85 615.842C1681.5 617.919 1688.02 620.461 1693.14 621.845C1698.03 621.845 1704.55 621.845 1709.2 621.845C1719.68 621.384 1731.32 623.462 1741.32 619.074C1793.7 596.215 1826.52 555.113 1890.99 569.43C1930.33 577.974 1959.89 608.453 1997.6 620.461C2012.5 622.307 2029.49 621.152 2044.62 620.922C2059.05 616.996 2073.02 610.301 2086.28 603.604C2174.51 555.574 2228.73 552.112 2319.05 598.987C2336.74 607.53 2355.12 616.073 2374.45 620.229C2392.37 619.999 2410.76 620.922 2428.68 619.536C2467.78 610.069 2502.23 587.21 2540.65 575.203C2573.93 564.349 2610.01 561.578 2644.45 568.276C2679.13 574.509 2710.8 590.905 2742.93 604.988C2756.42 610.763 2770.61 616.073 2785.05 619.074C2794.83 619.536 2804.83 619.074 2814.61 619.306C2823.23 619.306 2832.07 619.536 2840.69 619.074C2865.35 613.995 2888.4 603.142 2911.44 592.983C2955.21 572.661 3003.38 558.577 3052.04 565.272" stroke="url(#paint23_linear_355_3437)"/>
<path opacity="0.65" d="M-4.19336 602.91C254.644 602.219 513.479 601.526 772.085 601.064C836.329 602.219 900.571 592.75 963.185 579.819C1021.14 567.811 1078.64 551.648 1137.76 546.798C1191.76 541.72 1247.39 547.724 1297.9 568.043C1326.3 578.664 1354.23 592.521 1384.03 599.216C1395.67 600.139 1408.47 599.448 1420.11 599.677C1432.21 600.371 1444.55 599.216 1455.72 594.599C1483.88 584.439 1509.26 567.582 1537.19 556.497C1578.62 538.487 1626.8 540.797 1666.14 563.656C1682.44 572.199 1698.26 583.052 1714.79 591.134C1721.31 594.137 1728.99 597.599 1736.2 598.986C1740.86 598.986 1747.38 598.986 1752.03 598.986C1760.41 598.522 1770.19 599.909 1778.33 597.831C1802.54 589.518 1823.26 572.892 1845.61 560.884C1884.94 538.025 1930.1 538.255 1969.67 560.193C1993.18 572.199 2015.06 588.595 2040.43 596.676C2046.02 598.754 2053.23 598.061 2059.05 598.293C2069.53 598.293 2080.7 598.293 2091.17 598.293C2111.9 593.212 2131.21 583.284 2150.05 573.586C2206.85 542.643 2262.72 531.328 2324.4 556.729C2345.82 565.272 2366.3 576.818 2387.48 586.055C2397.26 590.441 2407.74 594.367 2418.22 596.676C2424.27 597.599 2431.25 596.906 2437.3 597.138C2448.47 596.906 2460.11 597.37 2471.05 596.906C2500.84 589.979 2527.62 574.047 2555.55 562.039C2587.66 547.492 2623.29 539.18 2658.9 542.181C2691.26 544.491 2721.74 556.729 2750.6 570.814C2765.28 577.741 2779.93 585.13 2795.3 590.441C2803.67 593.212 2812.52 596.906 2821.59 596.215C2836.72 595.983 2852.33 596.445 2867.44 595.983C2876.06 594.137 2884.67 591.366 2892.82 588.133C2947.05 566.195 2990.12 537.1 3052.5 540.797" stroke="url(#paint24_linear_355_3437)"/>
<path opacity="0.65" d="M-4.19336 580.051C186.908 580.512 378.009 567.35 569.111 573.122C648.718 574.97 728.324 579.587 807.931 577.973C850.294 577.048 893.356 579.819 935.487 575.663C999.731 569.427 1062.11 551.186 1124.49 536.177C1180.82 523.016 1240.41 515.857 1297.67 528.095C1327.7 534.331 1356.1 546.568 1384.03 558.576C1406.84 568.275 1430.58 578.664 1455.95 576.357C1465.5 576.357 1475.97 576.357 1485.28 576.357C1514.14 569.659 1539.52 552.802 1565.82 540.103C1604.92 519.552 1652.87 513.548 1693.37 532.944C1715.72 542.874 1735.74 557.651 1757.38 568.275C1763.67 571.276 1771.35 574.74 1778.33 575.663C1782.99 575.663 1789.27 575.663 1793.93 575.663C1800.45 575.663 1808.13 575.663 1814.65 575.663C1819.54 574.508 1825.59 572.199 1830.01 570.121C1852.82 559.499 1873.3 543.565 1896.11 532.714C1931.03 515.164 1973.39 516.78 2008.08 534.331C2037.17 547.262 2063.47 570.121 2095.83 574.74C2109.09 574.74 2123.07 574.74 2136.33 574.74C2158.45 571.507 2178.45 559.268 2198.48 549.569C2252.01 520.013 2306.25 508.005 2364.9 531.56C2398.42 544.029 2428.45 567.12 2464.07 573.815C2478.73 573.815 2493.63 573.815 2508.28 573.815C2535.29 569.198 2559.26 554.189 2583.95 542.874C2616.29 526.94 2652.38 515.857 2688.92 518.628C2715 520.013 2740.36 528.556 2763.86 539.641C2788.78 551.186 2812.75 565.965 2839.76 572.66C2849.99 573.585 2860.7 572.66 2870.94 572.892C2879.08 572.43 2887.93 574.047 2896.07 571.276C2923.77 563.426 2948.46 548.646 2974.52 537.1C2998.97 526.017 3025.26 518.167 3052.27 517.474" stroke="url(#paint25_linear_355_3437)"/>
<path opacity="0.65" d="M-4.19336 556.268C168.287 549.341 340.767 537.333 513.479 538.487C594.25 538.719 675.254 542.182 756.022 547.724C789.775 550.034 823.757 552.573 857.276 554.651C880.553 554.883 904.528 554.651 927.804 554.651C959.693 553.728 992.514 556.499 1024.17 552.112C1082.59 544.953 1138.69 525.556 1195.72 511.241C1250.89 497.617 1310.01 492.536 1365.17 508.931C1387.99 515.397 1410.1 525.556 1431.75 535.255C1448.74 542.413 1466.43 551.187 1485.05 553.496C1494.36 553.496 1504.83 553.496 1514.14 553.496C1521.36 553.267 1530.2 554.19 1537.19 551.65C1576.53 539.41 1609.35 511.009 1649.61 501.543C1684.53 492.536 1721.77 500.617 1752.27 518.859C1771.12 529.482 1789.28 542.643 1809.53 550.264C1817.44 553.728 1826.98 552.341 1835.13 552.573C1845.14 552.341 1856.31 553.958 1865.62 549.109C1896.58 535.948 1922.65 512.396 1955.24 502.466C1997.83 488.38 2040.9 502.927 2077.91 524.633C2090.94 531.79 2104.67 539.181 2118.64 544.953C2127.01 548.186 2136.33 552.341 2145.42 551.88C2158.45 551.88 2171.94 551.88 2184.99 551.88C2206.39 547.031 2226.18 535.716 2245.73 525.788C2296.24 497.617 2348.84 485.609 2404.47 507.776C2437.53 520.246 2466.63 542.643 2501.31 550.957C2516.91 550.725 2532.74 551.187 2548.32 550.725C2570.9 545.185 2591.39 533.638 2611.88 523.247C2643.53 506.621 2678.67 493.461 2715 495.539C2739.66 496.462 2763.63 503.85 2785.52 514.474C2809.49 525.788 2831.83 540.565 2857.45 548.417C2865.35 551.418 2874.44 550.034 2882.58 550.264C2892.59 549.802 2902.84 550.957 2912.83 549.57C2937.52 543.107 2959.87 529.712 2982.44 518.398C3004.08 507.547 3027.14 498.31 3051.57 495.539" stroke="url(#paint26_linear_355_3437)"/>
<path opacity="0.65" d="M-4.19336 529.25C211.349 515.626 427.124 498.539 643.131 506.16C738.1 508.929 832.835 518.859 927.339 528.557C956.9 532.251 987.162 531.558 1017.19 531.328C1043.96 530.635 1071.42 533.174 1097.96 529.018C1189.9 516.319 1276.26 465.75 1371.23 476.601C1404.98 479.834 1437.1 492.074 1467.36 506.389C1486.21 515.165 1505.53 524.631 1525.78 529.48C1536.96 530.173 1549.06 529.712 1560.23 529.712C1573.96 531.096 1587.47 526.479 1599.8 520.707C1616.8 512.855 1633.32 502.695 1649.85 494.152C1707.81 462.747 1756.69 469.674 1810.22 505.466C1826.29 514.471 1842.58 527.172 1861.2 529.018C1869.35 529.018 1878.42 529.018 1886.34 529.018C1890.99 529.018 1897.05 529.48 1901.24 527.402C1925.91 518.627 1947.09 501.772 1970.37 489.996C2007.84 468.983 2053.7 468.29 2092.8 485.838C2124.46 498.307 2152.39 520.475 2185.92 528.325C2197.32 528.325 2209.19 528.325 2220.6 528.325C2229.2 529.019 2238.28 526.709 2246.19 523.246C2304.86 498.307 2343.25 462.286 2413.33 474.985C2437.3 479.372 2459.65 490.457 2480.83 502.002C2499.22 511.7 2517.83 523.015 2538.56 527.402C2552.51 527.402 2566.96 527.402 2580.91 527.402C2602.1 523.246 2620.95 511.7 2639.8 502.002C2670.76 484.915 2704.98 470.136 2741.28 471.752C2765.51 472.216 2789.25 479.834 2810.65 490.687C2833.22 501.772 2854.41 516.319 2878.38 524.401C2885.15 527.402 2893.29 526.479 2900.5 526.479C2909.35 526.479 2918.65 526.479 2927.74 526.479C2946.82 523.708 2964.04 512.855 2981.03 504.311C3003.61 492.074 3026.65 479.604 3052.04 474.062" stroke="url(#paint27_linear_355_3437)"/>
<path opacity="0.65" d="M-4.19336 501.079C328.198 473.139 665.012 449.355 996.238 502.233C1011.83 504.311 1028.36 506.389 1043.96 507.776C1061.65 508.469 1080.04 507.776 1097.49 508.008C1121.47 507.314 1146.14 509.854 1169.88 505.005C1215.51 497.384 1259.03 479.836 1303.26 466.444C1374.72 444.506 1441.29 445.892 1508.09 480.759C1528.58 490.457 1549.06 501.54 1571.41 506.621C1578.62 506.621 1587 506.621 1593.98 506.621C1600.97 506.621 1609.35 506.621 1616.33 506.621C1629.83 503.62 1643.1 497.155 1655.2 490.689C1695 467.828 1736.2 442.889 1784.39 453.051C1810.69 457.9 1833.97 472.677 1856.31 486.531C1868.88 494.152 1882.15 501.772 1896.35 505.928C1902.63 506.16 1910.08 505.928 1916.13 505.928C1922.18 505.928 1929.63 505.928 1935.92 505.928C1947.79 502.695 1959.43 496.691 1970.13 490.457C2012.5 464.366 2050.21 442.659 2102.11 452.358C2134.24 457.668 2162.41 474.987 2190.57 489.996C2202.68 496.229 2215.7 502.695 2229.2 505.237C2237.36 505.237 2246.42 505.237 2254.58 505.237C2261.33 505.005 2269 505.928 2275.51 504.311C2294.62 498.771 2312.3 488.611 2329.53 479.375C2356.53 464.366 2385.86 450.741 2417.5 449.586C2442.19 448.202 2466.86 454.204 2488.97 464.827C2513.18 476.142 2535.06 492.074 2560.19 501.31C2569.97 505.698 2581.14 504.082 2591.62 504.311C2598.37 504.311 2605.58 504.311 2612.35 504.311C2617.93 503.62 2624.22 501.079 2629.57 499.001C2674.01 479.604 2712.19 447.047 2763.63 448.663C2786.44 448.663 2808.79 455.59 2829.05 465.75C2849.75 476.142 2868.85 489.764 2890.25 498.771C2894.45 500.617 2899.57 502.233 2903.77 503.388C2907.01 503.62 2911.44 503.388 2914.71 503.62C2924.47 503.62 2934.48 503.62 2944.27 503.62C2960.33 501.542 2974.98 492.306 2989.19 484.915C3009.43 473.6 3029.46 461.363 3051.81 454.436" stroke="url(#paint28_linear_355_3437)"/>
<path opacity="0.65" d="M-4.19336 472.907C195.055 453.049 395.001 439.195 595.413 439.656C688.987 439.656 783.024 441.273 876.364 450.048C943.633 456.052 1010.44 468.058 1077.01 478.911C1092.14 481.221 1108.2 483.76 1123.56 484.915C1136.37 484.915 1150.1 484.915 1162.9 484.915C1184.31 484.222 1206.43 486.763 1227.38 482.837C1272.53 474.987 1314.9 456.282 1358.42 442.66C1408.47 426.725 1463.87 422.57 1513.68 441.273C1539.28 450.51 1563.26 464.595 1588.16 475.449C1598.64 479.604 1610.28 484.685 1621.92 483.76C1634.49 483.299 1648.22 484.685 1660.55 482.837C1719.45 463.441 1755.76 415.643 1825.82 430.42C1866.79 438.272 1896.81 471.523 1936.15 482.837C1948.95 482.837 1962.22 482.837 1975.02 482.837C1981.31 481.453 1988.52 478.45 1994.34 475.678C2045.55 448.893 2080.47 419.105 2143.31 428.803C2171.47 433.191 2197.09 447.045 2221.76 461.131C2236.43 469.213 2251.78 477.526 2268.07 481.914C2274.82 482.376 2282.28 482.144 2289.03 482.144C2296.93 481.914 2305.79 482.376 2313.69 481.682C2326.49 478.22 2338.85 472.216 2350.48 465.98C2376.08 452.126 2401.23 435.962 2429.86 429.497C2462.43 421.647 2497.11 427.88 2526.46 443.583C2546.46 453.742 2565.08 466.905 2585.8 475.91C2593.25 479.143 2601.64 482.144 2609.77 481.221C2619.79 481.221 2630.27 481.221 2640.28 481.221C2663.32 477.065 2683.33 462.056 2703.82 451.203C2727.1 437.81 2752.69 426.496 2779.93 425.571C2815.77 423.263 2848.83 440.58 2878.15 459.515C2892.59 467.596 2907.24 478.22 2924.01 480.527C2937.29 480.066 2950.78 481.221 2963.81 480.066C2995.47 470.138 3021.3 447.738 3051.81 435.269" stroke="url(#paint29_linear_355_3437)"/>
<path opacity="0.65" d="M-4.19336 444.735C166.192 426.032 337.508 414.024 509.058 411.946C626.373 410.33 743.919 409.407 861.233 415.179C928.736 418.643 996.472 426.032 1062.81 438.733C1104.71 446.351 1146.37 456.281 1188.74 461.36C1203.4 461.36 1219 461.36 1233.66 461.36C1246 461.36 1259.27 461.36 1271.84 461.36C1299.53 457.666 1326.54 448.893 1352.61 439.195C1413.12 415.179 1477.83 393.011 1542.78 412.871C1580.48 423.261 1612.6 447.968 1649.85 459.282C1665.44 461.36 1683.37 460.208 1699.19 459.746C1737.14 448.661 1767.39 419.566 1805.57 408.945C1873.77 390.472 1906.12 427.88 1961.06 454.665C1969.9 459.282 1980.14 459.744 1989.92 459.282C1999.23 458.821 2009.47 460.437 2018.55 458.128C2045.32 449.354 2068.36 431.804 2093.73 420.028C2135.4 399.015 2184.99 397.399 2226.88 418.873C2252.24 430.651 2275.05 448.2 2301.83 456.975C2310.91 459.976 2321.14 458.13 2330.46 458.591C2336.97 458.359 2344.2 458.821 2350.72 458.128C2358.85 455.82 2367.24 452.355 2374.92 448.661C2394.92 438.733 2413.79 425.802 2434.26 416.334C2487.12 391.395 2533.2 402.248 2580.45 433.42C2595.59 442.657 2610.93 452.355 2627.93 457.436C2633.28 458.13 2639.33 457.666 2644.69 457.666C2652.38 457.666 2660.29 457.666 2667.96 457.666C2681.01 454.895 2692.88 447.968 2704.29 441.734C2729.65 426.955 2754.57 409.638 2783.89 404.096C2811.83 398.324 2841.15 404.096 2865.82 417.95C2887.7 429.496 2907.24 445.89 2930.54 454.897C2938.68 458.591 2948.23 456.513 2957.06 456.975C2962.88 456.975 2969.4 456.975 2975.21 456.975C2982.45 455.358 2989.42 452.126 2995.94 448.661C3015.02 438.963 3032.71 426.032 3051.81 416.334" stroke="url(#paint30_linear_355_3437)"/>
<path opacity="0.65" d="M-4.19336 417.26C118.242 403.174 241.143 392.782 364.51 389.088C524.885 384.239 685.728 383.777 846.336 385.855C916.167 387.242 986.462 390.243 1055.59 400.634C1113.32 408.716 1169.88 424.418 1227.14 435.271C1243.67 438.966 1261.13 438.734 1277.89 438.504C1294.41 438.272 1311.4 438.734 1327.93 438.041C1405.68 424.88 1472.01 372.233 1554.18 383.547C1601.43 387.933 1639.84 418.183 1682.9 434.578C1692.91 438.734 1704.78 437.118 1715.49 437.349C1724.1 436.888 1734.11 438.504 1742.26 435.501C1786.48 419.569 1823.26 381.931 1872.61 381.467C1942.2 378.467 1979.45 441.044 2028.56 436.656C2037.64 436.195 2047.65 437.579 2056.72 435.733C2084.66 426.958 2108.86 409.178 2135.17 396.94C2174.51 376.85 2221.99 374.54 2261.56 394.63C2286.69 406.177 2309.04 423.725 2335.11 433.423C2345.13 437.579 2356.53 435.271 2367.24 435.733C2372.11 435.733 2378.19 435.733 2383.06 435.733C2394.23 433.423 2404.71 427.881 2414.72 422.57C2435.21 411.256 2454.76 397.631 2476.64 389.088C2508.98 375.466 2547.16 377.082 2578.13 393.707C2602.33 405.713 2623.52 423.957 2648.88 433.423C2653.77 435.733 2660.29 435.271 2665.41 435.271C2672.85 435.271 2681.01 435.271 2688.45 435.271C2700.09 435.04 2711.03 427.881 2721.05 422.802C2738.04 413.104 2754.57 401.328 2772.26 392.782C2799.49 378.698 2832.53 374.772 2861.39 385.855C2893.52 397.17 2917.72 423.957 2950.08 434.578C2962.19 434.808 2974.52 434.578 2986.39 434.578C3010.61 428.342 3030.39 411.256 3051.81 399.018" stroke="url(#paint31_linear_355_3437)"/>
<path opacity="0.65" d="M-4.19336 390.243C168.054 368.536 341.699 361.148 515.109 361.148C641.967 360.916 768.825 360.223 895.45 360.454C964.349 361.148 1033.71 362.532 1101.91 372.231C1154.98 379.389 1206.66 393.475 1258.57 406.174C1281.15 411.717 1304.42 416.334 1327.7 414.718C1345.86 414.025 1364.94 416.105 1382.87 413.333C1450.6 399.247 1511.12 353.296 1582.58 358.838C1633.32 360.454 1671.03 390.011 1715.49 409.175C1725.5 414.025 1736.9 414.256 1747.61 413.795C1757.85 413.333 1769.49 415.179 1779.27 411.717C1822.79 395.553 1859.1 358.377 1907.75 357.915C1964.78 354.912 1998.3 396.476 2047.41 412.64C2062.54 413.563 2078.6 413.563 2093.73 412.408C2123.07 403.865 2147.97 384.93 2175.44 372.231C2218.49 350.756 2266.22 352.141 2307.64 376.618C2329.99 388.626 2350.72 405.02 2375.61 412.178C2388.64 412.178 2401.92 412.178 2414.95 412.178C2449.87 402.71 2476.64 375.232 2510.86 363.455C2542.04 351.218 2577.9 354.912 2606.76 371.537C2627.23 382.39 2645.38 397.861 2666.34 407.559C2668.91 408.714 2673.32 410.33 2676.12 411.253C2681.24 411.947 2687.29 411.485 2692.42 411.485C2700.79 411.024 2710.1 412.872 2718.24 410.33C2740.36 402.248 2758.97 387.24 2779 375.463C2806.94 357.915 2842.08 349.14 2873.98 360.684C2893.75 367.381 2910.98 380.312 2927.97 392.089C2939.37 399.477 2950.78 408.252 2964.27 410.792C2975.45 410.792 2986.62 410.792 2997.79 410.792C3017.82 405.02 3034.58 391.395 3051.81 380.544" stroke="url(#paint32_linear_355_3437)"/>
<path opacity="0.65" d="M-4.19336 363.918C193.426 337.593 393.14 336.208 592.156 338.518C716.453 339.902 840.984 337.593 965.28 336.67C1030.69 336.67 1096.56 337.593 1161.27 347.523C1213.41 354.911 1264.15 370.614 1315.13 383.776C1327.23 386.777 1340.03 389.548 1352.37 391.397C1374.48 391.626 1397.06 391.397 1419.41 391.397C1492.26 380.082 1548.59 326.971 1628.2 335.976C1651.24 338.056 1673.82 345.906 1694.31 356.528C1715.49 367.151 1735.97 380.773 1758.78 388.394C1766.93 391.626 1776.71 390.242 1785.08 390.472C1793.46 390.242 1803.01 391.165 1811.15 389.548C1856.31 374.308 1893.09 334.824 1943.13 334.36C1998.07 331.359 2033.21 371.075 2080.7 388.164C2086.05 390.472 2093.27 389.78 2099.09 389.78C2107.93 389.78 2117.48 389.78 2126.32 389.78C2154.25 385.161 2177.52 365.996 2202.44 353.527C2241.78 331.127 2288.1 326.048 2329.06 347.523C2354.66 359.76 2376.77 379.389 2404.01 388.394C2412.63 390.01 2422.39 388.625 2431.25 389.087C2435.91 389.087 2441.96 389.317 2446.62 388.625C2452.9 386.548 2459.88 383.545 2465.7 380.544C2481.3 372.23 2495.95 361.838 2511.09 353.065C2546 331.359 2587.66 325.125 2624.68 345.445C2645.38 356.066 2663.09 371.537 2683.56 382.39C2688.45 384.699 2694.27 387.7 2699.63 388.394C2706.84 388.394 2714.76 388.394 2722.21 388.394C2740.13 390.242 2755.49 378.695 2769.91 369.69C2804.83 345.213 2841.62 321.661 2886.08 337.131C2902.84 342.674 2917.72 353.065 2931.7 363.455C2940.77 370.152 2950.32 377.079 2960.1 382.39C2965.68 385.161 2971.74 388.625 2978.02 387.932C2987.34 387.932 2996.87 387.932 3006.18 387.932C3023.18 383.776 3037.36 372.23 3051.57 362.763" stroke="url(#paint33_linear_355_3437)"/>
<path opacity="0.65" d="M-4.19336 338.519C92.4049 326.049 189.934 318.199 287.463 315.889C406.641 312.656 525.817 316.351 644.992 317.737C774.644 320.277 904.064 315.657 1033.71 313.118C1095.63 312.425 1158.24 313.35 1219.46 323.51C1270.9 331.36 1320.25 349.14 1370.53 362.303C1397.99 370.614 1426.86 367.381 1455.02 367.843C1488.07 366.69 1518.57 349.601 1548.59 337.134C1587 319.354 1629.83 306.423 1672.43 313.35C1717.82 319.122 1753.43 351.218 1795.56 365.765C1801.85 367.613 1809.76 366.69 1816.51 366.92C1824.89 366.92 1833.97 366.92 1842.35 366.69C1889.6 351.681 1924.98 311.04 1977.82 310.579C2030.66 307.807 2067.43 345.907 2113.52 363.457C2118.87 365.765 2125.85 366.458 2131.67 366.229C2140.29 366.229 2149.82 366.229 2158.68 366.229C2168 366.69 2177.06 362.071 2185.45 358.608C2198.94 352.143 2212.21 343.829 2225.02 336.441C2261.56 313.58 2304.86 300.88 2346.75 317.967C2366.53 325.588 2384 338.057 2401.69 349.372C2415.65 357.915 2430.55 367.613 2447.78 365.535C2456.38 365.304 2465.7 365.997 2474.3 364.842C2497.57 356.992 2517.14 340.828 2538.09 328.359C2569.74 308.269 2609.08 301.803 2643.3 319.815C2661.91 329.052 2677.74 342.674 2695.2 353.527C2701.95 357.915 2709.64 361.841 2717.31 364.38C2722.44 364.38 2728.26 364.38 2733.15 364.38C2739.2 364.38 2745.94 364.38 2751.99 364.38C2759.69 362.071 2767.36 358.147 2774.11 353.989C2810.9 330.437 2845.58 297.877 2893.29 311.272C2912.37 316.351 2928.66 328.359 2944.03 340.135C2952.17 346.369 2960.79 352.834 2969.63 357.915C2973.36 360.225 2978.25 362.303 2982.45 363.687C2985.46 364.149 2989.66 363.919 2992.67 363.919C3001.06 363.457 3009.66 364.61 3018.05 363.226C3030.39 358.608 3041.56 350.988 3052.5 343.368" stroke="url(#paint34_linear_355_3437)"/>
<path opacity="0.65" d="M-4.19336 314.041C100.319 299.958 205.762 292.567 311.206 291.644C434.805 290.259 558.403 296.261 682.002 298.571C814.913 302.036 947.822 295.338 1080.5 290.259C1141.49 288.643 1203.17 288.643 1263.69 298.571C1310.47 305.96 1355.4 321.662 1400.56 335.286C1412.19 338.751 1424.76 341.752 1436.87 344.061C1454.32 345.216 1472.71 344.291 1490.17 344.523C1522.99 344.984 1553.25 327.204 1582.58 314.735C1618.89 297.648 1658.93 284.024 1699.66 289.105C1722.24 291.644 1744.12 299.958 1764.14 310.809C1784.62 321.662 1804.64 335.054 1826.75 342.445C1833.04 344.753 1840.95 343.6 1847.23 343.829C1855.38 343.829 1864.46 343.829 1872.84 343.829C1921.95 329.282 1955.01 287.488 2011.57 287.488C2060.22 285.64 2098.62 319.354 2140.76 338.057C2155.87 345.678 2173.35 342.445 2189.63 342.906C2197.09 343.6 2204.99 340.597 2211.51 337.596C2223.38 332.285 2235.25 325.356 2246.42 318.429C2269.7 304.113 2294.62 289.566 2322.55 287.027C2354.19 283.101 2384.7 296.493 2410.06 314.041C2421.24 321.432 2432.41 329.282 2444.28 335.518C2450.1 338.057 2456.61 342.213 2463.13 341.983C2474.3 341.983 2485.71 341.983 2496.88 341.752C2515.98 335.518 2532.28 322.817 2549.04 311.964C2605.81 272.479 2646.33 278.481 2699.39 320.971C2706.37 326.049 2713.82 331.36 2721.51 335.518C2726.17 337.826 2731.76 341.29 2737.11 341.058C2744.32 341.058 2752 341.058 2758.97 341.058C2765.28 341.752 2772.02 340.135 2777.61 336.903C2817.41 315.89 2849.52 275.248 2899.8 286.563C2918.88 290.721 2935.41 302.497 2950.55 314.273C2959.63 321.2 2968.7 328.589 2978.71 334.593C2982.45 336.902 2987.08 338.98 2991.28 340.597C2994.31 340.597 2998.49 340.597 3001.52 340.597C3008.97 340.367 3016.66 340.829 3024.1 340.367C3034.35 336.671 3043.65 330.437 3052.5 324.203" stroke="url(#paint35_linear_355_3437)"/>
<path opacity="0.65" d="M-4.19336 290.027C108 274.327 221.591 267.168 334.948 267.861C458.081 268.091 580.983 276.405 704.116 279.637C840.75 284.255 977.384 276.173 1113.79 267.861C1223.19 262.087 1308.61 264.858 1412.66 302.958C1441.52 312.426 1471.08 323.509 1502.04 320.97C1521.36 320.738 1541.61 322.586 1560 315.198C1601.9 301.341 1639.61 275.25 1683.6 267.168C1720.14 259.779 1758.55 266.936 1790.9 284.716C1811.62 295.34 1831.17 308.732 1853.05 317.044C1862.36 321.431 1873.54 319.815 1883.55 320.047C1889.83 320.047 1897.28 320.047 1903.8 320.047C1908.45 318.892 1914.5 316.814 1918.93 314.736C1955.01 298.572 1986.43 270.169 2026.7 264.858C2074.88 256.776 2115.61 282.409 2155.18 305.729C2164.73 311.04 2175.44 316.121 2185.92 319.122C2197.32 319.353 2209.42 319.122 2220.83 319.122C2231.54 319.585 2241.78 313.581 2251.08 308.962C2267.15 300.418 2282.28 289.797 2298.09 281.022C2329.53 262.087 2369.79 255.853 2403.55 272.247C2424.04 281.484 2441.5 296.031 2460.58 307.577C2467.32 311.733 2475.25 315.659 2482.92 318.199C2495.02 318.199 2507.82 318.66 2519.92 317.969C2561.83 302.035 2593.01 259.316 2641.67 262.087C2672.16 262.78 2696.59 283.1 2719.63 300.65C2729.18 307.345 2739.2 315.198 2750.84 317.969C2757.81 317.969 2765.51 317.969 2772.72 317.969C2809.25 320.047 2842.31 257.931 2898.41 261.857C2918.42 262.78 2936.59 273.402 2951.94 285.641C2962.88 293.953 2973.36 303.421 2985 310.81C2988.73 313.12 2993.39 315.659 2997.56 317.276C3000.6 317.737 3004.56 317.505 3007.81 317.505C3015.25 317.276 3022.94 317.737 3030.39 317.276C3038.29 314.272 3045.76 309.655 3052.73 304.806" stroke="url(#paint36_linear_355_3437)"/>
<path opacity="0.65" d="M-4.19336 267.17C123.828 248.235 253.712 241.769 383.13 245.464C529.308 249.158 675.254 263.012 821.43 262.782C898.709 263.012 975.988 259.318 1052.8 253.084C1128.92 247.542 1205.5 239.46 1282.08 243.154C1330.49 245.232 1378.67 254.93 1424.3 270.864C1453.63 280.331 1482.72 292.8 1513.45 297.649C1532.53 297.649 1552.09 297.649 1571.17 297.417C1586.53 294.185 1602.13 288.644 1616.56 282.179C1688.95 246.848 1744.35 220.063 1822.09 262.55C1842.35 273.172 1861.67 286.566 1883.31 294.416C1890.99 297.649 1900.31 296.494 1908.45 296.726C1916.37 296.494 1925.44 296.956 1933.36 296.263C1950.81 291.184 1967.11 281.254 1982.7 271.787C2025.3 244.309 2069.99 229.761 2119.57 248.235C2152.39 259.779 2179.17 284.486 2212.2 295.34C2221.99 296.494 2232.46 295.571 2242.48 295.801C2252.96 296.956 2263.18 293.262 2272.5 288.412C2294.15 277.33 2313.69 261.857 2335.58 251.468C2363.74 237.15 2398.66 235.072 2427.29 249.39C2450.1 260.011 2468.71 277.791 2490.83 289.567C2495.26 291.645 2500.61 294.646 2505.5 295.11C2511.32 295.11 2518.07 295.11 2523.88 295.11C2528.31 295.11 2533.9 295.11 2538.56 295.11C2549.04 291.645 2558.8 285.641 2567.88 279.637C2585.34 267.861 2601.87 254.007 2621.41 245.693C2671 225.374 2701.95 252.391 2739.2 281.485C2745.71 286.335 2753.15 290.952 2760.85 293.955C2770.84 295.571 2781.55 294.185 2791.57 294.416C2796.92 294.416 2802.28 290.722 2806.94 288.412C2814.38 284.025 2821.59 278.714 2828.35 273.635C2845.58 260.473 2863.27 245.925 2884.67 240.383C2897.48 237.15 2911.21 237.382 2923.77 241.538C2936.36 245.693 2947.76 253.314 2957.99 261.396C2972.66 272.71 2985.92 286.796 3003.38 293.723C3013.39 294.185 3023.41 293.723 3033.42 293.955C3040.17 292.107 3046.45 287.951 3052.04 284.257" stroke="url(#paint37_linear_355_3437)"/>
<path opacity="0.65" d="M-4.19336 245C115.449 226.065 236.72 218.447 357.759 221.68C482.988 224.219 607.751 236.689 732.747 241.768C813.982 245.232 895.684 245.232 977.152 240.845C1048.84 237.15 1120.54 228.837 1191.99 223.064C1265.32 217.292 1340.27 214.521 1411.96 233.456C1456.19 244.309 1497.62 265.09 1542.31 274.327C1563.03 274.095 1584.67 275.711 1605.16 273.404C1638.68 265.322 1668.24 246.849 1699.66 233.456C1741.32 214.751 1790.9 211.288 1832.57 231.378C1851.89 239.922 1870.04 251.927 1888.67 261.857C1897.98 266.475 1908.22 271.788 1918.69 273.634C1923.12 273.634 1929.17 273.634 1933.59 273.634C1941.5 273.634 1950.35 273.634 1958.26 273.634C1970.13 270.633 1981.77 264.858 1992.48 258.857C2032.28 234.841 2070.92 210.595 2119.8 218.447C2145.65 221.91 2169.16 234.611 2191.04 248.233C2207.34 257.47 2223.61 270.401 2242.71 272.94C2251.08 272.94 2259.94 272.94 2268.31 272.94C2275.28 273.404 2283.21 272.017 2289.49 268.784C2333.96 247.542 2369.56 206.671 2424.04 218.215C2443.58 222.141 2461.04 232.995 2476.87 244.539C2486.42 251.466 2496.18 258.857 2506.2 264.858C2513.64 269.478 2522.49 273.634 2531.79 272.249C2541.34 271.556 2551.82 273.865 2560.67 270.401C2587.89 258.393 2608.38 235.072 2635.62 223.296C2682.87 202.283 2714.07 228.145 2749.21 257.24C2756.65 263.012 2764.79 268.555 2773.65 271.787C2783.66 271.787 2794.14 271.787 2804.13 271.787C2833.46 260.703 2853.25 233.224 2882.35 221.216C2910.05 208.749 2938.91 217.292 2961.49 236.689C2976.39 248.233 2989.42 262.781 3006.65 270.633C3013.86 272.249 3021.78 270.862 3029.23 271.324C3032.24 271.094 3036.2 271.788 3039.24 270.633C3043.42 268.784 3048.07 266.245 3051.81 263.935" stroke="url(#paint38_linear_355_3437)"/>
<path opacity="0.65" d="M-4.19336 223.756C114.983 203.666 236.022 194.661 356.828 197.894C484.618 200.433 611.94 214.98 739.73 221.216C857.276 227.22 975.522 225.604 1092.84 213.826C1200.61 204.359 1310.47 183.114 1418.01 203.666C1452.69 210.363 1486.21 223.062 1519.26 235.302C1536.03 241.304 1553.72 247.308 1571.41 250.772C1582.58 250.772 1594.45 250.772 1605.62 250.772C1612.6 250.772 1620.98 250.772 1628.2 250.772C1645.43 247.078 1662.42 240.151 1678.25 232.531C1725.5 208.515 1773.68 184.269 1828.15 197.662C1853.75 203.436 1877.03 217.29 1899.61 230.453C1917.76 240.842 1937.32 252.619 1958.96 250.079C1966.88 250.079 1975.49 250.079 1983.4 250.079C1997.14 246.846 2009.94 239.688 2022.04 232.761C2059.05 210.131 2098.16 187.964 2143.54 194.199C2186.61 198.355 2218.26 230.914 2256.67 247.078C2262.95 250.079 2271.11 249.156 2277.85 249.386C2285.99 249.156 2294.85 249.849 2302.98 248.695C2344.2 233.915 2375.15 194.429 2421.24 192.813C2459.65 189.812 2489.44 217.522 2518.53 237.841C2525.04 241.997 2532.51 246.617 2540.18 248.695C2546 248.695 2552.51 248.695 2558.33 248.695C2562.76 248.695 2568.35 248.695 2572.54 248.463C2581.38 245.23 2590 240.151 2597.67 234.609C2612.81 223.987 2627.23 211.518 2643.53 202.511C2694.74 175.726 2724.76 203.436 2762.94 235.302C2769.22 240.151 2776.68 245 2784.12 248.001C2794.14 248.233 2804.36 248.001 2814.38 248.001C2840.46 237.148 2858.61 213.596 2883.51 200.433C2909.82 185.424 2939.61 190.044 2962.88 209.44C2978.02 220.984 2991.05 236.225 3008.04 245.462C3013.86 248.924 3021.55 247.078 3028.07 247.54C3032.01 247.54 3036.44 247.54 3040.4 247.54C3044.36 246.385 3048.54 244.075 3052.04 241.997" stroke="url(#paint39_linear_355_3437)"/>
<path opacity="0.65" d="M-4.19336 203.668C114.518 182.424 235.09 171.109 355.898 174.112C486.479 176.19 616.363 192.354 746.48 199.742C863.795 206.669 982.041 205.978 1099.12 194.2C1218.53 184.04 1340.97 154.945 1459.91 183.117C1505.77 193.738 1548.13 216.599 1593.98 226.527C1604.92 227.221 1616.8 226.527 1627.97 226.759C1636.81 226.298 1647.06 227.453 1655.9 225.604C1717.58 208.979 1764.14 162.336 1833.27 170.648C1860.73 173.187 1886.11 185.427 1909.62 199.281C1920.79 205.746 1932.66 212.905 1944.3 218.446C1951.75 221.449 1960.36 226.298 1968.74 226.066C1981.54 225.836 1994.81 226.527 2007.61 225.604C2013.89 223.758 2021.11 220.987 2026.93 218.216C2072.32 194.893 2111.66 162.798 2166.35 170.186C2195.44 173.419 2220.83 189.583 2244.57 205.053C2256.44 212.673 2269 220.294 2282.51 224.681C2290.65 225.604 2299.51 224.911 2307.64 225.143C2324.64 227.221 2339.54 217.522 2353.27 208.747C2373.99 195.355 2394 179.191 2417.99 172.034C2493.17 150.328 2523.42 228.607 2566.26 224.449C2573.24 224.22 2580.68 224.911 2587.66 223.988C2603.49 217.754 2616.98 206.208 2630.27 196.048C2658.2 173.187 2692.42 157.023 2727.33 176.652C2743.39 185.195 2756.42 198.358 2770.38 209.672C2777.61 215.213 2785.52 221.678 2794.6 224.22C2803.44 224.22 2812.75 224.22 2821.82 224.22C2847.43 214.983 2864.43 191.199 2887.7 178.036C2912.37 162.566 2941.46 164.414 2964.53 183.117C2980.11 194.664 2992.9 210.364 3009.66 220.526C3015.25 224.911 3023.18 223.526 3029.69 223.758C3034.35 223.526 3039.7 223.988 3044.6 223.526C3046.91 222.372 3050.41 220.755 3052.5 219.371" stroke="url(#paint40_linear_355_3437)"/>
<path opacity="0.65" d="M-4.19336 184.733C114.052 162.565 234.161 148.018 354.734 150.328C490.436 151.482 625.209 169.492 760.679 177.574C877.759 184.733 995.54 184.733 1112.16 173.187C1227.38 163.259 1343.99 134.625 1459.68 154.715C1504.14 162.336 1545.8 181.5 1588.16 196.048C1597.24 199.049 1607.25 201.82 1616.56 203.668C1634.95 203.668 1654.04 203.668 1672.43 203.436C1695.47 198.357 1717.12 187.504 1738.07 177.113C1785.55 151.482 1837.23 135.319 1889.83 156.332C1912.64 164.875 1933.12 178.729 1954.54 190.275C1968.04 197.432 1982.7 204.591 1998.3 202.745C2009.24 202.052 2021.34 204.361 2031.82 201.129C2080.93 182.885 2118.64 143.401 2175.44 145.94C2209.42 146.401 2238.98 165.336 2266.22 183.81C2277.86 190.967 2289.96 199.512 2303.68 202.052C2310.22 202.052 2317.89 202.052 2324.4 202.052C2329.53 201.82 2335.81 202.513 2340.93 201.129C2347.91 198.587 2355.12 194.893 2361.43 190.967C2377.93 180.807 2393.3 168.337 2410.06 158.871C2456.15 132.547 2493.17 146.172 2531.1 178.729C2542.04 187.272 2553.44 196.509 2566.72 201.358C2574.86 201.358 2583.48 201.358 2591.62 201.358C2600.71 202.281 2609.08 196.279 2616.29 191.66C2627.23 184.271 2637.48 175.496 2647.95 167.414C2692.88 132.086 2728.02 139.245 2768.06 177.806C2778.07 186.349 2788.32 196.279 2801.12 200.665C2807.86 200.665 2815.3 200.665 2822.3 200.665C2833.94 201.82 2843.47 192.353 2852.33 186.118C2865.12 175.958 2877.22 164.182 2890.97 155.406C2914.01 139.936 2942.64 140.168 2964.99 157.948C2980.11 169.031 2992.21 184.04 3007.58 194.663C3010.38 196.741 3014.32 198.819 3017.36 200.203C3021.3 200.203 3025.96 200.203 3029.92 200.203C3037.36 200.203 3045.52 201.358 3051.81 196.509" stroke="url(#paint41_linear_355_3437)"/>
<path opacity="0.65" d="M-4.19336 166.721C113.819 144.554 233.229 125.389 353.802 126.544C492.066 125.619 629.63 144.554 767.428 153.79C884.278 161.643 1001.82 162.566 1118.44 151.481C1227.84 142.708 1337.24 116.152 1447.57 126.544C1492.27 130.7 1535.33 145.247 1576.76 161.642C1595.15 168.57 1614.23 175.726 1633.55 179.652C1648.22 180.114 1663.35 179.652 1678.01 179.652C1703.38 180.575 1726.66 166.721 1748.77 156.33C1785.78 136.933 1826.52 118.23 1869.58 123.311C1894.72 125.619 1918.46 135.78 1939.88 148.018C1960.36 159.101 1980.14 173.187 2003.19 178.729C2017.39 178.497 2032.05 179.191 2046.25 178.268C2055.79 175.497 2065.8 171.109 2074.65 166.492C2129.12 135.78 2177.76 103.221 2241.3 134.394C2257.6 142.476 2272.5 153.329 2287.64 163.027C2297.86 168.799 2308.57 176.881 2320.67 178.036C2331.38 178.036 2342.79 178.036 2353.5 177.806C2360.48 175.497 2367.71 172.032 2373.99 168.106C2415.88 141.091 2453.13 103.453 2506.66 129.545C2529.01 140.63 2546.23 159.794 2567.42 172.493C2570.2 174.11 2574.86 176.188 2577.9 177.343C2580.91 177.343 2585.57 177.343 2588.59 177.343C2595.35 177.113 2603.03 177.806 2609.77 176.651C2647.26 160.256 2673.78 114.997 2719.4 121.001C2758.05 123.773 2789.48 180.346 2814.38 176.881C2819.04 176.881 2824.62 176.881 2829.28 176.881C2831.83 177.113 2836.03 176.881 2838.12 175.265C2859.3 164.182 2874.9 144.554 2894.91 131.854C2916.8 116.614 2944.5 115.92 2966.38 133.009C2981.75 144.092 2993.62 159.333 3008.97 170.647C3011.77 172.725 3015.71 175.035 3018.98 176.42C3022.94 176.651 3027.6 176.42 3031.55 176.42C3038.52 176.188 3046.45 177.574 3052.27 172.957" stroke="url(#paint42_linear_355_3437)"/>
<path opacity="0.65" d="M-4.19336 149.403C56.326 139.473 116.845 126.773 177.598 117.768C235.556 109.223 294.213 104.144 352.87 102.989C496.255 99.0632 638.708 118.692 781.395 128.851C895.684 136.933 1010.67 138.088 1124.73 127.928C1222.26 120.308 1319.09 99.5247 1417.31 99.9883C1469.92 99.9883 1522.29 110.61 1570.94 130.236C1596.78 139.704 1622.85 151.712 1650.31 156.098C1662.88 156.098 1676.38 156.098 1689.19 156.098C1698.26 156.33 1708.04 155.868 1716.42 152.865C1767.86 136.24 1813.48 97.9083 1869.81 99.0632C1925.91 97.9083 1960.59 132.777 2008.31 152.404C2017.15 156.561 2027.63 155.175 2036.94 155.407C2046.02 154.945 2056.49 156.791 2065.34 154.02C2121.42 133.932 2163.1 86.1322 2228.97 101.141C2267.15 108.993 2293.92 140.627 2329.3 154.252C2337.2 155.175 2345.82 154.481 2353.73 154.713C2360.48 154.945 2367.94 155.175 2373.99 151.481C2407.97 135.549 2434.03 102.528 2473.14 98.1402C2515.98 92.5977 2542.73 127.235 2574.86 148.48C2579.98 151.712 2586.27 154.945 2592.32 154.02C2600.24 154.02 2608.85 154.252 2616.75 153.79C2653.54 138.088 2678.44 93.5228 2722.67 97.2171C2764.79 99.5247 2792.49 158.178 2820.43 153.329C2828.36 152.865 2837.42 155.175 2844.4 150.326C2863.04 139.243 2877.46 121.924 2895.14 109.687C2916.8 93.5228 2944.5 91.4429 2966.61 108.993C2981.98 120.308 2993.85 136.01 3009.2 147.325C3012 149.403 3015.97 151.712 3019.21 152.865C3023.18 152.865 3027.84 152.865 3031.78 152.865C3038.55 152.865 3045.76 153.79 3051.34 149.171" stroke="url(#paint43_linear_355_3437)"/>
<path opacity="0.65" d="M-4.19336 132.086C59.3519 123.774 122.199 109.688 185.279 99.067C243.005 89.1369 301.662 82.6715 360.087 80.132C508.126 72.9732 655.468 92.8312 802.81 103.223C914.303 111.073 1026.5 112.228 1137.76 102.529C1240.88 94.9091 1343.53 72.2799 1447.34 77.129C1495.76 79.209 1543.24 91.4467 1588.16 109.457C1610.28 117.77 1632.62 127.007 1655.9 131.856C1666.61 133.241 1678.24 132.086 1689.19 132.318C1699.89 131.856 1711.53 133.472 1722 130.469C1777.4 114.537 1824.89 72.2799 1885.41 75.0511C1940.57 75.2829 1975.49 110.843 2023.2 129.085C2032.05 132.549 2042.52 130.933 2051.84 131.163C2060.91 130.701 2071.39 132.318 2080 129.317C2139.13 107.61 2181.02 57.0413 2251.31 79.4387C2285.07 90.06 2309.5 118.693 2342.56 130.469C2350.48 130.469 2359.09 130.469 2367.01 130.469C2372.11 130.469 2378.42 130.701 2383.06 128.162C2414.03 114.306 2437.07 85.9042 2470.36 76.2059C2520.39 62.1201 2546.93 99.5286 2583.25 124.236C2586.04 126.084 2590.69 128.391 2593.71 129.546C2596.75 129.778 2601.17 129.778 2604.19 129.778C2610.93 129.546 2618.4 130.24 2625.14 129.317C2660.75 113.383 2684.49 70.4338 2727.56 72.9732C2770.38 74.5896 2796.46 134.166 2825.09 129.317C2830.91 129.085 2837.19 129.778 2843.01 128.853C2848.13 126.545 2853.48 122.851 2858.14 119.387C2872.33 108.304 2884.92 94.4476 2899.8 84.2878C2922.15 67.8944 2949.16 68.1241 2971.04 87.0591C2985.23 98.3737 2996.4 113.383 3011.07 124.004C3012.93 125.391 3016.43 127.237 3018.52 128.391C3022.48 128.853 3027.12 128.623 3031.08 128.623C3035.05 128.623 3039.7 128.623 3043.65 128.623C3046.22 127.93 3049.95 126.084 3052.27 124.468" stroke="url(#paint44_linear_355_3437)"/>
<path opacity="0.65" d="M-4.19336 112.919C59.3519 109.687 122.199 94.9095 184.581 83.5949C247.659 71.3551 311.437 61.6569 375.681 57.7329C527.912 47.3413 679.675 66.7378 831.208 76.6679C939.676 83.8246 1048.84 84.5179 1157.08 75.0515C1271.14 66.7378 1386.36 40.6449 1500.88 58.656C1544.87 65.583 1586.3 83.1334 1627.97 98.1423C1640.54 102.298 1654.04 106.915 1667.07 108.532C1685.23 108.532 1703.85 108.532 1722 108.302C1793.47 90.7516 1838.62 37.4121 1921.02 54.2684C1945.69 59.3493 1968.27 71.5869 1989.92 84.0564C2006.45 93.0613 2023.67 104.146 2042.52 107.609C2056.49 107.379 2070.92 107.84 2084.89 107.379C2096.06 104.376 2107.23 99.2971 2117.48 93.9844C2171.71 63.0436 2218.49 30.7159 2281.33 64.8896C2297.17 73.4351 2311.61 84.9795 2326.72 94.6777C2335.35 99.5268 2344.9 106.915 2355.12 106.915C2365.6 106.454 2377 107.609 2387.48 106.224C2392.84 104.376 2398.89 101.143 2403.55 98.372C2443.12 72.7418 2479.42 32.3322 2530.86 57.7329C2553.44 68.8157 2569.74 88.9055 2590.93 102.066C2592.09 102.991 2596.51 104.837 2597.9 105.763C2600.71 106.915 2605.35 106.686 2608.38 106.686C2615.13 106.686 2622.57 106.686 2629.34 106.686C2665.87 90.7516 2690.08 44.5701 2734.77 50.1126C2753.15 52.4223 2768.29 64.6599 2781.32 77.1294C2789.02 84.2861 2796.69 92.368 2805.06 98.8335C2808.33 101.375 2812.99 104.376 2816.95 106.224C2819.5 106.454 2823.46 106.454 2826.01 106.454C2831.83 106.454 2838.12 106.454 2843.93 106.454C2846.74 105.299 2850.45 103.221 2853.02 101.605C2871.17 89.367 2885.15 71.5869 2903.77 59.579C2925.88 44.3404 2951.71 46.648 2972.2 65.1215C2986.16 76.8976 2997.1 92.1383 3012.23 102.53C3012.7 103.221 3016.43 104.837 3017.13 105.531C3021.07 106.454 3025.73 105.763 3029.69 105.992C3033.65 105.992 3038.29 105.992 3042.26 105.992C3045.52 105.069 3049.47 102.76 3052.27 100.682" stroke="url(#paint45_linear_355_3437)"/>
<path opacity="0.65" d="M-4.19336 89.1372C18.1523 88.9054 41.4289 89.5987 63.7746 88.4439C98.224 84.9793 133.139 79.4389 167.123 72.9734C238.815 59.3491 310.508 44.1084 383.13 37.4124C532.101 22.4033 681.77 37.4124 830.742 47.3412C937.117 54.2682 1043.96 56.1164 1150.33 48.496C1214.57 44.1084 1278.82 36.2579 1343.06 31.6398C1405.44 27.2524 1469.22 26.3287 1530.44 41.5688C1557.9 48.2642 1584.67 58.1943 1611.21 68.1243C1631.23 74.8195 1651.71 83.8244 1672.89 85.2111C1689.19 85.2111 1705.94 85.2111 1722.24 84.9793C1767.86 77.8226 1805.8 46.6478 1850.03 34.4106C1891.93 21.2488 1938.01 27.7141 1975.96 49.1893C1999.46 61.427 2022.04 77.1292 2047.88 84.0563C2063.24 83.5947 2079.53 84.9793 2094.9 83.1332C2144.47 67.8925 2184.5 23.5579 2239.68 26.7907C2273.43 27.4834 2301.59 48.0345 2327.9 66.7377C2337.9 73.2031 2348.38 81.0553 2360.24 83.3629C2365.37 83.3629 2371.42 83.3629 2376.54 83.3629C2381.43 83.3629 2387.71 83.3629 2392.61 83.3629C2397.96 81.7465 2404.01 78.7456 2408.67 75.9744C2425.43 66.0443 2440.08 52.8836 2456.38 42.2615C2497.57 15.0141 2532.97 24.2506 2567.88 56.3461C2579.75 65.8146 2591.16 78.2841 2606.3 82.6717C2613.04 82.6717 2620.48 82.6717 2627.23 82.6717C2667.5 82.6717 2707.76 -22.6242 2782.73 51.9606C2793.91 62.35 2804.36 74.5898 2818.34 81.7465C2824.16 82.6717 2830.44 81.9783 2836.26 82.208C2838.58 82.208 2842.78 82.208 2845.12 82.208C2852.79 78.9753 2860 73.2031 2866.28 67.6607C2880.72 55.1933 2893.75 40.1834 2910.74 31.1778C2933.56 18.7088 2957.76 26.3287 2975.93 45.0314C2989.19 57.2712 2999.9 72.7416 3015.97 81.5168C3023.41 82.2081 3031.31 81.5168 3038.78 81.7465C3043.88 81.9784 3048.54 77.3589 3052.5 74.5898" stroke="url(#paint46_linear_355_3437)"/>
<path opacity="0.65" d="M-4.19336 65.351C23.7387 65.351 52.1363 65.351 80.0682 65.1213C100.086 65.1213 121.035 65.5828 140.82 62.5797C211.115 54.0364 280.248 36.9494 349.845 25.404C454.124 7.39289 560.267 4.39113 665.942 8.54755C820.5 15.013 975.056 29.5604 1129.85 20.7856C1247.39 16.6294 1365.64 -4.61442 1482.96 10.1639C1520.89 15.2438 1557.9 26.3277 1593.75 39.4894C1615.86 47.3411 1638.44 55.6527 1661.49 60.5019C1674.06 62.1182 1687.56 60.7337 1700.13 61.1952C1708.97 60.9634 1718.75 61.8885 1727.36 60.2721C1744.12 56.5758 1760.41 49.6487 1775.77 42.4914C1823.26 19.1692 1871.67 -4.8454 1926.14 6.00749C1954.54 11.0874 1979.91 25.404 2004.58 39.2587C2023.67 49.419 2043.92 62.35 2066.5 59.8085C2075.58 59.8085 2085.59 59.8085 2094.67 59.8085C2105.84 57.9624 2117.02 52.6518 2127.24 47.5709C2166.12 26.7894 2205.69 -3.22902 2252.47 3.23648C2279.25 6.23847 2302.52 21.4785 2323.71 36.9494C2335.11 45.0314 2346.98 53.5748 2360.24 58.424C2365.14 59.5788 2371.42 59.1173 2376.31 59.1173C2385.63 58.6558 2396.11 60.7337 2404.48 55.8845C2428.68 43.8766 2447.78 23.0949 2471.98 11.0876C2495.26 -1.61264 2524.81 -0.919938 2546.7 14.0894C2563.22 24.4803 2576.72 39.2587 2592.32 50.5739C2596.28 53.5748 2601.64 56.5779 2606.3 58.424C2610.47 58.8855 2616.06 58.6558 2620.25 58.6558C2627.23 58.424 2634.93 60.0403 2641.21 55.8845C2661.68 44.3381 2677.05 25.404 2696.59 12.7038C2737.34 -13.62 2765.74 9.47122 2794.83 39.7204C2801.81 46.416 2809.72 53.5748 2818.57 57.7306C2824.39 57.9624 2830.91 57.7306 2836.72 57.9624C2848.83 59.5788 2858.14 49.419 2866.75 42.2604C2881.65 28.8675 2895.38 12.7038 2914.01 4.62209C2938.45 -6.46176 2961.72 7.16193 2978.71 26.0967C2989.89 36.9494 2999.44 50.8036 3013.86 57.5009C3021.3 57.5009 3029.23 57.5009 3036.67 57.5009C3042.49 55.8845 3047.38 51.4969 3051.81 47.8027" stroke="url(#paint47_linear_355_3437)"/>
<path opacity="0.65" d="M-4.19336 33.9461C14.1952 36.9479 33.9805 39.2569 52.6018 41.1043C72.6196 41.797 93.8014 41.1043 113.819 41.335C148.036 41.1043 182.951 42.7207 216.702 36.9479C277.455 28.635 337.742 14.3186 398.261 3.92768C453.192 -5.77056 509.29 -12.2361 565.154 -15.0071C733.211 -23.3197 901.036 -4.15419 1069.09 -7.38694C1141.49 -8.07964 1213.88 -12.6978 1286.27 -16.6232C1353.77 -19.856 1422.43 -22.1653 1489.24 -10.3887C1522.99 -4.61593 1556.28 5.77502 1588.63 17.0896C1614.23 24.9405 1640.54 36.9479 1667.77 37.1788C1684.07 37.1788 1701.06 37.1788 1717.35 36.9479C1747.84 32.0987 1775.54 16.6277 1803.47 4.15865C1849.1 -18.7016 1903.1 -29.7852 1952.21 -10.8507C1976.19 -2.30685 1997.83 11.5476 2020.18 23.0932C2030.66 28.4043 2042.06 33.4842 2053.47 36.0242C2068.83 35.5625 2084.89 36.7169 2100.48 35.3315C2125.39 28.4043 2147.27 13.6259 2169.62 1.15666C2208.96 -22.1653 2254.81 -31.1706 2296.24 -7.15596C2317.66 4.38942 2335.58 21.4768 2357.69 32.0987C2364.9 36.4861 2373.99 35.1005 2381.9 35.3315C2386.79 35.3315 2393.07 35.3315 2397.96 35.3315C2403.32 34.4078 2409.37 31.1751 2414.03 28.635C2455.45 2.77304 2491.29 -42.0235 2544.84 -12.467C2566.72 -0.22874 2582.54 20.7841 2604.65 32.7914C2609.54 35.7932 2616.52 34.4078 2622.11 34.6388C2629.11 34.4078 2637.01 36.0242 2643.06 31.8678C2676.12 13.3949 2701.48 -31.4016 2744.79 -21.2416C2760.62 -17.3162 2773.65 -5.77056 2784.82 5.54406C2792.49 12.9332 2800.19 21.2458 2808.56 27.9423C2810.65 29.7897 2814.84 32.0987 2817.41 33.7151C2819.73 34.6388 2823.93 34.4078 2826.48 34.4078C2832.3 34.4078 2838.58 34.4078 2844.4 34.4078C2850.93 31.406 2857.22 26.5569 2862.57 21.9388C2878.15 8.54584 2891.67 -8.31062 2910.28 -17.7779C2932.63 -29.5542 2955.9 -19.856 2972.89 -1.61414C2985.23 10.3932 2995.47 25.4023 3010.61 33.7151C3018.98 33.7151 3027.84 34.6388 3036.2 33.2534C3042.26 30.0206 3047.84 25.4023 3052.73 20.7841" stroke="url(#paint48_linear_355_3437)"/>
<path opacity="0.65" d="M-4.19336 -2.99741C40.0324 5.31544 84.9563 14.3208 129.88 17.3228C175.037 16.1681 221.125 19.1699 266.281 15.2444C340.069 6.70084 412.459 -11.5412 485.781 -22.8556C572.136 -36.9413 659.891 -41.5594 747.41 -41.3287C858.906 -41.0977 970.401 -35.7866 1081.9 -37.1723C1179.19 -37.403 1276.26 -44.7922 1373.55 -42.0214C1430.58 -40.6358 1487.61 -32.5539 1542.08 -15.6974C1576.29 -5.76842 1609.81 7.62451 1645.19 13.6281C1667.3 13.1663 1689.88 14.5517 1711.76 12.7044C1724.57 9.93359 1737.83 5.54619 1749.94 0.697069C1786.48 -14.0811 1821.63 -34.8632 1861.2 -41.5594C1919.39 -52.4123 1961.99 -31.3995 2010.87 -3.69012C2022.97 2.54441 2035.78 8.54818 2049.04 12.2427C2061.38 12.9354 2074.41 12.2427 2086.75 12.4736C2098.16 13.6281 2109.09 8.54818 2119.34 4.16079C2136.79 -3.69011 2153.32 -14.0811 2169.85 -23.3176C2205.69 -44.0995 2249.46 -54.0287 2288.1 -34.6322C2307.18 -25.6267 2323.94 -11.772 2341.63 -0.226606C2349.07 4.39176 2357.46 9.47164 2365.83 11.7807C2369.33 11.7807 2374.45 11.7807 2377.93 11.7807C2387.25 11.319 2397.5 13.3973 2406.1 9.00992C2427.98 -1.38103 2445.21 -19.3921 2465.93 -31.8612C2491.06 -48.4869 2523.19 -51.0267 2548.55 -33.4776C2566.26 -22.1629 2580.22 -5.76843 2597.67 5.77716C2600.48 7.62451 2604.88 9.93359 2608.15 11.088C2613.74 11.088 2620.02 11.088 2625.61 11.088C2628.64 11.088 2633.05 11.088 2636.08 11.088C2642.14 8.54819 2648.42 4.39177 2653.54 0.466315C2676.82 -17.3138 2697.08 -44.5614 2728.49 -46.1778C2774.11 -48.7176 2796.46 15.9371 2826.71 10.6263C2831.37 10.6263 2836.96 10.6263 2841.62 10.3953C2848.13 7.39353 2854.41 2.31344 2860 -2.30471C2873.03 -13.8503 2884.67 -27.474 2899.11 -37.1723C2921.22 -52.8741 2946.12 -48.4869 2965.22 -28.6284C2978.95 -15.9284 2989.42 0.697077 3005.72 9.93359C3010.61 10.3953 3016.2 10.1646 3021.07 10.1646C3024.1 9.93359 3028.3 10.6263 3031.31 9.47165C3039.01 5.31544 3045.76 -1.15007 3051.81 -7.15384" stroke="url(#paint49_linear_355_3437)"/>
</g>
</g>
<defs>
<linearGradient id="paint0_linear_355_3437" x1="1523.69" y1="1086.42" x2="1523.69" y2="1143.01" gradientUnits="userSpaceOnUse">
<stop stop-color="#303030"/>
<stop offset="1" stop-color="#303030" stop-opacity="0"/>
</linearGradient>
<linearGradient id="paint1_linear_355_3437" x1="1524.27" y1="1064.27" x2="1524.27" y2="1120.53" gradientUnits="userSpaceOnUse">
<stop stop-color="#303030"/>
<stop offset="1" stop-color="#303030" stop-opacity="0"/>
</linearGradient>
<linearGradient id="paint2_linear_355_3437" x1="1523.92" y1="1042.72" x2="1523.92" y2="1098.59" gradientUnits="userSpaceOnUse">
<stop stop-color="#303030"/>
<stop offset="1" stop-color="#303030" stop-opacity="0"/>
</linearGradient>
<linearGradient id="paint3_linear_355_3437" x1="1523.92" y1="1019.82" x2="1523.92" y2="1075.92" gradientUnits="userSpaceOnUse">
<stop stop-color="#303030"/>
<stop offset="1" stop-color="#303030" stop-opacity="0"/>
</linearGradient>
<linearGradient id="paint4_linear_355_3437" x1="1523.8" y1="997.476" x2="1523.8" y2="1053.45" gradientUnits="userSpaceOnUse">
<stop stop-color="#303030"/>
<stop offset="1" stop-color="#303030" stop-opacity="0"/>
</linearGradient>
<linearGradient id="paint5_linear_355_3437" x1="1523.69" y1="974.777" x2="1523.69" y2="1032.17" gradientUnits="userSpaceOnUse">
<stop stop-color="#303030"/>
<stop offset="1" stop-color="#303030" stop-opacity="0"/>
</linearGradient>
<linearGradient id="paint6_linear_355_3437" x1="1523.92" y1="952.713" x2="1523.92" y2="1010.93" gradientUnits="userSpaceOnUse">
<stop stop-color="#303030"/>
<stop offset="1" stop-color="#303030" stop-opacity="0"/>
</linearGradient>
<linearGradient id="paint7_linear_355_3437" x1="1524.15" y1="929.216" x2="1524.15" y2="988.533" gradientUnits="userSpaceOnUse">
<stop stop-color="#303030"/>
<stop offset="1" stop-color="#303030" stop-opacity="0"/>
</linearGradient>
<linearGradient id="paint8_linear_355_3437" x1="1523.8" y1="906.679" x2="1523.8" y2="965.825" gradientUnits="userSpaceOnUse">
<stop stop-color="#303030"/>
<stop offset="1" stop-color="#303030" stop-opacity="0"/>
</linearGradient>
<linearGradient id="paint9_linear_355_3437" x1="1524.15" y1="884.141" x2="1524.15" y2="943.045" gradientUnits="userSpaceOnUse">
<stop stop-color="#303030"/>
<stop offset="1" stop-color="#303030" stop-opacity="0"/>
</linearGradient>
<linearGradient id="paint10_linear_355_3437" x1="1523.92" y1="861.088" x2="1523.92" y2="920.291" gradientUnits="userSpaceOnUse">
<stop stop-color="#303030"/>
<stop offset="1" stop-color="#303030" stop-opacity="0"/>
</linearGradient>
<linearGradient id="paint11_linear_355_3437" x1="1523.69" y1="839.154" x2="1523.69" y2="897.364" gradientUnits="userSpaceOnUse">
<stop stop-color="#303030"/>
<stop offset="1" stop-color="#303030" stop-opacity="0"/>
</linearGradient>
<linearGradient id="paint12_linear_355_3437" x1="1523.92" y1="815.319" x2="1523.92" y2="874.552" gradientUnits="userSpaceOnUse">
<stop stop-color="#303030"/>
<stop offset="1" stop-color="#303030" stop-opacity="0"/>
</linearGradient>
<linearGradient id="paint13_linear_355_3437" x1="1523.92" y1="792.992" x2="1523.92" y2="851.832" gradientUnits="userSpaceOnUse">
<stop stop-color="#303030"/>
<stop offset="1" stop-color="#303030" stop-opacity="0"/>
</linearGradient>
<linearGradient id="paint14_linear_355_3437" x1="1523.92" y1="769.972" x2="1523.92" y2="829.074" gradientUnits="userSpaceOnUse">
<stop stop-color="#303030"/>
<stop offset="1" stop-color="#303030" stop-opacity="0"/>
</linearGradient>
<linearGradient id="paint15_linear_355_3437" x1="1523.92" y1="747.516" x2="1523.92" y2="806.241" gradientUnits="userSpaceOnUse">
<stop stop-color="#303030"/>
<stop offset="1" stop-color="#303030" stop-opacity="0"/>
</linearGradient>
<linearGradient id="paint16_linear_355_3437" x1="1523.8" y1="724.446" x2="1523.8" y2="783.318" gradientUnits="userSpaceOnUse">
<stop stop-color="#303030"/>
<stop offset="1" stop-color="#303030" stop-opacity="0"/>
</linearGradient>
<linearGradient id="paint17_linear_355_3437" x1="1523.8" y1="701.323" x2="1523.8" y2="760.449" gradientUnits="userSpaceOnUse">
<stop stop-color="#303030"/>
<stop offset="1" stop-color="#303030" stop-opacity="0"/>
</linearGradient>
<linearGradient id="paint18_linear_355_3437" x1="1523.8" y1="679.097" x2="1523.8" y2="737.834" gradientUnits="userSpaceOnUse">
<stop stop-color="#303030"/>
<stop offset="1" stop-color="#303030" stop-opacity="0"/>
</linearGradient>
<linearGradient id="paint19_linear_355_3437" x1="1523.69" y1="656.126" x2="1523.69" y2="714.672" gradientUnits="userSpaceOnUse">
<stop stop-color="#303030"/>
<stop offset="1" stop-color="#303030" stop-opacity="0"/>
</linearGradient>
<linearGradient id="paint20_linear_355_3437" x1="1523.92" y1="632.574" x2="1523.92" y2="691.963" gradientUnits="userSpaceOnUse">
<stop stop-color="#303030"/>
<stop offset="1" stop-color="#303030" stop-opacity="0"/>
</linearGradient>
<linearGradient id="paint21_linear_355_3437" x1="1524.04" y1="609.117" x2="1524.04" y2="668.938" gradientUnits="userSpaceOnUse">
<stop stop-color="#303030"/>
<stop offset="1" stop-color="#303030" stop-opacity="0"/>
</linearGradient>
<linearGradient id="paint22_linear_355_3437" x1="1523.8" y1="586.553" x2="1523.8" y2="648.222" gradientUnits="userSpaceOnUse">
<stop stop-color="#303030"/>
<stop offset="1" stop-color="#303030" stop-opacity="0"/>
</linearGradient>
<linearGradient id="paint23_linear_355_3437" x1="1523.92" y1="563.589" x2="1523.92" y2="626.001" gradientUnits="userSpaceOnUse">
<stop stop-color="#303030"/>
<stop offset="1" stop-color="#303030" stop-opacity="0"/>
</linearGradient>
<linearGradient id="paint24_linear_355_3437" x1="1524.15" y1="540.476" x2="1524.15" y2="602.91" gradientUnits="userSpaceOnUse">
<stop stop-color="#303030"/>
<stop offset="1" stop-color="#303030" stop-opacity="0"/>
</linearGradient>
<linearGradient id="paint25_linear_355_3437" x1="1524.04" y1="517.474" x2="1524.04" y2="580.061" gradientUnits="userSpaceOnUse">
<stop stop-color="#303030"/>
<stop offset="1" stop-color="#303030" stop-opacity="0"/>
</linearGradient>
<linearGradient id="paint26_linear_355_3437" x1="1523.69" y1="495.322" x2="1523.69" y2="556.268" gradientUnits="userSpaceOnUse">
<stop stop-color="#303030"/>
<stop offset="1" stop-color="#303030" stop-opacity="0"/>
</linearGradient>
<linearGradient id="paint27_linear_355_3437" x1="1523.92" y1="471.632" x2="1523.92" y2="531.533" gradientUnits="userSpaceOnUse">
<stop stop-color="#303030"/>
<stop offset="1" stop-color="#303030" stop-opacity="0"/>
</linearGradient>
<linearGradient id="paint28_linear_355_3437" x1="1523.8" y1="448.604" x2="1523.8" y2="508.092" gradientUnits="userSpaceOnUse">
<stop stop-color="#303030"/>
<stop offset="1" stop-color="#303030" stop-opacity="0"/>
</linearGradient>
<linearGradient id="paint29_linear_355_3437" x1="1523.8" y1="425.364" x2="1523.8" y2="485.094" gradientUnits="userSpaceOnUse">
<stop stop-color="#303030"/>
<stop offset="1" stop-color="#303030" stop-opacity="0"/>
</linearGradient>
<linearGradient id="paint30_linear_355_3437" x1="1523.8" y1="401.873" x2="1523.8" y2="461.36" gradientUnits="userSpaceOnUse">
<stop stop-color="#303030"/>
<stop offset="1" stop-color="#303030" stop-opacity="0"/>
</linearGradient>
<linearGradient id="paint31_linear_355_3437" x1="1523.8" y1="379.449" x2="1523.8" y2="438.616" gradientUnits="userSpaceOnUse">
<stop stop-color="#303030"/>
<stop offset="1" stop-color="#303030" stop-opacity="0"/>
</linearGradient>
<linearGradient id="paint32_linear_355_3437" x1="1523.8" y1="355.462" x2="1523.8" y2="415.045" gradientUnits="userSpaceOnUse">
<stop stop-color="#303030"/>
<stop offset="1" stop-color="#303030" stop-opacity="0"/>
</linearGradient>
<linearGradient id="paint33_linear_355_3437" x1="1523.69" y1="332.181" x2="1523.69" y2="391.498" gradientUnits="userSpaceOnUse">
<stop stop-color="#303030"/>
<stop offset="1" stop-color="#303030" stop-opacity="0"/>
</linearGradient>
<linearGradient id="paint34_linear_355_3437" x1="1524.15" y1="308.147" x2="1524.15" y2="368.09" gradientUnits="userSpaceOnUse">
<stop stop-color="#303030"/>
<stop offset="1" stop-color="#303030" stop-opacity="0"/>
</linearGradient>
<linearGradient id="paint35_linear_355_3437" x1="1524.15" y1="284.612" x2="1524.15" y2="344.656" gradientUnits="userSpaceOnUse">
<stop stop-color="#303030"/>
<stop offset="1" stop-color="#303030" stop-opacity="0"/>
</linearGradient>
<linearGradient id="paint36_linear_355_3437" x1="1524.27" y1="261.678" x2="1524.27" y2="321.339" gradientUnits="userSpaceOnUse">
<stop stop-color="#303030"/>
<stop offset="1" stop-color="#303030" stop-opacity="0"/>
</linearGradient>
<linearGradient id="paint37_linear_355_3437" x1="1523.92" y1="238.166" x2="1523.92" y2="297.649" gradientUnits="userSpaceOnUse">
<stop stop-color="#303030"/>
<stop offset="1" stop-color="#303030" stop-opacity="0"/>
</linearGradient>
<linearGradient id="paint38_linear_355_3437" x1="1523.8" y1="215.368" x2="1523.8" y2="274.664" gradientUnits="userSpaceOnUse">
<stop stop-color="#303030"/>
<stop offset="1" stop-color="#303030" stop-opacity="0"/>
</linearGradient>
<linearGradient id="paint39_linear_355_3437" x1="1523.92" y1="191.534" x2="1523.92" y2="250.772" gradientUnits="userSpaceOnUse">
<stop stop-color="#303030"/>
<stop offset="1" stop-color="#303030" stop-opacity="0"/>
</linearGradient>
<linearGradient id="paint40_linear_355_3437" x1="1524.15" y1="167.63" x2="1524.15" y2="226.846" gradientUnits="userSpaceOnUse">
<stop stop-color="#303030"/>
<stop offset="1" stop-color="#303030" stop-opacity="0"/>
</linearGradient>
<linearGradient id="paint41_linear_355_3437" x1="1523.8" y1="144.187" x2="1523.8" y2="203.668" gradientUnits="userSpaceOnUse">
<stop stop-color="#303030"/>
<stop offset="1" stop-color="#303030" stop-opacity="0"/>
</linearGradient>
<linearGradient id="paint42_linear_355_3437" x1="1524.04" y1="120.308" x2="1524.04" y2="179.857" gradientUnits="userSpaceOnUse">
<stop stop-color="#303030"/>
<stop offset="1" stop-color="#303030" stop-opacity="0"/>
</linearGradient>
<linearGradient id="paint43_linear_355_3437" x1="1523.57" y1="96.6755" x2="1523.57" y2="156.15" gradientUnits="userSpaceOnUse">
<stop stop-color="#303030"/>
<stop offset="1" stop-color="#303030" stop-opacity="0"/>
</linearGradient>
<linearGradient id="paint44_linear_355_3437" x1="1524.04" y1="72.4021" x2="1524.04" y2="132.551" gradientUnits="userSpaceOnUse">
<stop stop-color="#303030"/>
<stop offset="1" stop-color="#303030" stop-opacity="0"/>
</linearGradient>
<linearGradient id="paint45_linear_355_3437" x1="1524.04" y1="49.5372" x2="1524.04" y2="112.919" gradientUnits="userSpaceOnUse">
<stop stop-color="#303030"/>
<stop offset="1" stop-color="#303030" stop-opacity="0"/>
</linearGradient>
<linearGradient id="paint46_linear_355_3437" x1="1524.15" y1="25.0712" x2="1524.15" y2="89.1372" gradientUnits="userSpaceOnUse">
<stop stop-color="#303030"/>
<stop offset="1" stop-color="#303030" stop-opacity="0"/>
</linearGradient>
<linearGradient id="paint47_linear_355_3437" x1="1523.8" y1="0.638692" x2="1523.8" y2="65.351" gradientUnits="userSpaceOnUse">
<stop stop-color="#303030"/>
<stop offset="1" stop-color="#303030" stop-opacity="0"/>
</linearGradient>
<linearGradient id="paint48_linear_355_3437" x1="1524.27" y1="-22.9277" x2="1524.27" y2="41.4214" gradientUnits="userSpaceOnUse">
<stop stop-color="#303030"/>
<stop offset="1" stop-color="#303030" stop-opacity="0"/>
</linearGradient>
<linearGradient id="paint49_linear_355_3437" x1="1523.8" y1="-46.6728" x2="1523.8" y2="17.3472" gradientUnits="userSpaceOnUse">
<stop stop-color="#303030"/>
<stop offset="1" stop-color="#303030" stop-opacity="0"/>
</linearGradient>
<clipPath id="clip0_355_3437">
<rect width="1920" height="1080" fill="white"/>
</clipPath>
<clipPath id="clip1_355_3437">
<rect width="3040.06" height="1368.78" fill="white" transform="translate(0.0195312 1.90039)"/>
</clipPath>
</defs>
</svg>
